<svg version="1.1" xmlns="http://www.w3.org/2000/svg" viewBox="0 0 969.4429931640625 511.39208984375" width="969.4429931640625" height="511.39208984375" filter="invert(93%) hue-rotate(180deg)">
  <!-- svg-source:excalidraw -->
  
  <defs>
    <style class="style-fonts">
      @font-face {
        font-family: "Virgil";
        src: url("https://excalidraw.com/Virgil.woff2");
      }
      @font-face {
        font-family: "Cascadia";
        src: url("https://excalidraw.com/Cascadia.woff2");
      }
      @font-face {
        font-family: "Assistant";
        src: url("https://excalidraw.com/Assistant-Regular.woff2");
      }
    </style>
    <clipPath id="4nP7HrFgxjarE9POE9K-k">
            <rect transform="translate(0 0) rotate(0 484.72149658203125 255.696044921875)" width="969.4429931640625" height="511.3920898437501">
          </rect>
        </clipPath>
  </defs>
  <g clip-path="url(#4nP7HrFgxjarE9POE9K-k)"><g stroke-linecap="round" transform="translate(52.26971359778463 105.69656405313845) rotate(0 443.7802736386076 197.20727238755762)"><path d="M0 0 C336.96 -0.37, 674.28 0.04, 887.56 0 M0 0 C331.75 -0.23, 663.15 0.39, 887.56 0 M887.56 0 C889.46 86.7, 888.31 172.69, 887.56 394.41 M887.56 0 C886.74 81.38, 886.93 164.06, 887.56 394.41 M887.56 394.41 C701.75 393.71, 516.09 393.51, 0 394.41 M887.56 394.41 C534.73 396.68, 181.21 396.69, 0 394.41 M0 394.41 C0.57 293.92, 0.29 195.68, 0 0 M0 394.41 C0.1 295.61, 0.34 196.91, 0 0" stroke="#1e1e1e" stroke-width="2" fill="none"></path></g></g><g clip-path="url(#4nP7HrFgxjarE9POE9K-k)"><g stroke-linecap="round" transform="translate(9.928658097784933 11.393991053138052) rotate(0 474.57812499999994 22)"><path d="M0 0 C300.98 -0.57, 603.87 -1.23, 949.16 0 M949.16 0 C948.57 14.61, 947.64 26.93, 949.16 44 M949.16 44 C630.12 46.57, 310.48 45.91, 0 44 M0 44 C0.32 32.16, -1.72 18.69, 0 0" stroke="#1e1e1e" stroke-width="2.5" fill="none" stroke-dasharray="8 10"></path></g></g><g clip-path="url(#4nP7HrFgxjarE9POE9K-k)"><g stroke-linecap="round"><g transform="translate(52.26971359778463 179.1579536243903) rotate(0 442.64177172818256 -0.8170081455166383)"><path d="M0 0 C294.93 -3.49, 588.65 -3.83, 885.28 -1.63 M0 0 C196.61 -2.9, 394.01 -3.04, 885.28 -1.63" stroke="#000" stroke-width="1" fill="none"></path></g></g><mask></mask></g><g clip-path="url(#4nP7HrFgxjarE9POE9K-k)"><g stroke-linecap="round"><g transform="translate(52.26971359778463 391.2300957899047) rotate(0 442.4221671294807 -0.6202955085616395)"><path d="M0 0 C339.2 -0.27, 677.82 -1.24, 884.84 -1.24 M0 0 C332.69 -1.4, 665.32 -2.27, 884.84 -1.24" stroke="#000" stroke-width="1" fill="none"></path></g></g><mask></mask></g><g clip-path="url(#4nP7HrFgxjarE9POE9K-k)"><g stroke-linecap="round"><g transform="translate(484.66917671610736 56.39399105313805) rotate(0 0.16890839902475818 24.442780796326133)"><path d="M0.15 -0.43 C0.17 7.79, 0.19 41.05, 0.14 49.3" stroke="#1e1e1e" stroke-width="2.5" fill="none" stroke-dasharray="1.5 8"></path></g></g><mask></mask></g><g clip-path="url(#4nP7HrFgxjarE9POE9K-k)"><g transform="translate(405.8523192015755 110.77955264579032) rotate(0 63.87248732715727 11.891895822365314)"><text x="0" y="19.138519839119134" font-family="Cascadia, Segoe UI Emoji" font-size="19.819826370608812px" fill="#1e1e1e" text-anchor="start" style="white-space: pre;" direction="ltr" dominant-baseline="alphabetic">«component»</text></g></g><g clip-path="url(#4nP7HrFgxjarE9POE9K-k)"><g transform="translate(330.575689591642 143.48226615729482) rotate(0 133.55156441132897 11.891895822365314)"><text x="0" y="19.138519839119134" font-family="Cascadia, Segoe UI Emoji" font-size="19.819826370608812px" fill="#1e1e1e" text-anchor="start" style="white-space: pre;" direction="ltr" dominant-baseline="alphabetic">HuggingFaceTGIGenerator</text></g></g><g clip-path="url(#4nP7HrFgxjarE9POE9K-k)"><g transform="translate(59.702148486763235 188.07687549116463) rotate(0 52.259307813128714 11.891895822365314)"><text x="0" y="19.138519839119134" font-family="Cascadia, Segoe UI Emoji" font-size="19.819826370608812px" fill="#1e1e1e" text-anchor="start" style="white-space: pre;" direction="ltr" dominant-baseline="alphabetic">model str</text></g></g><g clip-path="url(#4nP7HrFgxjarE9POE9K-k)"><g transform="translate(59.702148486763235 220.77958900266958) rotate(0 104.51861562625743 11.891895822365314)"><text x="0" y="19.138519839119134" font-family="Cascadia, Segoe UI Emoji" font-size="19.819826370608812px" fill="#1e1e1e" text-anchor="start" style="white-space: pre;" direction="ltr" dominant-baseline="alphabetic">url: Optional[str]</text></g></g><g clip-path="url(#4nP7HrFgxjarE9POE9K-k)"><g transform="translate(59.702148486763235 253.48230251417363) rotate(0 133.55156441132897 11.891895822365314)"><text x="0" y="19.138519839119134" font-family="Cascadia, Segoe UI Emoji" font-size="19.819826370608812px" fill="#1e1e1e" text-anchor="start" style="white-space: pre;" direction="ltr" dominant-baseline="alphabetic">token: Optional[Secret]</text></g></g><g clip-path="url(#4nP7HrFgxjarE9POE9K-k)"><g transform="translate(59.702148486763235 286.1850160256786) rotate(0 249.6833595516149 11.891895822365314)"><text x="0" y="19.138519839119134" font-family="Cascadia, Segoe UI Emoji" font-size="19.819826370608812px" fill="#1e1e1e" text-anchor="start" style="white-space: pre;" direction="ltr" dominant-baseline="alphabetic">generation_kwargs: Optional[Dict[str, Any]]</text></g></g><g clip-path="url(#4nP7HrFgxjarE9POE9K-k)"><g transform="translate(59.702148486763235 318.8877295371826) rotate(0 180.00428246744332 11.891895822365314)"><text x="0" y="19.138519839119134" font-family="Cascadia, Segoe UI Emoji" font-size="19.819826370608812px" fill="#1e1e1e" text-anchor="start" style="white-space: pre;" direction="ltr" dominant-baseline="alphabetic">stop_words: Optional[List[str]]</text></g></g><g clip-path="url(#4nP7HrFgxjarE9POE9K-k)"><g transform="translate(59.702148486763235 351.5904430486876) rotate(0 360.00856493488664 11.891895822365314)"><text x="0" y="19.138519839119134" font-family="Cascadia, Segoe UI Emoji" font-size="19.819826370608812px" fill="#1e1e1e" text-anchor="start" style="white-space: pre;" direction="ltr" dominant-baseline="alphabetic">streaming_callback: Optional[Callable[[StreamingChunk], None]]</text></g></g><g clip-path="url(#4nP7HrFgxjarE9POE9K-k)"><g transform="translate(59.702148486763235 396.1850523825574) rotate(0 156.7779234393861 11.891895822365314)"><text x="0" y="19.138519839119134" font-family="Cascadia, Segoe UI Emoji" font-size="19.819826370608812px" fill="#1e1e1e" text-anchor="start" style="white-space: pre;" direction="ltr" dominant-baseline="alphabetic">+to_dict() : Dict[str, Any]</text></g></g><g clip-path="url(#4nP7HrFgxjarE9POE9K-k)"><g transform="translate(59.702148486763235 428.88776589406143) rotate(0 180.00428246744332 11.891895822365314)"><text x="0" y="19.138519839119134" font-family="Cascadia, Segoe UI Emoji" font-size="19.819826370608812px" fill="#1e1e1e" text-anchor="start" style="white-space: pre;" direction="ltr" dominant-baseline="alphabetic">+from_dict(Dict[str, Any] data)</text></g></g><g clip-path="url(#4nP7HrFgxjarE9POE9K-k)"><g transform="translate(59.702148486763235 461.5904794055664) rotate(0 435.4942317760725 11.891895822365314)"><text x="0" y="19.138519839119134" font-family="Cascadia, Segoe UI Emoji" font-size="19.819826370608812px" fill="#1e1e1e" text-anchor="start" style="white-space: pre;" direction="ltr" dominant-baseline="alphabetic">+run(prompt: str, generation_kwargs: Optional[Dict[str, Any]]) : OutputType</text></g></g><g clip-path="url(#4nP7HrFgxjarE9POE9K-k)"><g transform="translate(72.00678309778505 23.793991053138143) rotate(0 412.5 9.599999999999909)"><text x="412.5" y="15.45" font-family="Cascadia, Segoe UI Emoji" font-size="16px" fill="#000" text-anchor="middle" style="white-space: pre;" direction="ltr" dominant-baseline="alphabetic">OutputType=TypedDict('OutputType', {'replies': List[str], 'meta': List[Dict[str, Any]]})</text></g></g></svg>