<svg version="1.1" xmlns="http://www.w3.org/2000/svg" viewBox="0 0 494.3596191406248 359.23175061092434" width="494.3596191406248" height="359.23175061092434" filter="invert(93%) hue-rotate(180deg)">
  <!-- svg-source:excalidraw -->
  
  <defs>
    <style class="style-fonts">
      @font-face {
        font-family: "Virgil";
        src: url("https://excalidraw.com/Virgil.woff2");
      }
      @font-face {
        font-family: "Cascadia";
        src: url("https://excalidraw.com/Cascadia.woff2");
      }
      @font-face {
        font-family: "Assistant";
        src: url("https://excalidraw.com/Assistant-Regular.woff2");
      }
    </style>
    <clipPath id="qnfNFW5Lb0Jpbix7DEfE9">
            <rect transform="translate(0 0) rotate(0 247.1798095703124 179.61587530546217)" width="494.3596191406249" height="359.23175061092445">
          </rect>
        </clipPath>
  </defs>
  <g clip-path="url(#qnfNFW5Lb0Jpbix7DEfE9)"><g stroke-linecap="round" transform="translate(13.577770140625034 14.493295339843826) rotate(0 235.5156250000001 166)"><path d="M0 0 C164.15 -1.37, 330.21 -2.46, 471.03 0 M0 0 C131.97 -0.63, 264.93 -0.08, 471.03 0 M471.03 0 C470.21 74.79, 470.03 148.67, 471.03 332 M471.03 0 C469.68 108.27, 469.31 216.91, 471.03 332 M471.03 332 C338.16 330.37, 206.3 330.12, 0 332 M471.03 332 C369.71 331.98, 268.24 332.36, 0 332 M0 332 C0.09 201.59, 2.06 67.89, 0 0 M0 332 C-2.29 242.41, -1.89 153.97, 0 0" stroke="#1e1e1e" stroke-width="2" fill="none"></path></g></g><g clip-path="url(#qnfNFW5Lb0Jpbix7DEfE9)"><g stroke-linecap="round"><g transform="translate(13.577770140625034 88.49329533984383) rotate(0 235.5156250000001 0)"><path d="M0 0 C186.54 -1.99, 372.57 -1.96, 471.03 0 M0 0 C148.09 1.81, 295.24 1.53, 471.03 0" stroke="#000" stroke-width="1" fill="none"></path></g></g><mask></mask></g><g clip-path="url(#qnfNFW5Lb0Jpbix7DEfE9)"><g stroke-linecap="round"><g transform="translate(13.577770140625034 335.4932953398438) rotate(0 235.5156250000001 0)"><path d="M0 0 C175.52 0.63, 351.51 0.35, 471.03 0 M0 0 C105.4 -1.06, 211.09 -1.17, 471.03 0" stroke="#000" stroke-width="1" fill="none"></path></g></g><mask></mask></g><g clip-path="url(#qnfNFW5Lb0Jpbix7DEfE9)"><g transform="translate(184.3590201406248 19.493295339843826) rotate(0 64.453125 12)"><text x="0" y="19.3125" font-family="Cascadia, Segoe UI Emoji" font-size="20px" fill="#1e1e1e" text-anchor="start" style="white-space: pre;" direction="ltr" dominant-baseline="alphabetic">«dataclass»</text></g></g><g clip-path="url(#qnfNFW5Lb0Jpbix7DEfE9)"><g transform="translate(189.9371451406248 52.493295339843826) rotate(0 46.875 12)"><text x="0" y="19.3125" font-family="Cascadia, Segoe UI Emoji" font-size="20px" fill="#1e1e1e" text-anchor="start" style="white-space: pre;" direction="ltr" dominant-baseline="alphabetic">Document</text></g></g><g clip-path="url(#qnfNFW5Lb0Jpbix7DEfE9)"><g transform="translate(21.077770140625034 97.49329533984383) rotate(0 41.015625 12)"><text x="0" y="19.3125" font-family="Cascadia, Segoe UI Emoji" font-size="20px" fill="#1e1e1e" text-anchor="start" style="white-space: pre;" direction="ltr" dominant-baseline="alphabetic">id: str</text></g></g><g clip-path="url(#qnfNFW5Lb0Jpbix7DEfE9)"><g transform="translate(21.077770140625034 130.49329533984383) rotate(0 128.9062500000001 12)"><text x="0" y="19.3125" font-family="Cascadia, Segoe UI Emoji" font-size="20px" fill="#1e1e1e" text-anchor="start" style="white-space: pre;" direction="ltr" dominant-baseline="alphabetic">content: Optional[str]</text></g></g><g clip-path="url(#qnfNFW5Lb0Jpbix7DEfE9)"><g transform="translate(21.077770140625034 163.49329533984383) rotate(0 216.7968750000001 12)"><text x="0" y="19.3125" font-family="Cascadia, Segoe UI Emoji" font-size="20px" fill="#1e1e1e" text-anchor="start" style="white-space: pre;" direction="ltr" dominant-baseline="alphabetic">dataframe: Optional[pandas.DataFrame]</text></g></g><g clip-path="url(#qnfNFW5Lb0Jpbix7DEfE9)"><g transform="translate(21.077770140625034 196.49329533984383) rotate(0 152.3437500000001 12)"><text x="0" y="19.3125" font-family="Cascadia, Segoe UI Emoji" font-size="20px" fill="#1e1e1e" text-anchor="start" style="white-space: pre;" direction="ltr" dominant-baseline="alphabetic">blob: Optional[ByteStream]</text></g></g><g clip-path="url(#qnfNFW5Lb0Jpbix7DEfE9)"><g transform="translate(21.077770140625034 229.49329533984383) rotate(0 117.18750000000011 12)"><text x="0" y="19.3125" font-family="Cascadia, Segoe UI Emoji" font-size="20px" fill="#1e1e1e" text-anchor="start" style="white-space: pre;" direction="ltr" dominant-baseline="alphabetic">meta: Dict[str, Any]</text></g></g><g clip-path="url(#qnfNFW5Lb0Jpbix7DEfE9)"><g transform="translate(21.077770140625034 262.4932953398438) rotate(0 128.9062500000001 12)"><text x="0" y="19.3125" font-family="Cascadia, Segoe UI Emoji" font-size="20px" fill="#1e1e1e" text-anchor="start" style="white-space: pre;" direction="ltr" dominant-baseline="alphabetic">score: Optional[float]</text></g></g><g clip-path="url(#qnfNFW5Lb0Jpbix7DEfE9)"><g transform="translate(21.077770140625034 295.4932953398438) rotate(0 187.5000000000001 12)"><text x="0" y="19.3125" font-family="Cascadia, Segoe UI Emoji" font-size="20px" fill="#1e1e1e" text-anchor="start" style="white-space: pre;" direction="ltr" dominant-baseline="alphabetic">embedding: Optional[List[float]]</text></g></g></svg>