<svg version="1.1" xmlns="http://www.w3.org/2000/svg" viewBox="0 0 892.1990574022152 317.95562744140625" width="892.1990574022152" height="317.95562744140625" filter="invert(93%) hue-rotate(180deg)">
  <!-- svg-source:excalidraw -->
  
  <defs>
    <style class="style-fonts">
      @font-face {
        font-family: "Virgil";
        src: url("https://excalidraw.com/Virgil.woff2");
      }
      @font-face {
        font-family: "Cascadia";
        src: url("https://excalidraw.com/Cascadia.woff2");
      }
      @font-face {
        font-family: "Assistant";
        src: url("https://excalidraw.com/Assistant-Regular.woff2");
      }
    </style>
    
  </defs>
  <g stroke-linecap="round" transform="translate(9.999999999999986 10) rotate(0 436.0995287011076 148.97781372070312)"><path d="M0 0 C178.54 3.14, 356.47 2.26, 872.2 0 M0 0 C311.98 -2.39, 624.75 -2.24, 872.2 0 M872.2 0 C872.1 64.03, 870.1 130.03, 872.2 297.96 M872.2 0 C870.64 73.41, 870.01 146.87, 872.2 297.96 M872.2 297.96 C543.8 301.02, 216.33 301.05, 0 297.96 M872.2 297.96 C650.88 295.44, 429.73 295.99, 0 297.96 M0 297.96 C-1.03 202.27, -1.41 107.47, 0 0 M0 297.96 C-0.32 206.62, -0.57 116.43, 0 0" stroke="#1e1e1e" stroke-width="2" fill="none"></path></g><g stroke-linecap="round"><g transform="translate(9.999999999999986 83.74152652395969) rotate(0 434.7421438111908 -0.245849609375)"><path d="M0 0 C188.67 -1.86, 378.48 -2.02, 869.48 -0.49 M0 0 C319.38 0.4, 637.69 -0.06, 869.48 -0.49" stroke="#000" stroke-width="1" fill="none"></path></g></g><mask></mask><g stroke-linecap="round"><g transform="translate(9.999999999999986 99.68564036697808) rotate(0 435.3568288697845 0.122955322265625)"><path d="M0 0 C290.14 2.12, 579.89 2.44, 870.71 0.25 M0 0 C248.6 -0.94, 497.96 -0.42, 870.71 0.25" stroke="#000" stroke-width="1" fill="none"></path></g></g><mask></mask><g transform="translate(380.2257489280956 14.982535575943075) rotate(0 58.38908878058493 11.95808538226379)"><text x="0" y="19.245043662080793" font-family="Cascadia, Segoe UI Emoji" font-size="19.930142303772993px" fill="#1e1e1e" text-anchor="start" style="white-space: pre;" direction="ltr" dominant-baseline="alphabetic">«protocol»</text></g><g transform="translate(350.12033475282595 47.8672703771681) rotate(0 75.90581541476041 11.95808538226379)"><text x="0" y="19.245043662080793" font-family="Cascadia, Segoe UI Emoji" font-size="19.930142303772993px" fill="#1e1e1e" text-anchor="start" style="white-space: pre;" direction="ltr" dominant-baseline="alphabetic">DocumentStore</text></g><g transform="translate(17.473803363914854 104.66817594292115) rotate(0 151.81163082952085 11.95808538226379)"><text x="0" y="19.245043662080793" font-family="Cascadia, Segoe UI Emoji" font-size="19.930142303772993px" fill="#1e1e1e" text-anchor="start" style="white-space: pre;" direction="ltr" dominant-baseline="alphabetic">to_dict() : Dict[str, Any]</text></g><g transform="translate(17.473803363914854 137.55291074414617) rotate(0 286.1065350248662 11.95808538226379)"><text x="0" y="19.245043662080793" font-family="Cascadia, Segoe UI Emoji" font-size="19.930142303772993px" fill="#1e1e1e" text-anchor="start" style="white-space: pre;" direction="ltr" dominant-baseline="alphabetic">from_dict(data: Dict[str, Any]) : "DocumentStore"</text></g><g transform="translate(17.473803363914854 170.4376455453721) rotate(0 134.29490419534537 11.95808538226379)"><text x="0" y="19.245043662080793" font-family="Cascadia, Segoe UI Emoji" font-size="19.930142303772993px" fill="#1e1e1e" text-anchor="start" style="white-space: pre;" direction="ltr" dominant-baseline="alphabetic">count_documents() : int</text></g><g transform="translate(17.473803363914854 203.32238034659713) rotate(0 397.0458037079776 11.95808538226379)"><text x="0" y="19.245043662080793" font-family="Cascadia, Segoe UI Emoji" font-size="19.930142303772993px" fill="#1e1e1e" text-anchor="start" style="white-space: pre;" direction="ltr" dominant-baseline="alphabetic">filter_documents(filters: Optional[Dict[str, Any]]) : List[Document]</text></g><g transform="translate(17.473803363914854 236.20711514782306) rotate(0 426.2403480982701 11.95808538226379)"><text x="0" y="19.2450436620808" font-family="Cascadia, Segoe UI Emoji" font-size="19.930142303772996px" fill="#1e1e1e" text-anchor="start" style="white-space: pre;" direction="ltr" dominant-baseline="alphabetic">write_documents(documents: List[Document], policy: DuplicatePolicy) : int</text></g><g transform="translate(17.473803363914854 269.0918499490481) rotate(0 274.4287172687492 11.95808538226379)"><text x="0" y="19.245043662080793" font-family="Cascadia, Segoe UI Emoji" font-size="19.930142303772993px" fill="#1e1e1e" text-anchor="start" style="white-space: pre;" direction="ltr" dominant-baseline="alphabetic">delete_documents(self, document_ids: List[str])</text></g></svg>