<svg xmlns="http://www.w3.org/2000/svg" width="541.9310302734375" height="458.381591796875" viewBox="-412.20196533203125 -431.6675720214844 541.9310302734375 458.381591796875"><title>Neo4j Graph Visualization</title><desc>Created using Neo4j (http://www.neo4j.com/)</desc><g class="layer relationships"><g class="relationship" transform="translate(-32.063374189545016 -71.84983386273751) rotate(283.7125920278008)"><path class="b-outline" fill="#A5ABB6" stroke="none" d="M 21.40063509461097,12.933012701892217 L 21.90063509461097,12.06698729810778 A 224.7102162886839 224.7102162886839 0 0 0 102.71216478838105,39.9474758736975 L 102.57179031421806,40.93757435718459 A 225.7102162886839 225.7102162886839 0 0 1 21.40063509461097,12.933012701892217 Z M 160.26362660018842,41.66903724225355 L 160.14839972304975,40.67569804198766 A 224.7102162886839 224.7102162886839 0 0 0 241.64082068403107,14.853027758322515 L 240.20717321728054,12.217756436223064 L 248.02872834672155,11.947062222921188 L 243.55235063969846,18.36672285445512 L 242.11870317294793,15.731451532355667 A 225.7102162886839 225.7102162886839 0 0 1 160.26362660018842,41.66903724225355"/><text text-anchor="middle" pointer-events="none" font-size="8px" fill="#000000" x="131.40057886567342" y="45.65434849833872" font-family="Helvetica Neue, Helvetica, Arial, sans-serif">RELATED_TO</text></g><g class="relationship" transform="translate(31.938042930704583 -334.1436633312972) rotate(463.7125920278008)"><path class="b-outline" fill="#A5ABB6" stroke="none" d="M 25 0.5 L 102.63138009877525 0.5 L 102.63138009877525 -0.5 L 25 -0.5 Z M 160.35794259877525 0.5 L 237.9893226975505 0.5 L 237.9893226975505 3.5 L 244.9893226975505 0 L 237.9893226975505 -3.5 L 237.9893226975505 -0.5 L 160.35794259877525 -0.5 Z"/><text text-anchor="middle" pointer-events="none" font-size="8px" fill="#000000" x="131.49466134877525" y="3" transform="rotate(180 131.49466134877525 0)" font-family="Helvetica Neue, Helvetica, Arial, sans-serif">RELATED_TO</text></g><g class="relationship" transform="translate(31.938042930704583 -334.1436633312972) rotate(534.1593716154489)"><path class="b-outline" fill="#A5ABB6" stroke="none" d="M 6.953439040707552 24.018736134675446 L 17.306200844808384 62.65576918623819 A 17.916697508022974 17.916697508022974 0 1 1 -17.306200844808384 62.65576918623819 L -8.765172356425198 30.780216918698923 L -4.901469051268926 31.815493099109005 L -6.4704761275630185 24.148145657226706 L -11.662949835292403 30.00375978339136 L -7.79924653013613 31.039035963801442 L -16.340275018519314 62.91458823134071 A 16.916697508022974 16.916697508022974 0 1 0 16.340275018519314 62.91458823134071 L 5.987513214418485 24.277555179777966 Z"/><text text-anchor="middle" pointer-events="none" font-size="8px" fill="#000000" x="0" y="94.20964923467838" transform="rotate(180 0 91.20964923467838)" font-family="Helvetica Neue, Helvetica, Arial, sans-serif">RELATED…</text></g><g class="relationship" transform="translate(-32.063374189545016 -71.84983386273751) rotate(337.05089495309375)"><path class="b-outline" fill="#A5ABB6" stroke="none" d="M 6.953439040707552 24.018736134675446 L 17.306200844808384 62.65576918623819 A 17.916697508022974 17.916697508022974 0 1 1 -17.306200844808384 62.65576918623819 L -8.765172356425198 30.780216918698923 L -4.901469051268926 31.815493099109005 L -6.4704761275630185 24.148145657226706 L -11.662949835292403 30.00375978339136 L -7.79924653013613 31.039035963801442 L -16.340275018519314 62.91458823134071 A 16.916697508022974 16.916697508022974 0 1 0 16.340275018519314 62.91458823134071 L 5.987513214418485 24.277555179777966 Z"/><text text-anchor="middle" pointer-events="none" font-size="8px" fill="#000000" x="0" y="94.20964923467838" font-family="Helvetica Neue, Helvetica, Arial, sans-serif">RELATED…</text></g><g class="relationship" transform="translate(31.938042930704583 -334.1436633312972) rotate(273.93598182162486)"><path class="b-outline" fill="#A5ABB6" stroke="none" d="M 6.953439040707552 24.018736134675446 L 17.306200844808384 62.65576918623819 A 17.916697508022974 17.916697508022974 0 1 1 -17.306200844808384 62.65576918623819 L -8.765172356425198 30.780216918698923 L -4.901469051268926 31.815493099109005 L -6.4704761275630185 24.148145657226706 L -11.662949835292403 30.00375978339136 L -7.79924653013613 31.039035963801442 L -16.340275018519314 62.91458823134071 A 16.916697508022974 16.916697508022974 0 1 0 16.340275018519314 62.91458823134071 L 5.987513214418485 24.277555179777966 Z"/><text text-anchor="middle" pointer-events="none" font-size="8px" fill="#000000" x="0" y="94.20964923467838" font-family="Helvetica Neue, Helvetica, Arial, sans-serif">CONTAINS</text></g><g class="relationship" transform="translate(31.938042930704583 -334.1436633312972) rotate(463.7125920278008)"><path class="b-outline" fill="#A5ABB6" stroke="none" d="M 21.40063509461097,12.933012701892217 L 21.90063509461097,12.06698729810778 A 224.7102162886839 224.7102162886839 0 0 0 108.14480457087708,40.65026923358096 L 108.0286062996132,41.643495271175254 A 225.7102162886839 225.7102162886839 0 0 1 21.40063509461097,12.933012701892217 Z M 154.79066714480655,42.2363817892616 L 154.69968799355897,41.24052899188729 A 224.7102162886839 224.7102162886839 0 0 0 241.64082068403107,14.853027758322515 L 240.20717321728054,12.217756436223064 L 248.02872834672155,11.947062222921188 L 243.55235063969846,18.36672285445512 L 242.11870317294793,15.731451532355667 A 225.7102162886839 225.7102162886839 0 0 1 154.79066714480655,42.2363817892616"/><text text-anchor="middle" pointer-events="none" font-size="8px" fill="#000000" x="131.40057886567342" y="45.65434849833872" transform="rotate(180 131.40057886567342 42.65434849833872)" font-family="Helvetica Neue, Helvetica, Arial, sans-serif">CONTAINS</text></g><g class="relationship" transform="translate(-314.2935353605154 -237.36176884128542) rotate(344.3827614092729)"><path class="b-outline" fill="#A5ABB6" stroke="none" d="M 24.018736134675446,-6.953439040707552 L 24.277555179777966,-5.987513214418485 A 598.5628072794739 598.5628072794739 0 0 1 152.8911764302034,-25.804718245788422 L 152.84722810490885,-26.803752051374545 A 599.5628072794739 599.5628072794739 0 0 0 24.018736134675446,-6.953439040707552 Z M 199.61989679660235,-27.035113274219157 L 199.58583383079642,-26.035693585419494 A 598.5628072794739 598.5628072794739 0 0 1 328.38920841919736,-7.49180291912956 L 327.6414563176081,-4.5864859321952824 L 335.29290673897555,-6.231267513243698 L 329.38621122131633,-11.365558901708596 L 328.6384591197271,-8.460241914774318 A 599.5628072794739 599.5628072794739 0 0 0 199.61989679660235,-27.035113274219157"/><text text-anchor="middle" pointer-events="none" font-size="8px" fill="#000000" x="176.23377868794125" y="-23.875717514169878" font-family="Helvetica Neue, Helvetica, Arial, sans-serif">CONTAINS</text></g><g class="relationship" transform="translate(31.938042930704583 -334.1436633312972) rotate(524.3827614092729)"><path class="b-outline" fill="#A5ABB6" stroke="none" d="M 24.018736134675446,-6.953439040707552 L 24.277555179777966,-5.987513214418485 A 598.5628072794739 598.5628072794739 0 0 1 152.8911764302034,-25.804718245788422 L 152.84722810490885,-26.803752051374545 A 599.5628072794739 599.5628072794739 0 0 0 24.018736134675446,-6.953439040707552 Z M 199.61989679660235,-27.035113274219157 L 199.58583383079642,-26.035693585419494 A 598.5628072794739 598.5628072794739 0 0 1 328.38920841919736,-7.49180291912956 L 327.6414563176081,-4.5864859321952824 L 335.29290673897555,-6.231267513243698 L 329.38621122131633,-11.365558901708596 L 328.6384591197271,-8.460241914774318 A 599.5628072794739 599.5628072794739 0 0 0 199.61989679660235,-27.035113274219157"/><text text-anchor="middle" pointer-events="none" font-size="8px" fill="#000000" x="176.23377868794125" y="-23.875717514169878" transform="rotate(180 176.23377868794125 -26.875717514169878)" font-family="Helvetica Neue, Helvetica, Arial, sans-serif">CONTAINS</text></g><g class="relationship" transform="translate(-314.2935353605154 -237.36176884128542) rotate(457.3859796438298)"><path class="b-outline" fill="#A5ABB6" stroke="none" d="M 6.953439040707552 24.018736134675446 L 17.306200844808384 62.65576918623819 A 17.916697508022974 17.916697508022974 0 1 1 -17.306200844808384 62.65576918623819 L -8.765172356425198 30.780216918698923 L -4.901469051268926 31.815493099109005 L -6.4704761275630185 24.148145657226706 L -11.662949835292403 30.00375978339136 L -7.79924653013613 31.039035963801442 L -16.340275018519314 62.91458823134071 A 16.916697508022974 16.916697508022974 0 1 0 16.340275018519314 62.91458823134071 L 5.987513214418485 24.277555179777966 Z"/><text text-anchor="middle" pointer-events="none" font-size="8px" fill="#000000" x="0" y="94.20964923467838" transform="rotate(180 0 91.20964923467838)" font-family="Helvetica Neue, Helvetica, Arial, sans-serif">CONTAINS</text></g><g class="relationship" transform="translate(-314.2935353605154 -237.36176884128542) rotate(390.38919787838665)"><path class="b-outline" fill="#A5ABB6" stroke="none" d="M 25 0.5 L 136.71795570073382 0.5 L 136.71795570073382 -0.5 L 25 -0.5 Z M 183.46404945073382 0.5 L 295.18200515146765 0.5 L 295.18200515146765 3.5 L 302.18200515146765 0 L 295.18200515146765 -3.5 L 295.18200515146765 -0.5 L 183.46404945073382 -0.5 Z"/><text text-anchor="middle" pointer-events="none" font-size="8px" fill="#000000" x="160.09100257573382" y="3" font-family="Helvetica Neue, Helvetica, Arial, sans-serif">CONTAINS</text></g></g><g class="layer nodes"><g class="node" aria-label="graph-node-5" transform="translate(-32.063374189545016,-71.84983386273751)"><circle class="b-outline" cx="0" cy="0" r="25" fill="#57C7E3" stroke="#23b3d7" stroke-width="2px"/><text class="caption" text-anchor="middle" pointer-events="none" x="0" y="5" font-size="10px" fill="#2A2C34" font-family="Helvetica Neue, Helvetica, Arial, sans-serif"> Clause</text></g><g class="node" aria-label="graph-node-3" transform="translate(31.938042930704583,-334.1436633312972)"><circle class="b-outline" cx="0" cy="0" r="25" fill="#ECB5C9" stroke="#da7298" stroke-width="2px"/><text class="caption" text-anchor="middle" pointer-events="none" x="0" y="5" font-size="10px" fill="#2A2C34" font-family="Helvetica Neue, Helvetica, Arial, sans-serif"> Section</text></g><g class="node" aria-label="graph-node-2" transform="translate(-314.2935353605154,-237.36176884128542)"><circle class="b-outline" cx="0" cy="0" r="25" fill="#569480" stroke="#447666" stroke-width="2px"/><text class="caption" text-anchor="middle" pointer-events="none" x="0" y="5" font-size="10px" fill="#FFFFFF" font-family="Helvetica Neue, Helvetica, Arial, sans-serif"> Part</text></g></g></svg>