<svg xmlns="http://www.w3.org/2000/svg" width="400.6471252441406" height="374.3176574707031" viewBox="-150.8712921142578 -446.92913818359375 400.6471252441406 374.3176574707031"><title>Neo4j Graph Visualization</title><desc>Created using Neo4j (http://www.neo4j.com/)</desc><g class="layer relationships"><g class="relationship" transform="translate(-121.87129541194294 -243.90027364594835) rotate(333.68171983160437)"><path class="b-outline" fill="#A5ABB6" stroke="none" d="M 24.018736134675446,-6.953439040707552 L 24.277555179777966,-5.987513214418485 A 235.27344891642488 235.27344891642488 0 0 1 46.921119599825296,-10.874210945959163 L 46.75854415774867,-11.860907062113256 A 236.27344891642488 236.27344891642488 0 0 0 24.018736134675446,-6.953439040707552 Z M 118.8673910099431,-12.589066154906362 L 118.72477411160699,-11.599288189750041 A 235.27344891642488 235.27344891642488 0 0 1 141.46240326276165,-7.170852241377382 L 140.74462232799345,-4.257985864475883 L 148.37872163132653,-5.981507789735127 L 142.41944450911927,-11.054674077246048 L 141.70166357435107,-8.141807700344549 A 236.27344891642488 236.27344891642488 0 0 0 118.8673910099431,-12.589066154906362"/><text text-anchor="middle" pointer-events="none" font-size="8px" fill="#000000" x="82.79007271944194" y="-11.492241508361616" font-family="Helvetica Neue, Helvetica, Arial, sans-serif">SPONSORED_BY</text></g><g class="relationship" transform="translate(32.88501062004656 -320.44704907748775) rotate(513.6817198316044)"><path class="b-outline" fill="#A5ABB6" stroke="none" d="M 24.018736134675446,-6.953439040707552 L 24.277555179777966,-5.987513214418485 A 235.27344891642488 235.27344891642488 0 0 1 57.90559994942764,-12.419075918997578 L 57.78971265002157,-13.412338288080576 A 236.27344891642488 236.27344891642488 0 0 0 24.018736134675446,-6.953439040707552 Z M 107.80714231989461,-13.917417037806104 L 107.71133664279714,-12.92201698142884 A 235.27344891642488 235.27344891642488 0 0 1 141.46240326276165,-7.170852241377382 L 140.74462232799345,-4.257985864475883 L 148.37872163132653,-5.981507789735127 L 142.41944450911927,-11.054674077246048 L 141.70166357435107,-8.141807700344549 A 236.27344891642488 236.27344891642488 0 0 0 107.80714231989461,-13.917417037806104"/><text text-anchor="middle" pointer-events="none" font-size="8px" fill="#000000" x="82.79007271944194" y="-11.492241508361616" transform="rotate(180 82.79007271944194 -14.492241508361616)" font-family="Helvetica Neue, Helvetica, Arial, sans-serif">VOTED_ON</text></g><g class="relationship" transform="translate(-121.87129541194294 -243.90027364594835) rotate(391.40827354269913)"><path class="b-outline" fill="#A5ABB6" stroke="none" d="M 25 0.5 L 104.45818383236997 0.5 L 104.45818383236997 -0.5 L 25 -0.5 Z M 161.57927758236997 0.5 L 241.03746141473994 0.5 L 241.03746141473994 3.5 L 248.03746141473994 0 L 241.03746141473994 -3.5 L 241.03746141473994 -0.5 L 161.57927758236997 -0.5 Z"/><text text-anchor="middle" pointer-events="none" font-size="8px" fill="#000000" x="133.01873070736997" y="3" font-family="Helvetica Neue, Helvetica, Arial, sans-serif">DEALS_WITH</text></g><g class="relationship" transform="translate(-121.87129541194294 -243.90027364594835) rotate(272.00371276405775)"><path class="b-outline" fill="#A5ABB6" stroke="none" d="M 25 0.5 L 49.95997585615504 0.5 L 49.95997585615504 -0.5 L 25 -0.5 Z M 115.38185085615504 0.5 L 140.34182671231008 0.5 L 140.34182671231008 3.5 L 147.34182671231008 0 L 140.34182671231008 -3.5 L 140.34182671231008 -0.5 L 115.38185085615504 -0.5 Z"/><text text-anchor="middle" pointer-events="none" font-size="8px" fill="#000000" x="82.67091335615504" y="3" font-family="Helvetica Neue, Helvetica, Arial, sans-serif">REFERRED_TO</text></g><g class="relationship" transform="translate(-121.87129541194294 -243.90027364594835) rotate(374.78274571053817)"><path class="b-outline" fill="#A5ABB6" stroke="none" d="M 25 0.5 L 99.42172212005883 0.5 L 99.42172212005883 -0.5 L 25 -0.5 Z M 186.76937837005883 0.5 L 261.19110049011766 0.5 L 261.19110049011766 3.5 L 268.19110049011766 0 L 261.19110049011766 -3.5 L 261.19110049011766 -0.5 L 186.76937837005883 -0.5 Z"/><text text-anchor="middle" pointer-events="none" font-size="8px" fill="#000000" x="143.09555024505883" y="3" font-family="Helvetica Neue, Helvetica, Arial, sans-serif">PROPOSED_DURING</text></g><g class="relationship" transform="translate(32.88501062004656 -320.44704907748775) rotate(382.18575992094725)"><path class="b-outline" fill="#A5ABB6" stroke="none" d="M 25 0.5 L 67.51849854735029 0.5 L 67.51849854735029 -0.5 L 25 -0.5 Z M 127.75287354735029 0.5 L 170.27137209470058 0.5 L 170.27137209470058 3.5 L 177.27137209470058 0 L 170.27137209470058 -3.5 L 170.27137209470058 -0.5 L 127.75287354735029 -0.5 Z"/><text text-anchor="middle" pointer-events="none" font-size="8px" fill="#000000" x="97.63568604735029" y="3" font-family="Helvetica Neue, Helvetica, Arial, sans-serif">REPRESENTS</text></g><g class="relationship" transform="translate(32.88501062004656 -320.44704907748775) rotate(332.05893515650314)"><path class="b-outline" fill="#A5ABB6" stroke="none" d="M 25 0.5 L 71.36416019896276 0.5 L 71.36416019896276 -0.5 L 25 -0.5 Z M 129.68056644896276 0.5 L 176.04472664792553 0.5 L 176.04472664792553 3.5 L 183.04472664792553 0 L 176.04472664792553 -3.5 L 176.04472664792553 -0.5 L 129.68056644896276 -0.5 Z"/><text text-anchor="middle" pointer-events="none" font-size="8px" fill="#000000" x="100.52236332396276" y="3" font-family="Helvetica Neue, Helvetica, Arial, sans-serif">ELECTED_TO</text></g><g class="relationship" transform="translate(32.88501062004656 -320.44704907748775) rotate(212.75626732097754)"><path class="b-outline" fill="#A5ABB6" stroke="none" d="M 25 0.5 L 57.544101092086066 0.5 L 57.544101092086066 -0.5 L 25 -0.5 Z M 112.30972609208607 0.5 L 144.85382718417213 0.5 L 144.85382718417213 3.5 L 151.85382718417213 0 L 144.85382718417213 -3.5 L 144.85382718417213 -0.5 L 112.30972609208607 -0.5 Z"/><text text-anchor="middle" pointer-events="none" font-size="8px" fill="#000000" x="84.92691359208607" y="3" transform="rotate(180 84.92691359208607 0)" font-family="Helvetica Neue, Helvetica, Arial, sans-serif">SERVES_ON</text></g><g class="relationship" transform="translate(32.88501062004656 -320.44704907748775) rotate(357.9192853814169)"><path class="b-outline" fill="#A5ABB6" stroke="none" d="M 25 0.5 L 56.16754615260787 0.5 L 56.16754615260787 -0.5 L 25 -0.5 Z M 124.84723365260787 0.5 L 156.01477980521574 0.5 L 156.01477980521574 3.5 L 163.01477980521574 0 L 156.01477980521574 -3.5 L 156.01477980521574 -0.5 L 124.84723365260787 -0.5 Z"/><text text-anchor="middle" pointer-events="none" font-size="8px" fill="#000000" x="90.50738990260787" y="3" font-family="Helvetica Neue, Helvetica, Arial, sans-serif">IS_MEMBER_OF</text></g></g><g class="layer nodes"><g class="node" aria-label="graph-node-16" transform="translate(161.61525903703597,-169.09121768844813)"><circle class="b-outline" cx="0" cy="0" r="25" fill="#F79767" stroke="#f36924" stroke-width="2px"/><text class="caption" text-anchor="middle" pointer-events="none" x="0" y="5" font-size="10px" fill="#FFFFFF" font-family="Helvetica Neue, Helvetica, Arial, sans-serif"> Congress</text></g><g class="node" aria-label="graph-node-11" transform="translate(220.77582686602264,-327.2733654798103)"><circle class="b-outline" cx="0" cy="0" r="25" fill="#569480" stroke="#447666" stroke-width="2px"/><text class="caption" text-anchor="middle" pointer-events="none" x="0" y="5" font-size="10px" fill="#FFFFFF" font-family="Helvetica Neue, Helvetica, Arial, sans-serif"> Party</text></g><g class="node" aria-label="graph-node-10" transform="translate(220.1811131330652,-244.0672222087024)"><circle class="b-outline" cx="0" cy="0" r="25" fill="#DA7194" stroke="#cc3c6c" stroke-width="2px"/><text class="caption" text-anchor="middle" pointer-events="none" x="0" y="5" font-size="10px" fill="#FFFFFF" font-family="Helvetica Neue, Helvetica, Arial, sans-serif"> State</text></g><g class="node" aria-label="graph-node-13" transform="translate(-121.87129541194294,-243.90027364594835)"><circle class="b-outline" cx="0" cy="0" r="25" fill="#FFC454" stroke="#d7a013" stroke-width="2px"/><text class="caption" text-anchor="middle" pointer-events="none" x="0" y="5" font-size="10px" fill="#2A2C34" font-family="Helvetica Neue, Helvetica, Arial, sans-serif"> Bill</text></g><g class="node" aria-label="graph-node-9" transform="translate(32.88501062004656,-320.44704907748775)"><circle class="b-outline" cx="0" cy="0" r="25" fill="#D9C8AE" stroke="#c0a378" stroke-width="2px"/><text class="caption" text-anchor="middle" pointer-events="none" x="0" y="5" font-size="10px" fill="#2A2C34" font-family="Helvetica Neue, Helvetica, Arial, sans-serif"> Legislator</text></g><g class="node" aria-label="graph-node-15" transform="translate(-115.84549147162926,-416.1367242637221)"><circle class="b-outline" cx="0" cy="0" r="25" fill="#F16667" stroke="#eb2728" stroke-width="2px"/><text class="caption" text-anchor="middle" pointer-events="none" x="0" y="5" font-size="10px" fill="#FFFFFF" font-family="Helvetica Neue, Helvetica, Arial, sans-serif"> Committ…</text></g><g class="node" aria-label="graph-node-12" transform="translate(216.67796972508603,-417.9291318897838)"><circle class="b-outline" cx="0" cy="0" r="25" fill="#8DCC93" stroke="#5db665" stroke-width="2px"/><text class="caption" text-anchor="middle" pointer-events="none" x="0" y="5" font-size="10px" fill="#2A2C34" font-family="Helvetica Neue, Helvetica, Arial, sans-serif"> Body</text></g><g class="node" aria-label="graph-node-14" transform="translate(111.15950331191902,-101.61147513417326)"><circle class="b-outline" cx="0" cy="0" r="25" fill="#C990C0" stroke="#b261a5" stroke-width="2px"/><text class="caption" text-anchor="middle" pointer-events="none" x="0" y="5" font-size="10px" fill="#FFFFFF" font-family="Helvetica Neue, Helvetica, Arial, sans-serif"> Subject</text></g></g></svg>