<svg xmlns="http://www.w3.org/2000/svg" width="925" height="201" viewBox="0 0 925 201"><defs><style type="text/css">@font-face { font-family: "Nunito Sans"; font-style: normal; font-weight: 400; font-display: swap; src: '' format("woff2"); unicode-range: U+0-FF, U+131, U+152-153, U+2BB-2BC, U+2C6, U+2DA, U+2DC, U+2000-206F, U+2074, U+20AC, U+2122, U+2191, U+2193, U+2212, U+2215, U+FEFF, U+FFFD; }
</style></defs><g transform="translate(370.20230596824416 -4.417616570805507) scale(1)"><g class="relationship"><g transform="translate(-280.6723529653145 79.41761657080555) rotate(0)" stroke-width="3" stroke="#006FD6"><path d="M 80 0 L 285.06872445390127 0"></path><polygon points="-18.079611541307905,0 -20.088457268119896,6.696152422706632 0,0 -20.088457268119896,-6.696152422706632" fill="#006FD6" transform="translate(303.1483359952092 0) rotate(0)" stroke="none"></polygon></g><g transform="translate(-98.13799073836384 79.41761657080555) rotate(0) translate(0 -58)"><g transform="translate(0 0)"><g transform="translate(-57.447471618652344 0)" fill="#ffffff" stroke="#ffffff" stroke-width="0"><rect x="0" y="0" width="114.89494323730469" height="31" rx="5" ry="5" stroke="none"></rect><text xml:space="preserve" x="5" y="20.79200029373169" stroke="none" text-anchor="left" font-family="Nunito Sans" font-size="21" font-weight="normal" fill="#000000">:ACTED_IN</text></g></g><g transform="translate(0 31)"><g transform="translate(-74.35994720458984 0)" fill="white"><rect x="0" y="0" width="148.7198944091797" height="24" rx="0" ry="0" stroke="none"></rect><g font-family="Nunito Sans" font-size="20" font-weight="normal" fill="#000000" text-anchor="end"><text xml:space="preserve" x="53.939971923828125" y="17.039999961853027" stroke="none">roles:</text><text xml:space="preserve" x="59.07997131347656" y="17.039999961853027" stroke="none" text-anchor="start">[&#39;Forrest&#39;]</text></g></g></g></g></g><g class="relationship"><g transform="translate(439.6740135326622 79.4176165708055) rotate(180)" stroke-width="3" stroke="#006FD6"><path d="M 80 0 L 239.11841896145953 0"></path><polygon points="-18.079611541307905,0 -20.088457268119896,6.696152422706632 0,0 -20.088457268119896,-6.696152422706632" fill="#006FD6" transform="translate(257.19803050276744 0) rotate(0)" stroke="none"></polygon></g><g transform="translate(280.1148040519324 79.41761657080552) rotate(360) translate(0 -34)"><g transform="translate(0 0)"><g transform="translate(-58.182464599609375 0)" fill="#ffffff" stroke="#ffffff" stroke-width="0"><rect x="0" y="0" width="116.36492919921875" height="31" rx="5" ry="5" stroke="none"></rect><text xml:space="preserve" x="5" y="20.79200029373169" stroke="none" text-anchor="left" font-family="Nunito Sans" font-size="21" font-weight="normal" fill="#000000">:DIRECTED</text></g></g></g></g><g class="node"><g fill="#3557B4" stroke="#000000" stroke-width="0"><circle cx="-280.6723529653145" cy="79.41761657080555" r="75" stroke="none"></circle></g><g transform="translate(-280.6723529653145 79.41761657080555)"><g transform="scale(1) translate(0 -35)"><g transform="translate(0 0)"><g transform="translate(-47.509971618652344 0)"><g fill="#ffffff" stroke="#C4C8CD" stroke-width="3"><rect x="0" y="0" width="95.01994323730469" height="33" rx="16.5" ry="16.5"></rect><text xml:space="preserve" x="16.5" y="21.539999961853027" stroke="none" font-family="Nunito Sans" font-size="20" font-weight="normal" fill="#000000">Person</text></g></g><g transform="translate(-40.95997619628906 40)"><g fill="#ffffff" stroke="#C4C8CD" stroke-width="3"><rect x="0" y="0" width="81.91995239257812" height="33" rx="16.5" ry="16.5"></rect><text xml:space="preserve" x="16.5" y="21.539999961853027" stroke="none" font-family="Nunito Sans" font-size="20" font-weight="normal" fill="#000000">Actor</text></g></g></g></g><g transform="translate(4.7148901767173095e-15 77)"><g transform="translate(0 0)"><g transform="translate(-89.52995300292969 0)" fill="white"><rect x="0" y="0" width="179.05990600585938" height="48" rx="0" ry="0" stroke="none"></rect><g font-family="Nunito Sans" font-size="20" font-weight="normal" fill="#000000" text-anchor="end"><text xml:space="preserve" x="59.41996765136719" y="17.039999961853027" stroke="none">name:</text><text xml:space="preserve" x="64.55996704101562" y="17.039999961853027" stroke="none" text-anchor="start">&#39;Tom Hanks&#39;</text><text xml:space="preserve" x="59.41996765136719" y="41.03999996185303" stroke="none" text-anchor="end">born:</text><text xml:space="preserve" x="64.55996704101562" y="41.03999996185303" stroke="none" text-anchor="start">1956</text></g></g></g></g></g></g><g class="node"><g fill="#7AD1FF" stroke="#000000" stroke-width="0"><circle cx="102.47598302989472" cy="79.41761657080555" r="75" stroke="none"></circle></g><g transform="translate(102.47598302989472 79.41761657080555)"><g transform="scale(1) translate(0 -16.5)"><g transform="translate(0 0)"><g transform="translate(-43.329986572265625 0)"><g fill="#ffffff" stroke="#C4C8CD" stroke-width="3"><rect x="0" y="0" width="86.65997314453125" height="33" rx="16.5" ry="16.5"></rect><text xml:space="preserve" x="16.5" y="21.539999961853027" stroke="none" font-family="Nunito Sans" font-size="20" font-weight="normal" fill="#000000">Movie</text></g></g></g></g><g transform="translate(4.7148901767173095e-15 77)"><g transform="translate(0 0)"><g transform="translate(-114.09992980957031 0)" fill="white"><rect x="0" y="0" width="228.19985961914062" height="48" rx="0" ry="0" stroke="none"></rect><g font-family="Nunito Sans" font-size="20" font-weight="normal" fill="#000000" text-anchor="end"><text xml:space="preserve" x="86.35995483398438" y="17.039999961853027" stroke="none">title:</text><text xml:space="preserve" x="91.49995422363281" y="17.039999961853027" stroke="none" text-anchor="start">&#39;Forrest Gump&#39;</text><text xml:space="preserve" x="86.35995483398438" y="41.03999996185303" stroke="none" text-anchor="end">released:</text><text xml:space="preserve" x="91.49995422363281" y="41.03999996185303" stroke="none" text-anchor="start">1994</text></g></g></g></g></g></g><g class="node"><g fill="#00BA88" stroke="#000000" stroke-width="0"><circle cx="439.6740135326622" cy="79.4176165708055" r="75" stroke="none"></circle></g><g transform="translate(439.6740135326622 79.4176165708055)"><g transform="scale(1) translate(0 -16.5)"><g transform="translate(0 0)"><g transform="translate(-47.509971618652344 0)"><g fill="#ffffff" stroke="#C4C8CD" stroke-width="3"><rect x="0" y="0" width="95.01994323730469" height="33" rx="16.5" ry="16.5"></rect><text xml:space="preserve" x="16.5" y="21.539999961853027" stroke="none" font-family="Nunito Sans" font-size="20" font-weight="normal" fill="#000000">Person</text></g></g></g></g><g transform="translate(4.7148901767173095e-15 77)"><g transform="translate(0 0)"><g transform="translate(-114.16995239257812 0)" fill="white"><rect x="0" y="0" width="228.33990478515625" height="48" rx="0" ry="0" stroke="none"></rect><g font-family="Nunito Sans" font-size="20" font-weight="normal" fill="#000000" text-anchor="end"><text xml:space="preserve" x="59.41996765136719" y="17.039999961853027" stroke="none">name:</text><text xml:space="preserve" x="64.55996704101562" y="17.039999961853027" stroke="none" text-anchor="start">&#39;Robert Zemeckis&#39;</text><text xml:space="preserve" x="59.41996765136719" y="41.03999996185303" stroke="none" text-anchor="end">born:</text><text xml:space="preserve" x="64.55996704101562" y="41.03999996185303" stroke="none" text-anchor="start">1951</text></g></g></g></g></g></g></g></svg>