<svg xmlns="http://www.w3.org/2000/svg" width="126.00000762939453" height="300.3493347167969" viewBox="-63 -177.19769287109375 126.00000762939453 300.3493347167969"><title>Neo4j Graph Visualization</title><desc>Created using Neo4j (http://www.neo4j.com/)</desc><g class="layer relationships"><g class="relationship" transform="translate(5.72892826523844e-15 -81.19402756626904) rotate(450)"><path class="b-outline" fill="#A5ABB6" stroke="none" d="M 12.066987298107785,21.900635094610966 L 12.933012701892222,21.400635094610966 A 65.04241034003896 65.04241034003896 0 0 0 44.568606280906266,49.05235953184402 L 44.18896496734272,49.97749329138138 A 66.04241034003896 66.04241034003896 0 0 1 12.066987298107785,21.900635094610966 Z M 89.14084536076076,51.85884967975733 L 88.83983495125771,50.90522882565922 A 65.04241034003896 65.04241034003896 0 0 0 122.67534352365747,25.99364507238743 L 120.21169169104513,24.281798219521832 L 127.08026148577926,20.530431938436237 L 125.96021263380726,28.276107542874897 L 123.49656080119492,26.5642606900093 A 66.04241034003896 66.04241034003896 0 0 1 89.14084536076076,51.85884967975733"/><text text-anchor="middle" pointer-events="none" font-size="8px" fill="#000000" x="66.52066659827337" y="57.364512007252586" font-family="Helvetica Neue, Helvetica, Arial, sans-serif">ACTED_IN</text></g><g class="relationship" transform="translate(5.72892826523844e-15 -81.19402756626904) rotate(450)"><path class="b-outline" fill="#A5ABB6" stroke="none" d="M 21.40063509461097,12.933012701892217 L 21.90063509461097,12.06698729810778 A 94.721514570253 94.721514570253 0 0 0 43.147291908114475,21.0863895855054 L 42.8715984651823,22.047635196951404 A 95.721514570253 95.721514570253 0 0 1 21.40063509461097,12.933012701892217 Z M 91.25451376802411,23.196422231153804 L 91.02475224067025,22.223175273517654 A 94.721514570253 94.721514570253 0 0 0 112.67553222720032,14.222314735577163 L 111.30052866931496,11.555975444376102 L 119.1261578329837,11.458362982378143 L 114.50887030438082,17.77743379051191 L 113.13386674649546,15.11109449931085 A 95.721514570253 95.721514570253 0 0 1 91.25451376802411,23.196422231153804"/><text text-anchor="middle" pointer-events="none" font-size="8px" fill="#000000" x="67.00112304765044" y="28.23043422384073" font-family="Helvetica Neue, Helvetica, Arial, sans-serif">REVIEWED</text></g><g class="relationship" transform="translate(5.72892826523844e-15 -81.19402756626904) rotate(450)"><path class="b-outline" fill="#A5ABB6" stroke="none" d="M 25 0.5 L 41.28220096316299 0.5 L 41.28220096316299 -0.5 L 25 -0.5 Z M 93.06345096316299 0.5 L 109.34565192632598 0.5 L 109.34565192632598 3.5 L 116.34565192632598 0 L 109.34565192632598 -3.5 L 109.34565192632598 -0.5 L 93.06345096316299 -0.5 Z"/><text text-anchor="middle" pointer-events="none" font-size="8px" fill="#000000" x="67.17282596316299" y="3" font-family="Helvetica Neue, Helvetica, Arial, sans-serif">PRODUCED</text></g><g class="relationship" transform="translate(5.72892826523844e-15 -81.19402756626904) rotate(450)"><path class="b-outline" fill="#A5ABB6" stroke="none" d="M 21.40063509461097,-12.933012701892217 L 21.90063509461097,-12.06698729810778 A 94.721514570253 94.721514570253 0 0 1 49.36918158185425,-22.644956670067998 L 49.15917426843519,-23.622656485098403 A 95.721514570253 95.721514570253 0 0 0 21.40063509461097,-12.933012701892217 Z M 84.89927198133412,-24.471256876304977 L 84.73590348814005,-23.484691756593406 A 94.721514570253 94.721514570253 0 0 1 112.67553222720032,-14.222314735577163 L 111.30052866931496,-11.555975444376102 L 119.1261578329837,-11.458362982378143 L 114.50887030438082,-17.77743379051191 L 113.13386674649546,-15.11109449931085 A 95.721514570253 95.721514570253 0 0 0 84.89927198133412,-24.471256876304977"/><text text-anchor="middle" pointer-events="none" font-size="8px" fill="#000000" x="67.00112304765041" y="-22.230434223840717" font-family="Helvetica Neue, Helvetica, Arial, sans-serif">WROTE</text></g><g class="relationship" transform="translate(5.72892826523844e-15 -81.19402756626904) rotate(180)"><path class="b-outline" fill="#A5ABB6" stroke="none" d="M 6.953439040707552 24.018736134675446 L 17.306200844808384 62.65576918623819 A 17.916697508022974 17.916697508022974 0 1 1 -17.306200844808384 62.65576918623819 L -8.765172356425198 30.780216918698923 L -4.901469051268926 31.815493099109005 L -6.4704761275630185 24.148145657226706 L -11.662949835292403 30.00375978339136 L -7.79924653013613 31.039035963801442 L -16.340275018519314 62.91458823134071 A 16.916697508022974 16.916697508022974 0 1 0 16.340275018519314 62.91458823134071 L 5.987513214418485 24.277555179777966 Z"/><text text-anchor="middle" pointer-events="none" font-size="8px" fill="#000000" x="0" y="94.20964923467838" transform="rotate(180 0 91.20964923467838)" font-family="Helvetica Neue, Helvetica, Arial, sans-serif">FOLLOWS</text></g><g class="relationship" transform="translate(5.72892826523844e-15 -81.19402756626904) rotate(450)"><path class="b-outline" fill="#A5ABB6" stroke="none" d="M 12.066987298107785,-21.900635094610966 L 12.933012701892222,-21.400635094610966 A 65.04241034003896 65.04241034003896 0 0 1 43.96022409639363,-48.79909302728187 L 43.57122915984269,-49.720332919675656 A 66.04241034003896 66.04241034003896 0 0 0 12.066987298107785,-21.900635094610966 Z M 89.77790890193604,-51.654206015920096 L 89.46725221305138,-50.703683832248814 A 65.04241034003896 65.04241034003896 0 0 1 122.67534352365747,-25.99364507238743 L 120.21169169104513,-24.281798219521832 L 127.08026148577926,-20.530431938436237 L 125.96021263380726,-28.276107542874897 L 123.49656080119492,-26.5642606900093 A 66.04241034003896 66.04241034003896 0 0 0 89.77790890193604,-51.654206015920096"/><text text-anchor="middle" pointer-events="none" font-size="8px" fill="#000000" x="66.52066659827337" y="-51.364512007252586" font-family="Helvetica Neue, Helvetica, Arial, sans-serif">DIRECTED</text></g></g><g class="layer nodes"><g class="node selected" aria-label="graph-node-5" transform="translate(-3.826903568793338e-15,60.151624360056935)"><circle class="b-outline" cx="0" cy="0" r="25" fill="#C990C0" stroke="#b261a5" stroke-width="2px"/><text class="caption" text-anchor="middle" pointer-events="none" x="0" y="5" font-size="10px" fill="#FFFFFF" font-family="Helvetica Neue, Helvetica, Arial, sans-serif"> Movie</text></g><g class="node" aria-label="graph-node-6" transform="translate(5.72892826523844e-15,-81.19402756626904)"><circle class="b-outline" cx="0" cy="0" r="25" fill="#F79767" stroke="#f36924" stroke-width="2px"/><text class="caption" text-anchor="middle" pointer-events="none" x="0" y="5" font-size="10px" fill="#FFFFFF" font-family="Helvetica Neue, Helvetica, Arial, sans-serif"> Person</text></g></g></svg>