<svg version="1.1" xmlns="http://www.w3.org/2000/svg" viewBox="0 0 947.7348077238521 435.56466838772985" width="947.7348077238521" height="435.56466838772985" filter="invert(93%) hue-rotate(180deg)">
  <!-- svg-source:excalidraw -->
  
  <defs>
    <style class="style-fonts">
      @font-face {
        font-family: "Virgil";
        src: url("https://excalidraw.com/Virgil.woff2");
      }
      @font-face {
        font-family: "Cascadia";
        src: url("https://excalidraw.com/Cascadia.woff2");
      }
      @font-face {
        font-family: "Assistant";
        src: url("https://excalidraw.com/Assistant-Regular.woff2");
      }
    </style>
    <clipPath id="gnBsbslzVTVa7IpiHMS73">
            <rect transform="translate(0 0) rotate(0 473.86740386192605 217.78233419386493)" width="947.7348077238521" height="435.5646683877298">
          </rect>
        </clipPath>
  </defs>
  <g clip-path="url(#gnBsbslzVTVa7IpiHMS73)"><g transform="translate(74.53521252121521 17.835883214703244) rotate(0 80.11797332763672 22.5)"><text x="80.11797332763672" y="31.536" font-family="Virgil, Segoe UI Emoji" font-size="36px" fill="#343a40" text-anchor="middle" style="white-space: pre;" direction="ltr" dominant-baseline="alphabetic">Haystack</text></g></g><g clip-path="url(#gnBsbslzVTVa7IpiHMS73)"><g stroke-linecap="round"><g transform="translate(189.86950710198852 111.8415544205941) rotate(0 37.407306942065816 53.38266661770922)"><path d="M1.59 -2.84 C13.57 7.56, 22.79 17.19, 57.64 46.1 M-0.34 -0.88 C12.71 8.76, 26.31 20.49, 54.87 42.98 M53.92 46.61 C60.65 59.75, 64.34 67.68, 74.7 109.72 M56.4 43.01 C63.4 65.6, 69.59 90.08, 73.2 105.1" stroke="#343a40" stroke-width="2" fill="none"></path></g><g transform="translate(189.86950710198852 111.8415544205941) rotate(0 37.407306942065816 53.38266661770922)"><path d="M60.06 82.93 C63.26 87.6, 64.97 92.16, 74.32 106.2 M59.09 83.91 C62.66 88.38, 66.35 93.98, 72.93 104.64" stroke="#343a40" stroke-width="2" fill="none"></path></g><g transform="translate(189.86950710198852 111.8415544205941) rotate(0 37.407306942065816 53.38266661770922)"><path d="M76.66 78.82 C76.35 84.24, 74.57 89.67, 74.32 106.2 M75.69 79.8 C75.47 85.17, 75.4 91.7, 72.93 104.64" stroke="#343a40" stroke-width="2" fill="none"></path></g></g><mask></mask></g><g clip-path="url(#gnBsbslzVTVa7IpiHMS73)"><g stroke-linecap="round"><g transform="translate(132.09129587228125 115.62870174448972) rotate(0 -28.58900042626442 53.23853082369885)"><path d="M-3.78 0.86 C-17.43 14.98, -41.1 28.3, -53.55 40.22 M-1.92 -1.26 C-21.63 12.88, -38.17 30.24, -49.43 35.43 M-53.34 34.79 C-49.78 52.21, -51.51 66.97, -59.38 108.28 M-50.53 38.09 C-51.09 60.51, -56.39 82.97, -59 104.61" stroke="#343a40" stroke-width="2" fill="none"></path></g><g transform="translate(132.09129587228125 115.62870174448972) rotate(0 -28.58900042626442 53.23853082369885)"><path d="M-65.96 80.56 C-61.18 90.05, -61.31 98.99, -60.98 106.05 M-65.03 79.5 C-62.92 88.96, -59.33 99.95, -58.92 103.66" stroke="#343a40" stroke-width="2" fill="none"></path></g><g transform="translate(132.09129587228125 115.62870174448972) rotate(0 -28.58900042626442 53.23853082369885)"><path d="M-49.04 83.03 C-50.91 91.5, -57.67 99.48, -60.98 106.05 M-48.1 81.97 C-52.69 90.42, -55.83 100.43, -58.92 103.66" stroke="#343a40" stroke-width="2" fill="none"></path></g></g><mask></mask></g><g clip-path="url(#gnBsbslzVTVa7IpiHMS73)"><g stroke-linecap="round"><g transform="translate(76.11073209038904 283.1081478748729) rotate(0 33.42926026266173 44.849975597683965)"><path d="M-0.13 1.02 C6.11 15.7, 14.73 32.86, 22.81 49.95 M-1.58 0.1 C5.94 13.88, 10.75 30.54, 19.83 47.59 M19.55 50.32 C37.08 60.78, 45.59 76.09, 65.55 87.24 M21.91 51.06 C31.09 58.14, 40.37 66.25, 68.46 89.31" stroke="#343a40" stroke-width="2" fill="none"></path></g><g transform="translate(76.11073209038904 283.1081478748729) rotate(0 33.42926026266173 44.849975597683965)"><path d="M44.83 81.46 C52.48 83.19, 61.4 86.16, 69.61 89.71 M44.11 81 C52.36 82.85, 58.88 86.16, 68.12 88.53" stroke="#343a40" stroke-width="2" fill="none"></path></g><g transform="translate(76.11073209038904 283.1081478748729) rotate(0 33.42926026266173 44.849975597683965)"><path d="M55.72 68.27 C59.63 74.56, 64.77 82.09, 69.61 89.71 M55 67.81 C59.76 73.82, 62.91 81.21, 68.12 88.53" stroke="#343a40" stroke-width="2" fill="none"></path></g></g><mask></mask></g><g clip-path="url(#gnBsbslzVTVa7IpiHMS73)"><g stroke-linecap="round"><g transform="translate(254.62316044893294 290.02256319690036) rotate(0 -30.17778398990285 42.28015807393024)"><path d="M1.76 -2.21 C-1.82 11.98, -11.22 24.05, -15.09 45.46 M1.41 0.64 C-5.9 11.16, -10.29 25.98, -19.36 42.91 M-17.97 42.35 C-35.91 59.83, -46.23 76.59, -60.87 87.98 M-16.49 42.23 C-26.29 53.43, -38.27 60.3, -60.14 85.39" stroke="#343a40" stroke-width="2" fill="none"></path></g><g transform="translate(254.62316044893294 290.02256319690036) rotate(0 -30.17778398990285 42.28015807393024)"><path d="M-49.37 61.33 C-51.54 68.89, -56.53 75.42, -58.82 86.96 M-49.54 62.75 C-53.56 68.46, -56.05 76.39, -60.95 85.69" stroke="#343a40" stroke-width="2" fill="none"></path></g><g transform="translate(254.62316044893294 290.02256319690036) rotate(0 -30.17778398990285 42.28015807393024)"><path d="M-36.92 73.06 C-42.57 77.45, -50.95 80.77, -58.82 86.96 M-37.1 74.48 C-44.76 76.92, -50.84 81.46, -60.95 85.69" stroke="#343a40" stroke-width="2" fill="none"></path></g></g><mask></mask></g><g clip-path="url(#gnBsbslzVTVa7IpiHMS73)"><g stroke-linecap="round" transform="translate(40.71707118875787 226.22255314718882) rotate(90.04936106265025 25.50000000594804 25.500000005948095)"><path d="M13.1 3.44 C13.1 3.44, 13.1 3.44, 13.1 3.44 M13.1 3.44 C13.1 3.44, 13.1 3.44, 13.1 3.44 M2.34 21.91 C9.72 14.04, 13.88 9.1, 19.4 2.29 M2.34 21.91 C8.15 15.75, 13.88 9.47, 19.4 2.29 M2.74 27.55 C8.02 18.83, 15.48 11.36, 26.35 0.38 M2.74 27.55 C10.27 18.39, 18.12 9.56, 26.35 0.38 M3.13 33.2 C10.29 27.58, 15.52 20.34, 31.34 0.74 M3.13 33.2 C9.61 26.59, 16.28 19.43, 31.34 0.74 M4.84 37.33 C13.81 25.56, 23.35 17.93, 34.36 3.37 M4.84 37.33 C11.49 30.52, 18.61 22.03, 34.36 3.37 M7.2 40.71 C17.48 28.68, 26.28 16.68, 38.04 5.24 M7.2 40.71 C14.57 31.89, 22.32 21.67, 38.04 5.24 M9.56 44.09 C17.83 32.47, 29.39 22.9, 41.71 7.11 M9.56 44.09 C19.09 32.6, 29.66 22.05, 41.71 7.11 M12.58 46.71 C19.41 35.52, 29.34 25.23, 45.39 8.98 M12.58 46.71 C22.09 36.76, 30.79 26.53, 45.39 8.98 M16.91 47.83 C25.23 35.53, 36.96 26.61, 46.44 13.87 M16.91 47.83 C23.38 39.77, 29.66 32.93, 46.44 13.87 M21.9 48.19 C26.27 40.2, 33.08 34.13, 48.14 18 M21.9 48.19 C27.56 41.38, 34.76 33.53, 48.14 18 M26.23 49.3 C36.34 39.34, 41.97 28.84, 49.85 22.13 M26.23 49.3 C30.11 44.17, 36.34 38.22, 49.85 22.13 M30.56 50.42 C36.16 47.09, 40.6 40.96, 50.24 27.78 M30.56 50.42 C38.51 40.95, 46.45 32.63, 50.24 27.78 M38.83 47 C41.24 44.23, 46.3 37.71, 48.01 36.44 M38.83 47 C41.13 44.22, 42.61 42.41, 48.01 36.44" stroke="#099268" stroke-width="0.5" fill="none"></path><path d="M28.77 -0.39 C33.88 -0.04, 40.78 4.32, 44.42 8.61 C48.06 12.89, 50.31 19.72, 50.61 25.3 C50.92 30.87, 49.53 37.93, 46.25 42.07 C42.96 46.2, 36.57 49.3, 30.91 50.11 C25.25 50.93, 17.01 49.43, 12.3 46.93 C7.58 44.43, 4.42 39.99, 2.61 35.1 C0.8 30.2, -0.27 22.81, 1.44 17.57 C3.16 12.34, 7.35 6.23, 12.91 3.66 C18.46 1.09, 30.75 1.99, 34.76 2.16 C38.78 2.33, 37.22 4.48, 37 4.68 M27.32 -0.12 C32.53 -0.35, 39.59 2.48, 43.38 6.54 C47.17 10.6, 49.43 18.48, 50.05 24.22 C50.68 29.97, 50.08 36.78, 47.14 41 C44.19 45.22, 37.96 48.25, 32.38 49.54 C26.8 50.83, 18.63 50.94, 13.66 48.74 C8.68 46.53, 4.85 41.37, 2.55 36.31 C0.24 31.25, -1.51 23.9, -0.18 18.38 C1.16 12.86, 6.01 6.04, 10.57 3.19 C15.13 0.33, 24.33 1.86, 27.21 1.25 C30.08 0.64, 27.75 -0.86, 27.84 -0.47" stroke="#099268" stroke-width="1" fill="none"></path></g></g><g clip-path="url(#gnBsbslzVTVa7IpiHMS73)"><g stroke-linecap="round" transform="translate(239.21570530180605 227.89356291326612) rotate(90.04936106265025 25.50000000594804 25.500000005948095)"><path d="M4.09 12.83 C4.09 12.83, 4.09 12.83, 4.09 12.83 M4.09 12.83 C4.09 12.83, 4.09 12.83, 4.09 12.83 M2.52 20.74 C6.44 16.6, 11.08 11.13, 17.6 3.38 M2.52 20.74 C7.36 15.89, 11.67 9.5, 17.6 3.38 M0.94 28.64 C7.45 19.87, 16.33 12.07, 23.25 2.98 M0.94 28.64 C7.63 20.81, 14.15 13.11, 23.25 2.98 M2.65 32.78 C9.36 26.14, 14.76 18.19, 28.89 2.59 M2.65 32.78 C9.19 26.42, 13.99 20.51, 28.89 2.59 M4.36 36.91 C11.85 30.53, 15.85 20.64, 34.53 2.19 M4.36 36.91 C11.28 28.85, 16.91 22.65, 34.53 2.19 M6.72 40.29 C12.8 31.05, 20.26 23.85, 37.55 4.82 M6.72 40.29 C13.59 30.76, 21.89 23.56, 37.55 4.82 M9.08 43.67 C20.39 32.9, 29.02 20.32, 40.57 7.44 M9.08 43.67 C19.66 32.67, 27.89 21.46, 40.57 7.44 M12.1 46.29 C18.13 37.32, 24.44 33.13, 43.59 10.07 M12.1 46.29 C19.89 37.75, 26.66 28.53, 43.59 10.07 M16.43 47.41 C24.04 40.43, 27.46 32.31, 46.61 12.69 M16.43 47.41 C27.19 34.97, 36.85 22.57, 46.61 12.69 M20.11 49.28 C26 41.38, 30.54 34.39, 48.32 16.83 M20.11 49.28 C30.55 37.38, 40.38 25.76, 48.32 16.83 M24.44 50.39 C29.85 41.23, 35.73 36.31, 50.02 20.96 M24.44 50.39 C31.52 43.06, 36.77 35.01, 50.02 20.96 M31.39 48.49 C36.48 44.12, 41.11 37.05, 51.07 25.85 M31.39 48.49 C38.78 40.42, 45.91 32.17, 51.07 25.85 M38.35 46.58 C43.04 40.1, 45.69 38.27, 52.12 30.74 M38.35 46.58 C42.29 41.88, 48.18 36.26, 52.12 30.74" stroke="#099268" stroke-width="0.5" fill="none"></path><path d="M33.46 1.28 C38.52 2.81, 43.91 7.85, 46.93 12.64 C49.95 17.43, 52.26 24.73, 51.56 30 C50.86 35.28, 47.14 40.95, 42.73 44.29 C38.32 47.64, 30.49 49.83, 25.1 50.07 C19.71 50.31, 14.49 48.95, 10.4 45.73 C6.31 42.51, 1.67 36.15, 0.57 30.73 C-0.53 25.3, 1.03 17.89, 3.79 13.18 C6.54 8.47, 11.61 3.98, 17.12 2.45 C22.62 0.92, 32.75 3.48, 36.81 3.99 C40.87 4.5, 41.49 5.33, 41.48 5.49 M37.13 1.75 C41.86 4.05, 46.07 11.16, 48.35 16.53 C50.62 21.91, 52.22 29.02, 50.77 34.02 C49.33 39.02, 44.59 43.68, 39.66 46.53 C34.72 49.38, 26.65 51.7, 21.17 51.1 C15.69 50.51, 10.51 47.1, 6.78 42.95 C3.05 38.8, -0.87 31.93, -1.2 26.19 C-1.54 20.45, 1.34 12.61, 4.76 8.51 C8.19 4.41, 13.92 2.68, 19.34 1.59 C24.76 0.5, 34.3 1.5, 37.27 1.98 C40.25 2.45, 37.26 4.11, 37.17 4.43" stroke="#099268" stroke-width="1" fill="none"></path></g></g><g clip-path="url(#gnBsbslzVTVa7IpiHMS73)"><g stroke-linecap="round" transform="translate(139.98835674679907 369.073405453079) rotate(90.04936106265025 25.500000005948042 25.500000005948095)"><path d="M2.88 13.1 C2.88 13.1, 2.88 13.1, 2.88 13.1 M2.88 13.1 C2.88 13.1, 2.88 13.1, 2.88 13.1 M1.96 20.26 C6.13 15.75, 9.24 12.29, 17.05 2.9 M1.96 20.26 C6.83 13.89, 12.25 7.77, 17.05 2.9 M1.7 26.65 C7.88 20.52, 12.84 13.63, 22.69 2.5 M1.7 26.65 C7.13 20.02, 13.65 13.06, 22.69 2.5 M2.75 31.54 C10.55 22.12, 19.88 10.81, 27.68 2.86 M2.75 31.54 C10.78 22.94, 18.22 12.6, 27.68 2.86 M4.46 35.67 C8.82 27.1, 14.77 21.39, 33.32 2.47 M4.46 35.67 C13.81 25.14, 22.23 14.51, 33.32 2.47 M6.82 39.05 C14.27 29.93, 22.05 19.38, 37 4.34 M6.82 39.05 C16.69 28.82, 26.56 16.65, 37 4.34 M9.18 42.43 C17.17 32.19, 25.63 23.07, 40.67 6.21 M9.18 42.43 C16.22 33.2, 23.36 23.66, 40.67 6.21 M10.89 46.57 C17.61 39.67, 24.12 32.04, 43.69 8.83 M10.89 46.57 C20.57 34.48, 29.29 23.39, 43.69 8.83 M15.22 47.68 C19.81 39.23, 29.21 32.74, 46.71 11.46 M15.22 47.68 C21.45 39.05, 28.54 30.67, 46.71 11.46 M18.9 49.55 C23.99 40.56, 32.73 33.59, 49.73 14.08 M18.9 49.55 C29.4 37.09, 38.68 27.13, 49.73 14.08 M23.23 50.67 C28.89 43.65, 37.05 32.23, 50.12 19.72 M23.23 50.67 C31.55 39.52, 40.61 29.96, 50.12 19.72 M26.9 52.54 C37.34 40.33, 45.55 32.32, 50.52 25.37 M26.9 52.54 C33.06 45.64, 37.64 39.22, 50.52 25.37 M34.51 49.88 C40.08 43.66, 49 34.9, 51.57 30.25 M34.51 49.88 C39.53 45.14, 44.96 39.71, 51.57 30.25" stroke="#099268" stroke-width="0.5" fill="none"></path><path d="M16.55 1.83 C21.52 -0.11, 29.98 0.42, 35.24 2.2 C40.5 3.97, 45.7 8, 48.1 12.5 C50.51 16.99, 50.56 23.66, 49.65 29.16 C48.74 34.66, 46.68 41.81, 42.64 45.5 C38.6 49.18, 30.93 51.38, 25.42 51.27 C19.92 51.17, 13.65 48.36, 9.61 44.89 C5.58 41.43, 2.37 35.73, 1.19 30.49 C0.02 25.25, -0.48 18.49, 2.56 13.46 C5.61 8.44, 16.31 2.51, 19.48 0.33 C22.66 -1.85, 21.4 0.01, 21.61 0.39 M22.23 0.45 C27.65 -0.07, 36.32 1.98, 41.11 4.91 C45.9 7.84, 49.79 12.75, 50.97 18.02 C52.14 23.29, 50.51 31.35, 48.16 36.53 C45.8 41.72, 41.87 46.85, 36.82 49.14 C31.77 51.42, 23.32 51.9, 17.83 50.24 C12.34 48.58, 7.03 43.46, 3.89 39.17 C0.74 34.88, -1.55 29.97, -1.04 24.51 C-0.53 19.06, 2.95 10.36, 6.93 6.44 C10.91 2.52, 20.09 2.19, 22.84 0.98 C25.59 -0.24, 23.36 -1.14, 23.42 -0.85" stroke="#099268" stroke-width="1" fill="none"></path></g></g><g clip-path="url(#gnBsbslzVTVa7IpiHMS73)"><g stroke-linecap="round" transform="translate(132.34669495458087 75.80143739874507) rotate(90.04936106265025 25.500000005948042 25.500000005948095)"><path d="M8.67 6.21 C8.67 6.21, 8.67 6.21, 8.67 6.21 M8.67 6.21 C8.67 6.21, 8.67 6.21, 8.67 6.21 M-0.78 23.17 C4.8 17.16, 10.79 11.05, 16.28 3.55 M-0.78 23.17 C5.56 15.47, 10.94 8.84, 16.28 3.55 M0.93 27.31 C7.36 19.42, 13.23 12.16, 23.89 0.89 M0.93 27.31 C7.97 19.43, 16.3 10.61, 23.89 0.89 M1.98 32.2 C10.22 21.94, 22.13 11.76, 27.57 2.76 M1.98 32.2 C9.64 22.36, 18.08 12.9, 27.57 2.76 M3.69 36.33 C11.87 25.31, 24.11 15.48, 31.9 3.88 M3.69 36.33 C8.84 29.64, 15.09 22.21, 31.9 3.88 M5.39 40.46 C12.02 30.47, 21.16 21.23, 36.23 4.99 M5.39 40.46 C12.27 32.1, 18.45 25.47, 36.23 4.99 M8.41 43.09 C19.45 30.41, 29.24 19.95, 41.87 4.6 M8.41 43.09 C17.08 31.28, 26.81 20.98, 41.87 4.6 M12.09 44.96 C17.21 39.26, 24.84 31.71, 43.58 8.73 M12.09 44.96 C20.31 33.99, 29.51 24.61, 43.58 8.73 M15.11 47.58 C25.71 37.27, 32.4 26.76, 45.94 12.11 M15.11 47.58 C22.51 37.82, 30.57 29.2, 45.94 12.11 M18.78 49.45 C26.46 40.85, 32.64 35.62, 47.65 16.24 M18.78 49.45 C25.25 42.44, 32.39 33.05, 47.65 16.24 M23.77 49.81 C28.89 41.15, 36.56 37.04, 50.01 19.62 M23.77 49.81 C31.36 40.95, 41.35 31.44, 50.01 19.62 M29.41 49.42 C36.76 42.4, 41.01 35.61, 49.75 26.02 M29.41 49.42 C34.64 42.45, 40.98 37.3, 49.75 26.02 M35.05 49.02 C39.41 45.61, 41.08 39.77, 49.49 32.42 M35.05 49.02 C41.44 43.33, 46.58 36.04, 49.49 32.42" stroke="#099268" stroke-width="0.5" fill="none"></path><path d="M25.29 0.62 C30.59 -0.05, 37.46 1.82, 41.49 4.89 C45.52 7.97, 48.22 13.63, 49.47 19.09 C50.72 24.55, 51.34 32.62, 48.98 37.66 C46.62 42.71, 40.4 47.33, 35.31 49.35 C30.22 51.37, 23.51 51.35, 18.43 49.77 C13.35 48.2, 8 44.36, 4.81 39.89 C1.62 35.43, -1.36 28.61, -0.71 22.99 C-0.07 17.38, 4.1 10.09, 8.69 6.19 C13.28 2.29, 23.33 0.59, 26.84 -0.43 C30.35 -1.46, 29.82 -0.39, 29.73 0.04 M15.39 2.98 C20.2 0.23, 27.46 -1.31, 32.5 0.01 C37.53 1.32, 42.44 6.23, 45.59 10.87 C48.73 15.5, 51.84 22.43, 51.35 27.82 C50.86 33.22, 46.66 39.59, 42.66 43.25 C38.67 46.91, 32.82 49.03, 27.4 49.78 C21.98 50.53, 14.63 50.81, 10.15 47.76 C5.68 44.7, 1.94 36.72, 0.57 31.44 C-0.81 26.15, -0.43 21.09, 1.89 16.04 C4.22 10.99, 12.45 3.28, 14.53 1.13 C16.61 -1.02, 14.1 2.51, 14.38 3.15" stroke="#099268" stroke-width="1" fill="none"></path></g></g><g clip-path="url(#gnBsbslzVTVa7IpiHMS73)"><g transform="translate(699.2641005207267 17.835883386578416) rotate(0 48.833984375 22.5)"><text x="48.833984375" y="31.536" font-family="Virgil, Segoe UI Emoji" font-size="36px" fill="#343a40" text-anchor="middle" style="white-space: pre;" direction="ltr" dominant-baseline="alphabetic">Neo4j</text></g></g><g clip-path="url(#gnBsbslzVTVa7IpiHMS73)"><g transform="translate(369.35257881048085 262.3445769272814) rotate(0 64.27191544675199 9.402063059639204)"><text x="64.27191544675199" y="15.131445236606755" font-family="Cascadia, Segoe UI Emoji" font-size="15.670105099398581px" fill="#1e1e1e" text-anchor="middle" style="white-space: pre;" direction="ltr" dominant-baseline="alphabetic">neo4j-haystack</text></g></g><g clip-path="url(#gnBsbslzVTVa7IpiHMS73)"><g stroke-linecap="round" transform="translate(312.0620123177134 155.20088592139496) rotate(0 33.46478981035199 33.73686127222447)"><path d="M66.93 33.74 C66.93 35.5, 66.79 37.28, 66.52 39.01 C66.24 40.75, 65.83 42.49, 65.29 44.16 C64.75 45.84, 64.07 47.49, 63.28 49.05 C62.49 50.62, 61.56 52.14, 60.54 53.57 C59.51 54.99, 58.36 56.35, 57.13 57.59 C55.89 58.84, 54.55 60, 53.13 61.03 C51.72 62.06, 50.21 63, 48.66 63.8 C47.1 64.6, 45.47 65.28, 43.81 65.82 C42.15 66.37, 40.42 66.78, 38.7 67.06 C36.98 67.33, 35.21 67.47, 33.46 67.47 C31.72 67.47, 29.95 67.33, 28.23 67.06 C26.51 66.78, 24.78 66.37, 23.12 65.82 C21.46 65.28, 19.83 64.6, 18.27 63.8 C16.72 63, 15.21 62.06, 13.79 61.03 C12.38 60, 11.04 58.84, 9.8 57.59 C8.57 56.35, 7.42 54.99, 6.39 53.57 C5.37 52.14, 4.44 50.62, 3.65 49.05 C2.86 47.49, 2.18 45.84, 1.64 44.16 C1.1 42.49, 0.68 40.75, 0.41 39.01 C0.14 37.28, 0 35.5, 0 33.74 C0 31.98, 0.14 30.2, 0.41 28.46 C0.68 26.72, 1.1 24.98, 1.64 23.31 C2.18 21.64, 2.86 19.99, 3.65 18.42 C4.44 16.85, 5.37 15.33, 6.39 13.91 C7.42 12.48, 8.57 11.13, 9.8 9.88 C11.04 8.64, 12.38 7.48, 13.79 6.44 C15.21 5.41, 16.72 4.48, 18.27 3.68 C19.83 2.88, 21.46 2.19, 23.12 1.65 C24.78 1.11, 26.51 0.69, 28.23 0.42 C29.95 0.14, 31.72 0, 33.46 0 C35.21 0, 36.98 0.14, 38.7 0.42 C40.42 0.69, 42.15 1.11, 43.81 1.65 C45.47 2.19, 47.1 2.88, 48.66 3.68 C50.21 4.48, 51.72 5.41, 53.13 6.44 C54.55 7.48, 55.89 8.64, 57.13 9.88 C58.36 11.13, 59.51 12.48, 60.54 13.91 C61.56 15.33, 62.49 16.85, 63.28 18.42 C64.07 19.99, 64.75 21.64, 65.29 23.31 C65.83 24.98, 66.24 26.72, 66.52 28.46 C66.79 30.2, 66.86 32.86, 66.93 33.74 C67 34.62, 67 32.86, 66.93 33.74" stroke="#343a40" stroke-width="2" fill="none"></path></g></g><g clip-path="url(#gnBsbslzVTVa7IpiHMS73)"><g stroke-linecap="round" transform="translate(489.31928175337924 156.81598632627583) rotate(0 33.46478981035199 33.73686127222447)"><path d="M66.93 33.74 C66.93 35.5, 66.79 37.28, 66.52 39.01 C66.24 40.75, 65.83 42.49, 65.29 44.16 C64.75 45.84, 64.07 47.49, 63.28 49.05 C62.49 50.62, 61.56 52.14, 60.54 53.57 C59.51 54.99, 58.36 56.35, 57.13 57.59 C55.89 58.84, 54.55 60, 53.13 61.03 C51.72 62.06, 50.21 63, 48.66 63.8 C47.1 64.6, 45.47 65.28, 43.81 65.82 C42.15 66.37, 40.42 66.78, 38.7 67.06 C36.98 67.33, 35.21 67.47, 33.46 67.47 C31.72 67.47, 29.95 67.33, 28.23 67.06 C26.51 66.78, 24.78 66.37, 23.12 65.82 C21.46 65.28, 19.83 64.6, 18.27 63.8 C16.72 63, 15.21 62.06, 13.79 61.03 C12.38 60, 11.04 58.84, 9.8 57.59 C8.57 56.35, 7.42 54.99, 6.39 53.57 C5.37 52.14, 4.44 50.62, 3.65 49.05 C2.86 47.49, 2.18 45.84, 1.64 44.16 C1.1 42.49, 0.68 40.75, 0.41 39.01 C0.14 37.28, 0 35.5, 0 33.74 C0 31.98, 0.14 30.2, 0.41 28.46 C0.68 26.72, 1.1 24.98, 1.64 23.31 C2.18 21.64, 2.86 19.99, 3.65 18.42 C4.44 16.85, 5.37 15.33, 6.39 13.91 C7.42 12.48, 8.57 11.13, 9.8 9.88 C11.04 8.64, 12.38 7.48, 13.79 6.44 C15.21 5.41, 16.72 4.48, 18.27 3.68 C19.83 2.88, 21.46 2.19, 23.12 1.65 C24.78 1.11, 26.51 0.69, 28.23 0.42 C29.95 0.14, 31.72 0, 33.46 0 C35.21 0, 36.98 0.14, 38.7 0.42 C40.42 0.69, 42.15 1.11, 43.81 1.65 C45.47 2.19, 47.1 2.88, 48.66 3.68 C50.21 4.48, 51.72 5.41, 53.13 6.44 C54.55 7.48, 55.89 8.64, 57.13 9.88 C58.36 11.13, 59.51 12.48, 60.54 13.91 C61.56 15.33, 62.49 16.85, 63.28 18.42 C64.07 19.99, 64.75 21.64, 65.29 23.31 C65.83 24.98, 66.24 26.72, 66.52 28.46 C66.79 30.2, 66.86 32.86, 66.93 33.74 C67 34.62, 67 32.86, 66.93 33.74" stroke="#343a40" stroke-width="2" fill="none"></path></g></g><g clip-path="url(#gnBsbslzVTVa7IpiHMS73)"><g stroke-linecap="round"><g transform="translate(363.4839380824785 202.57242298401343) rotate(342.20177241114186 -10.51119125726818 1.432795677346121)"><path d="M0 0 C-0.89 0.86, -3.4 4.05, -5.32 5.14 C-7.23 6.23, -9.25 6.84, -11.51 6.53 C-13.77 6.22, -17.29 4.97, -18.87 3.27 C-20.46 1.57, -20.66 -2.51, -21.02 -3.67 M0 0 C-0.89 0.86, -3.4 4.05, -5.32 5.14 C-7.23 6.23, -9.25 6.84, -11.51 6.53 C-13.77 6.22, -17.29 4.97, -18.87 3.27 C-20.46 1.57, -20.66 -2.51, -21.02 -3.67" stroke="#343a40" stroke-width="2" fill="none"></path></g></g><mask></mask></g><g clip-path="url(#gnBsbslzVTVa7IpiHMS73)"><g stroke-linecap="round"><g transform="translate(529.9545501739453 203.91295315306502) rotate(0 -10.828337496214488 -0.5525915494910123)"><path d="M0 0 C-1.24 0.42, -4.81 2.44, -7.46 2.55 C-10.11 2.66, -13.53 1.69, -15.9 0.65 C-18.26 -0.38, -20.7 -2.93, -21.66 -3.65 M0 0 C-1.24 0.42, -4.81 2.44, -7.46 2.55 C-10.11 2.66, -13.53 1.69, -15.9 0.65 C-18.26 -0.38, -20.7 -2.93, -21.66 -3.65" stroke="#343a40" stroke-width="2" fill="none"></path></g></g><mask></mask></g><g clip-path="url(#gnBsbslzVTVa7IpiHMS73)"><g stroke-linecap="round"><g transform="translate(507.60126284051813 200.5265181919242) rotate(0 10.99060783500326 7.288825439020684)"><path d="M0 0 C-0.13 1.15, -1.43 4.77, -0.77 6.89 C-0.11 9.02, 1.81 11.47, 3.96 12.75 C6.12 14.04, 9.56 15.02, 12.18 14.58 C14.8 14.13, 17.94 11.91, 19.7 10.07 C21.46 8.24, 22.24 4.67, 22.75 3.58 M0 0 C-0.13 1.15, -1.43 4.77, -0.77 6.89 C-0.11 9.02, 1.81 11.47, 3.96 12.75 C6.12 14.04, 9.56 15.02, 12.18 14.58 C14.8 14.13, 17.94 11.91, 19.7 10.07 C21.46 8.24, 22.24 4.67, 22.75 3.58" stroke="#343a40" stroke-width="2" fill="none"></path></g></g><mask></mask></g><g clip-path="url(#gnBsbslzVTVa7IpiHMS73)"><g transform="translate(533.5599316066396 195.94676974462345) rotate(0 0.00004197646526904464 0.00004197646524062293)" stroke="none"><path fill="#343a40" d="M 1.57,-1.57 Q 1.57,-1.57 1.77,-1.27 1.98,-0.98 2.09,-0.64 2.20,-0.29 2.19,0.05 2.18,0.41 2.05,0.75 1.93,1.09 1.70,1.37 1.48,1.65 1.18,1.84 0.87,2.04 0.52,2.12 0.18,2.21 -0.17,2.18 -0.53,2.15 -0.86,2.01 -1.19,1.87 -1.46,1.63 -1.73,1.39 -1.90,1.07 -2.08,0.76 -2.15,0.41 -2.21,0.05 -2.17,-0.29 -2.12,-0.65 -1.96,-0.97 -1.80,-1.29 -1.54,-1.54 -1.29,-1.80 -0.97,-1.96 -0.65,-2.12 -0.29,-2.17 0.06,-2.21 0.41,-2.15 0.76,-2.08 1.07,-1.90 1.39,-1.73 1.63,-1.46 1.87,-1.19 2.01,-0.86 2.15,-0.53 2.18,-0.17 2.21,0.18 2.12,0.52 2.03,0.87 1.84,1.18 1.65,1.48 1.37,1.70 1.09,1.93 0.75,2.05 0.41,2.18 0.05,2.19 -0.30,2.20 -0.64,2.09 -0.98,1.98 -1.27,1.77 -1.57,1.56 -1.57,1.57 -1.57,1.57 -1.73,1.35 -1.90,1.14 -2.01,0.90 -2.12,0.66 -2.16,0.39 -2.21,0.13 -2.20,-0.13 -2.18,-0.40 -2.10,-0.65 -2.02,-0.91 -1.88,-1.14 -1.74,-1.36 -1.55,-1.55 -1.36,-1.74 -1.14,-1.88 -0.91,-2.02 -0.65,-2.10 -0.40,-2.18 -0.13,-2.20 0.13,-2.21 0.39,-2.16 0.66,-2.12 0.90,-2.01 1.14,-1.90 1.35,-1.73 1.57,-1.57 1.57,-1.57 L 1.57,-1.57 Z"></path></g></g><g clip-path="url(#gnBsbslzVTVa7IpiHMS73)"><g transform="translate(507.9596140772273 192.11190436572338) rotate(0 0.00004197646526904464 0.00004197646524062293)" stroke="none"><path fill="#343a40" d="M 1.57,-1.57 Q 1.57,-1.57 1.77,-1.27 1.98,-0.98 2.09,-0.64 2.20,-0.29 2.19,0.05 2.18,0.41 2.05,0.75 1.93,1.09 1.70,1.37 1.48,1.65 1.18,1.84 0.87,2.04 0.52,2.12 0.18,2.21 -0.17,2.18 -0.53,2.15 -0.86,2.01 -1.19,1.87 -1.46,1.63 -1.73,1.39 -1.90,1.07 -2.08,0.76 -2.15,0.41 -2.21,0.05 -2.17,-0.29 -2.12,-0.65 -1.96,-0.97 -1.80,-1.29 -1.54,-1.54 -1.29,-1.80 -0.97,-1.96 -0.65,-2.12 -0.29,-2.17 0.06,-2.21 0.41,-2.15 0.76,-2.08 1.07,-1.90 1.39,-1.73 1.63,-1.46 1.87,-1.19 2.01,-0.86 2.15,-0.53 2.18,-0.17 2.21,0.18 2.12,0.52 2.03,0.87 1.84,1.18 1.65,1.48 1.37,1.70 1.09,1.93 0.75,2.05 0.41,2.18 0.05,2.19 -0.30,2.20 -0.64,2.09 -0.98,1.98 -1.27,1.77 -1.57,1.56 -1.57,1.57 -1.57,1.57 -1.73,1.35 -1.90,1.14 -2.01,0.90 -2.12,0.66 -2.16,0.39 -2.21,0.13 -2.20,-0.13 -2.18,-0.40 -2.10,-0.65 -2.02,-0.91 -1.88,-1.14 -1.74,-1.36 -1.55,-1.55 -1.36,-1.74 -1.14,-1.88 -0.91,-2.02 -0.65,-2.10 -0.40,-2.18 -0.13,-2.20 0.13,-2.21 0.39,-2.16 0.66,-2.12 0.90,-2.01 1.14,-1.90 1.35,-1.73 1.57,-1.57 1.57,-1.57 L 1.57,-1.57 Z"></path></g></g><g clip-path="url(#gnBsbslzVTVa7IpiHMS73)"><g transform="translate(337.1526372008256 193.87386953981286) rotate(0 0.000041976465254833784 0.00004197646524062293)" stroke="none"><path fill="#343a40" d="M 1.57,-1.57 Q 1.57,-1.57 1.77,-1.27 1.98,-0.98 2.09,-0.64 2.20,-0.29 2.19,0.05 2.18,0.41 2.05,0.75 1.93,1.09 1.70,1.37 1.48,1.65 1.18,1.84 0.87,2.04 0.52,2.12 0.18,2.21 -0.17,2.18 -0.53,2.15 -0.86,2.01 -1.19,1.87 -1.46,1.63 -1.73,1.39 -1.90,1.07 -2.08,0.76 -2.15,0.41 -2.21,0.05 -2.17,-0.29 -2.12,-0.65 -1.96,-0.97 -1.80,-1.29 -1.54,-1.54 -1.29,-1.80 -0.97,-1.96 -0.65,-2.12 -0.29,-2.17 0.06,-2.21 0.41,-2.15 0.76,-2.08 1.07,-1.90 1.39,-1.73 1.63,-1.46 1.87,-1.19 2.01,-0.86 2.15,-0.53 2.18,-0.17 2.21,0.18 2.12,0.52 2.03,0.87 1.84,1.18 1.65,1.48 1.37,1.70 1.09,1.93 0.75,2.05 0.41,2.18 0.05,2.19 -0.30,2.20 -0.64,2.09 -0.98,1.98 -1.27,1.77 -1.57,1.56 -1.57,1.57 -1.57,1.57 -1.73,1.35 -1.90,1.14 -2.01,0.90 -2.12,0.66 -2.16,0.39 -2.21,0.13 -2.20,-0.13 -2.18,-0.40 -2.10,-0.65 -2.02,-0.91 -1.88,-1.14 -1.74,-1.36 -1.55,-1.55 -1.36,-1.74 -1.14,-1.88 -0.91,-2.02 -0.65,-2.10 -0.40,-2.18 -0.13,-2.20 0.13,-2.21 0.39,-2.16 0.66,-2.12 0.90,-2.01 1.14,-1.90 1.35,-1.73 1.57,-1.57 1.57,-1.57 L 1.57,-1.57 Z"></path></g></g><g clip-path="url(#gnBsbslzVTVa7IpiHMS73)"><g transform="translate(363.9966948531234 192.3191943862048) rotate(0 0.000041976465254833784 0.00004197646524062293)" stroke="none"><path fill="#343a40" d="M 1.57,-1.57 Q 1.57,-1.57 1.77,-1.27 1.98,-0.98 2.09,-0.64 2.20,-0.29 2.19,0.05 2.18,0.41 2.05,0.75 1.93,1.09 1.70,1.37 1.48,1.65 1.18,1.84 0.87,2.04 0.52,2.12 0.18,2.21 -0.17,2.18 -0.53,2.15 -0.86,2.01 -1.19,1.87 -1.46,1.63 -1.73,1.39 -1.90,1.07 -2.08,0.76 -2.15,0.41 -2.21,0.05 -2.17,-0.29 -2.12,-0.65 -1.96,-0.97 -1.80,-1.29 -1.54,-1.54 -1.29,-1.80 -0.97,-1.96 -0.65,-2.12 -0.29,-2.17 0.06,-2.21 0.41,-2.15 0.76,-2.08 1.07,-1.90 1.39,-1.73 1.63,-1.46 1.87,-1.19 2.01,-0.86 2.15,-0.53 2.18,-0.17 2.21,0.18 2.12,0.52 2.03,0.87 1.84,1.18 1.65,1.48 1.37,1.70 1.09,1.93 0.75,2.05 0.41,2.18 0.05,2.19 -0.30,2.20 -0.64,2.09 -0.98,1.98 -1.27,1.77 -1.57,1.56 -1.57,1.57 -1.57,1.57 -1.73,1.35 -1.90,1.14 -2.01,0.90 -2.12,0.66 -2.16,0.39 -2.21,0.13 -2.20,-0.13 -2.18,-0.40 -2.10,-0.65 -2.02,-0.91 -1.88,-1.14 -1.74,-1.36 -1.55,-1.55 -1.36,-1.74 -1.14,-1.88 -0.91,-2.02 -0.65,-2.10 -0.40,-2.18 -0.13,-2.20 0.13,-2.21 0.39,-2.16 0.66,-2.12 0.90,-2.01 1.14,-1.90 1.35,-1.73 1.57,-1.57 1.57,-1.57 L 1.57,-1.57 Z"></path></g></g><g clip-path="url(#gnBsbslzVTVa7IpiHMS73)"><g stroke-linecap="round"><g transform="translate(331.8494711108477 335.0551356105643) rotate(24.702430227772684 4.103865876993481 -0.6123531961625304)"><path d="M0 0 C1.14 -0.43, 5.34 -2.55, 6.83 -2.57 C8.31 -2.6, 9.06 -0.83, 8.9 -0.18 C8.73 0.48, 7.44 1.16, 5.85 1.35 C4.25 1.54, 0.4 1.02, -0.69 0.95 M0 0 C1.14 -0.43, 5.34 -2.55, 6.83 -2.57 C8.31 -2.6, 9.06 -0.83, 8.9 -0.18 C8.73 0.48, 7.44 1.16, 5.85 1.35 C4.25 1.54, 0.4 1.02, -0.69 0.95" stroke="#343a40" stroke-width="2" fill="none"></path></g></g><mask></mask></g><g clip-path="url(#gnBsbslzVTVa7IpiHMS73)"><g stroke-linecap="round"><g transform="translate(361.7642127338293 335.7600347923685) rotate(0 3.659261487787873 -0.545059965245855)"><path d="M0 0 C1.04 -0.42, 4.83 -2.49, 6.21 -2.51 C7.59 -2.53, 8.45 -0.76, 8.28 -0.11 C8.12 0.55, 6.77 1.26, 5.23 1.42 C3.69 1.57, 0.07 0.93, -0.97 0.83 M0 0 C1.04 -0.42, 4.83 -2.49, 6.21 -2.51 C7.59 -2.53, 8.45 -0.76, 8.28 -0.11 C8.12 0.55, 6.77 1.26, 5.23 1.42 C3.69 1.57, 0.07 0.93, -0.97 0.83" stroke="#343a40" stroke-width="2" fill="none"></path></g></g><mask></mask></g><g clip-path="url(#gnBsbslzVTVa7IpiHMS73)"><g stroke-linecap="round"><g transform="translate(537.8636070305174 338.75034214232664) rotate(344.74488129694157 -3.9108233255281846 -0.5215282144438333)"><path d="M0 0 C-1.07 -0.43, -4.99 -2.53, -6.4 -2.56 C-7.81 -2.59, -8.64 -0.81, -8.47 -0.16 C-8.31 0.49, -6.94 1.09, -5.42 1.37 C-3.9 1.65, -0.36 1.49, 0.65 1.52 M0 0 C-1.07 -0.43, -4.99 -2.53, -6.4 -2.56 C-7.81 -2.59, -8.64 -0.81, -8.47 -0.16 C-8.31 0.49, -6.94 1.09, -5.42 1.37 C-3.9 1.65, -0.36 1.49, 0.65 1.52" stroke="#343a40" stroke-width="2" fill="none"></path></g></g><mask></mask></g><g clip-path="url(#gnBsbslzVTVa7IpiHMS73)"><g stroke-linecap="round"><g transform="translate(508.16828915109755 338.8711272545811) rotate(344.74488129694157 -3.838084971011881 -0.545059965245855)"><path d="M0 0 C-1.04 -0.42, -4.83 -2.49, -6.21 -2.51 C-7.59 -2.53, -8.45 -0.76, -8.28 -0.11 C-8.12 0.55, -6.71 1.28, -5.23 1.42 C-3.75 1.55, -0.36 0.82, 0.61 0.71 M0 0 C-1.04 -0.42, -4.83 -2.49, -6.21 -2.51 C-7.59 -2.53, -8.45 -0.76, -8.28 -0.11 C-8.12 0.55, -6.71 1.28, -5.23 1.42 C-3.75 1.55, -0.36 0.82, 0.61 0.71" stroke="#343a40" stroke-width="2" fill="none"></path></g></g><mask></mask></g><g clip-path="url(#gnBsbslzVTVa7IpiHMS73)"><g stroke-linecap="round"><g transform="translate(333.10831206254414 299.99877751073245) rotate(0 -1.0738923555272208 16.64533151067144)"><path d="M0 0 C-0.07 2.48, -0.04 9.35, -0.4 14.9 C-0.76 20.45, -1.86 30.23, -2.15 33.29 M0 0 C-0.07 2.48, -0.04 9.35, -0.4 14.9 C-0.76 20.45, -1.86 30.23, -2.15 33.29" stroke="#343a40" stroke-width="2" fill="none"></path></g></g><mask></mask></g><g clip-path="url(#gnBsbslzVTVa7IpiHMS73)"><g stroke-linecap="round"><g transform="translate(364.25119037283287 314.2278512214675) rotate(0 -1.879311622172679 11.14163318859471)"><path d="M0 0 C-0.63 3.71, -3.13 18.57, -3.76 22.28 M0 0 C-0.63 3.71, -3.13 18.57, -3.76 22.28" stroke="#343a40" stroke-width="2" fill="none"></path></g></g><mask></mask></g><g clip-path="url(#gnBsbslzVTVa7IpiHMS73)"><g stroke-linecap="round"><g transform="translate(505.87074475798164 312.8854857770584) rotate(0 1.812193349952139 12.618235177444603)"><path d="M0 0 C0.11 1.43, 0.07 4.39, 0.67 8.59 C1.28 12.8, 3.13 22.46, 3.62 25.24 M0 0 C0.11 1.43, 0.07 4.39, 0.67 8.59 C1.28 12.8, 3.13 22.46, 3.62 25.24" stroke="#343a40" stroke-width="2" fill="none"></path></g></g><mask></mask></g><g clip-path="url(#gnBsbslzVTVa7IpiHMS73)"><g stroke-linecap="round"><g transform="translate(537.1478596127113 304.4285834772818) rotate(0 1.0067740833066807 17.115159416214624)"><path d="M0 0 C0.04 2.13, -0.07 7.05, 0.27 12.75 C0.6 18.46, 1.72 30.65, 2.01 34.23 M0 0 C0.04 2.13, -0.07 7.05, 0.27 12.75 C0.6 18.46, 1.72 30.65, 2.01 34.23" stroke="#343a40" stroke-width="2" fill="none"></path></g></g><mask></mask></g><g clip-path="url(#gnBsbslzVTVa7IpiHMS73)"><g stroke-linecap="round"><g transform="translate(520.5025281020396 302.28079876622746) rotate(0 19.598535488371283 -40.338081604490185)"><path d="M0 0 C3.22 0.04, 13.49 0.74, 19.33 0.27 C25.17 -0.2, 31.72 -1.03, 35.04 -2.82 C38.35 -4.61, 38.77 -3.98, 39.2 -10.47 C39.62 -16.96, 38.88 -33.09, 37.59 -41.75 C36.29 -50.41, 34.14 -55.89, 31.41 -62.42 C28.68 -68.95, 22.91 -77.86, 21.21 -80.94 M0 0 C3.22 0.04, 13.49 0.74, 19.33 0.27 C25.17 -0.2, 31.72 -1.03, 35.04 -2.82 C38.35 -4.61, 38.77 -3.98, 39.2 -10.47 C39.62 -16.96, 38.88 -33.09, 37.59 -41.75 C36.29 -50.41, 34.14 -55.89, 31.41 -62.42 C28.68 -68.95, 22.91 -77.86, 21.21 -80.94" stroke="#343a40" stroke-width="2" fill="none"></path></g></g><mask></mask></g><g clip-path="url(#gnBsbslzVTVa7IpiHMS73)"><g stroke-linecap="round"><g transform="translate(547.8867831679822 231.5381398458735) rotate(0 -6.1077627720606245 17.249395960655534)"><path d="M0 0 C1.28 1.05, 5.46 3.38, 7.65 6.31 C9.84 9.24, 12.48 14.36, 13.16 17.58 C13.83 20.81, 13.04 23.11, 11.68 25.64 C10.31 28.17, 8.41 31.28, 4.97 32.75 C1.52 34.23, -4.85 34.54, -8.99 34.5 C-13.13 34.45, -17.14 33.6, -19.87 32.49 C-22.6 31.37, -24.45 28.57, -25.37 27.79 M0 0 C1.28 1.05, 5.46 3.38, 7.65 6.31 C9.84 9.24, 12.48 14.36, 13.16 17.58 C13.83 20.81, 13.04 23.11, 11.68 25.64 C10.31 28.17, 8.41 31.28, 4.97 32.75 C1.52 34.23, -4.85 34.54, -8.99 34.5 C-13.13 34.45, -17.14 33.6, -19.87 32.49 C-22.6 31.37, -24.45 28.57, -25.37 27.79" stroke="#343a40" stroke-width="2" fill="none"></path></g></g><mask></mask></g><g clip-path="url(#gnBsbslzVTVa7IpiHMS73)"><g stroke-linecap="round"><g transform="translate(503.05177732472185 219.85956047951527) rotate(0 -2.4162577999362043 4.765397327651954)"><path d="M0 0 C-0.81 1.59, -4.03 7.94, -4.83 9.53 M0 0 C-0.81 1.59, -4.03 7.94, -4.83 9.53" stroke="#343a40" stroke-width="2" fill="none"></path></g></g><mask></mask></g><g clip-path="url(#gnBsbslzVTVa7IpiHMS73)"><g stroke-linecap="round" transform="translate(516.2217770358641 258.05195418890526) rotate(25.676815681841497 3.340087170495025 4.16133287766786)"><path d="M6.68 4.16 C6.68 4.4, 6.66 4.65, 6.63 4.88 C6.6 5.12, 6.54 5.36, 6.48 5.58 C6.41 5.81, 6.33 6.03, 6.23 6.24 C6.14 6.45, 6.02 6.65, 5.9 6.84 C5.77 7.02, 5.64 7.19, 5.49 7.35 C5.34 7.5, 5.18 7.64, 5.01 7.77 C4.84 7.89, 4.66 7.99, 4.48 8.07 C4.3 8.15, 4.11 8.22, 3.92 8.26 C3.73 8.3, 3.53 8.32, 3.34 8.32 C3.15 8.32, 2.95 8.3, 2.76 8.26 C2.57 8.22, 2.38 8.15, 2.2 8.07 C2.02 7.99, 1.84 7.89, 1.67 7.77 C1.5 7.64, 1.34 7.5, 1.19 7.35 C1.05 7.19, 0.91 7.02, 0.78 6.84 C0.66 6.65, 0.54 6.45, 0.45 6.24 C0.35 6.03, 0.27 5.81, 0.2 5.58 C0.14 5.36, 0.08 5.12, 0.05 4.88 C0.02 4.65, 0 4.4, 0 4.16 C0 3.92, 0.02 3.68, 0.05 3.44 C0.08 3.2, 0.14 2.96, 0.2 2.74 C0.27 2.51, 0.35 2.29, 0.45 2.08 C0.54 1.87, 0.66 1.67, 0.78 1.49 C0.91 1.3, 1.05 1.13, 1.19 0.97 C1.34 0.82, 1.5 0.68, 1.67 0.56 C1.84 0.44, 2.02 0.33, 2.2 0.25 C2.38 0.17, 2.57 0.11, 2.76 0.06 C2.95 0.02, 3.15 0, 3.34 0 C3.53 0, 3.73 0.02, 3.92 0.06 C4.11 0.11, 4.3 0.17, 4.48 0.25 C4.66 0.33, 4.84 0.44, 5.01 0.56 C5.18 0.68, 5.34 0.82, 5.49 0.97 C5.64 1.13, 5.77 1.3, 5.9 1.49 C6.02 1.67, 6.14 1.87, 6.23 2.08 C6.33 2.29, 6.41 2.51, 6.48 2.74 C6.54 2.96, 6.6 3.2, 6.63 3.44 C6.66 3.68, 6.67 4.04, 6.68 4.16 C6.69 4.28, 6.69 4.04, 6.68 4.16" stroke="#343a40" stroke-width="2" fill="none"></path></g></g><g clip-path="url(#gnBsbslzVTVa7IpiHMS73)"><g stroke-linecap="round"><g transform="translate(475.9359953476599 230.0615378570235) rotate(0 -6.443354133163126 -2.5504943443769434)"><path d="M0 0 C-0.22 -0.65, 0.07 -3.04, -1.34 -3.89 C-2.75 -4.74, -6.53 -5.66, -8.46 -5.1 C-10.38 -4.54, -12.15 -1.3, -12.89 -0.54 M0 0 C-0.22 -0.65, 0.07 -3.04, -1.34 -3.89 C-2.75 -4.74, -6.53 -5.66, -8.46 -5.1 C-10.38 -4.54, -12.15 -1.3, -12.89 -0.54" stroke="#343a40" stroke-width="2" fill="none"></path></g></g><mask></mask></g><g clip-path="url(#gnBsbslzVTVa7IpiHMS73)"><g stroke-linecap="round"><g transform="translate(385.44966482352964 228.7342568908541) rotate(0 6.92137608990582 -2.4559721609344933)"><path d="M0 0 C0.43 -0.52, 1.5 -2.31, 2.6 -3.13 C3.71 -3.94, 5.26 -4.73, 6.62 -4.91 C7.99 -5.1, 9.59 -5.06, 10.79 -4.24 C11.99 -3.42, 13.33 -0.71, 13.84 0 M0 0 C0.43 -0.52, 1.5 -2.31, 2.6 -3.13 C3.71 -3.94, 5.26 -4.73, 6.62 -4.91 C7.99 -5.1, 9.59 -5.06, 10.79 -4.24 C11.99 -3.42, 13.33 -0.71, 13.84 0" stroke="#343a40" stroke-width="2" fill="none"></path></g></g><mask></mask></g><g clip-path="url(#gnBsbslzVTVa7IpiHMS73)"><g stroke-linecap="round" transform="translate(337.30888618658946 252.47000325067006) rotate(348.02386755579573 3.8331666774206212 4.808881831673148)"><path d="M7.67 4.81 C7.67 5.09, 7.65 5.37, 7.61 5.64 C7.57 5.92, 7.51 6.19, 7.44 6.45 C7.36 6.72, 7.26 6.97, 7.15 7.21 C7.04 7.45, 6.91 7.69, 6.77 7.9 C6.63 8.11, 6.47 8.31, 6.3 8.49 C6.13 8.67, 5.94 8.83, 5.75 8.97 C5.56 9.11, 5.35 9.23, 5.14 9.33 C4.94 9.42, 4.72 9.5, 4.5 9.54 C4.28 9.59, 4.06 9.62, 3.83 9.62 C3.61 9.62, 3.39 9.59, 3.17 9.54 C2.95 9.5, 2.73 9.42, 2.52 9.33 C2.31 9.23, 2.11 9.11, 1.92 8.97 C1.72 8.83, 1.54 8.67, 1.37 8.49 C1.2 8.31, 1.04 8.11, 0.9 7.9 C0.75 7.69, 0.62 7.45, 0.51 7.21 C0.4 6.97, 0.31 6.72, 0.23 6.45 C0.16 6.19, 0.1 5.92, 0.06 5.64 C0.02 5.37, 0 5.09, 0 4.81 C0 4.53, 0.02 4.25, 0.06 3.97 C0.1 3.7, 0.16 3.43, 0.23 3.16 C0.31 2.9, 0.4 2.65, 0.51 2.4 C0.62 2.16, 0.75 1.93, 0.9 1.72 C1.04 1.5, 1.2 1.3, 1.37 1.13 C1.54 0.95, 1.72 0.78, 1.92 0.64 C2.11 0.51, 2.31 0.39, 2.52 0.29 C2.73 0.19, 2.95 0.12, 3.17 0.07 C3.39 0.02, 3.61 0, 3.83 0 C4.06 0, 4.28 0.02, 4.5 0.07 C4.72 0.12, 4.94 0.19, 5.14 0.29 C5.35 0.39, 5.56 0.51, 5.75 0.64 C5.94 0.78, 6.13 0.95, 6.3 1.13 C6.47 1.3, 6.63 1.5, 6.77 1.72 C6.91 1.93, 7.04 2.16, 7.15 2.4 C7.26 2.65, 7.36 2.9, 7.44 3.16 C7.51 3.43, 7.57 3.7, 7.61 3.97 C7.65 4.25, 7.66 4.67, 7.67 4.81 C7.68 4.95, 7.68 4.67, 7.67 4.81" stroke="#343a40" stroke-width="2" fill="none"></path></g></g><g clip-path="url(#gnBsbslzVTVa7IpiHMS73)"><g stroke-linecap="round"><g transform="translate(324.48520130212734 222.50160922720033) rotate(0 -3.3453091002942017 19.305221266281706)"><path d="M0 0 C-1.79 1.39, -7.88 5.39, -10.73 8.36 C-13.59 11.34, -15.89 14.75, -17.14 17.84 C-18.4 20.93, -18.86 24.02, -18.26 26.9 C-17.66 29.78, -15.98 33.17, -13.52 35.13 C-11.06 37.08, -7.67 38.47, -3.48 38.61 C0.7 38.75, 9.06 36.4, 11.57 35.96 M0 0 C-1.79 1.39, -7.88 5.39, -10.73 8.36 C-13.59 11.34, -15.89 14.75, -17.14 17.84 C-18.4 20.93, -18.86 24.02, -18.26 26.9 C-17.66 29.78, -15.98 33.17, -13.52 35.13 C-11.06 37.08, -7.67 38.47, -3.48 38.61 C0.7 38.75, 9.06 36.4, 11.57 35.96" stroke="#343a40" stroke-width="2" fill="none"></path></g></g><mask></mask></g><g clip-path="url(#gnBsbslzVTVa7IpiHMS73)"><g stroke-linecap="round"><g transform="translate(327.96989828160065 219.15630012690576) rotate(0 -1.2544909126103931 39.725545565994935)"><path d="M0 0 C-1.32 2.02, -5.69 6.85, -7.95 12.13 C-10.2 17.4, -12.06 24.93, -13.52 31.64 C-14.98 38.35, -16.22 46.25, -16.73 52.41 C-17.24 58.57, -17.01 64.61, -16.59 68.58 C-16.17 72.55, -16.8 74.46, -14.22 76.25 C-11.64 78.03, -5.85 78.78, -1.12 79.31 C3.62 79.85, 11.66 79.43, 14.22 79.45 M0 0 C-1.32 2.02, -5.69 6.85, -7.95 12.13 C-10.2 17.4, -12.06 24.93, -13.52 31.64 C-14.98 38.35, -16.22 46.25, -16.73 52.41 C-17.24 58.57, -17.01 64.61, -16.59 68.58 C-16.17 72.55, -16.8 74.46, -14.22 76.25 C-11.64 78.03, -5.85 78.78, -1.12 79.31 C3.62 79.85, 11.66 79.43, 14.22 79.45" stroke="#343a40" stroke-width="2" fill="none"></path></g></g><mask></mask></g><g clip-path="url(#gnBsbslzVTVa7IpiHMS73)"><g stroke-linecap="round"><g transform="translate(366.859116572522 215.5322152682536) rotate(0 3.275615160704959 6.760312140178144)"><path d="M0 0 C1.21 2.12, 2.41 4.24, 4.04 7.11 M0 0 C1.54 2.71, 3.08 5.42, 4.04 7.11 M4.04 7.11 C4.66 8.68, 5.27 10.25, 6.55 13.52 M4.04 7.11 C4.73 8.87, 5.42 10.63, 6.55 13.52" stroke="#343a40" stroke-width="2" fill="none"></path></g></g><mask></mask></g><g clip-path="url(#gnBsbslzVTVa7IpiHMS73)"><g stroke-linecap="round"><g transform="translate(337.5876619449472 259.99694872633154) rotate(0 92.20508207686194 26.274615225228217)"><path d="M0 0 C2.44 16.73, 4.88 33.46, 7.67 52.55 M0 0 C2.04 14, 4.09 28, 7.67 52.55 M7.67 52.55 C47.58 52.26, 87.49 51.97, 181.06 51.29 M7.67 52.55 C50.63 52.24, 93.6 51.93, 181.06 51.29 M181.06 51.29 C182.38 33.44, 183.69 15.58, 184.41 5.85 M181.06 51.29 C182.17 36.22, 183.28 21.14, 184.41 5.85" stroke="#343a40" stroke-width="2" fill="none"></path></g></g><mask></mask></g><g clip-path="url(#gnBsbslzVTVa7IpiHMS73)"><g stroke-linecap="round"><g transform="translate(522.5553776153865 257.7667426594687) rotate(0 -93.59896086865105 -13.729706099124542)"><path d="M0 0 C0.3 -8.34, 0.61 -16.68, 0.98 -26.76 M0 0 C0.29 -7.84, 0.57 -15.68, 0.98 -26.76 M0.98 -26.76 C-56.99 -26.98, -114.95 -27.19, -188.17 -27.46 M0.98 -26.76 C-47.75 -26.94, -96.47 -27.12, -188.17 -27.46 M-188.17 -27.46 C-187.21 -19.41, -186.26 -11.35, -185.39 -4.04 M-188.17 -27.46 C-187.24 -19.64, -186.31 -11.82, -185.39 -4.04" stroke="#343a40" stroke-width="2" fill="none"></path></g></g><mask></mask></g><g clip-path="url(#gnBsbslzVTVa7IpiHMS73)"><g stroke-linecap="round" transform="translate(736.2089083418941 75.80143710706807) rotate(0 13.691136782261879 13.691136782261879)"><path d="M6.95 2.06 C6.95 2.06, 6.95 2.06, 6.95 2.06 M6.95 2.06 C6.95 2.06, 6.95 2.06, 6.95 2.06 M2.09 13.74 C5.07 10.35, 8.16 7.73, 13.25 0.91 M2.09 13.74 C5.28 10.66, 8.25 7.44, 13.25 0.91 M2.49 19.39 C6.68 14.12, 12.09 8.17, 18.23 1.27 M2.49 19.39 C7.69 13.64, 12.27 7.59, 18.23 1.27 M4.85 22.77 C8.79 17.98, 12.52 14.56, 21.25 3.9 M4.85 22.77 C9.46 17.4, 14.46 10.63, 21.25 3.9 M7.21 26.15 C12.02 20.43, 18.03 12.86, 24.93 5.77 M7.21 26.15 C13.75 18.85, 20.13 10.91, 24.93 5.77 M12.2 26.51 C18.35 21.41, 23.42 14.29, 26.63 9.9 M12.2 26.51 C16.45 21.6, 20.7 17, 26.63 9.9 M16.53 27.62 C21.21 23.22, 24.76 18.46, 27.68 14.79 M16.53 27.62 C19.74 24.28, 22.35 20.97, 27.68 14.79" stroke="#a5d8ff" stroke-width="0.5" fill="none"></path><path d="M16.26 0.05 C19.02 0.56, 22.93 3.37, 24.83 5.73 C26.73 8.08, 27.76 11.34, 27.64 14.18 C27.51 17.02, 26.02 20.59, 24.09 22.77 C22.16 24.95, 18.93 26.81, 16.06 27.25 C13.18 27.7, 9.34 26.99, 6.85 25.45 C4.35 23.91, 1.99 20.79, 1.09 18 C0.2 15.21, 0.46 11.42, 1.48 8.72 C2.5 6.02, 4.51 3.13, 7.19 1.78 C9.87 0.43, 15.67 0.76, 17.56 0.62 C19.45 0.48, 18.57 0.69, 18.54 0.95 M13.32 0.19 C16.16 -0.04, 19.41 1.36, 21.7 3.21 C23.99 5.06, 26.36 8.42, 27.05 11.31 C27.75 14.21, 27.34 18.16, 25.86 20.57 C24.39 22.97, 20.82 24.76, 18.2 25.72 C15.58 26.67, 12.94 26.99, 10.14 26.3 C7.34 25.61, 3.17 24.01, 1.39 21.59 C-0.4 19.16, -1.02 14.73, -0.58 11.75 C-0.14 8.77, 1.84 5.72, 4.03 3.69 C6.22 1.67, 11.05 0.27, 12.57 -0.41 C14.09 -1.09, 12.93 -0.66, 13.16 -0.4" stroke="#000000" stroke-width="1" fill="none"></path></g></g><g clip-path="url(#gnBsbslzVTVa7IpiHMS73)"><g stroke-linecap="round" transform="translate(736.1514109789255 154.24556060073564) rotate(0 13.691136782261879 13.691136782261879)"><path d="M4.43 3.86 C4.43 3.86, 4.43 3.86, 4.43 3.86 M4.43 3.86 C4.43 3.86, 4.43 3.86, 4.43 3.86 M0.89 14.03 C6.29 8.87, 9.63 2.96, 12.7 0.44 M0.89 14.03 C5.62 9.31, 9.7 3.69, 12.7 0.44 M1.94 18.91 C5.53 14.58, 9.62 9.63, 17.03 1.56 M1.94 18.91 C5.86 13.75, 10.18 8.87, 17.03 1.56 M4.31 22.29 C10.88 15.4, 17.2 8.18, 21.36 2.67 M4.31 22.29 C10.34 14.39, 17.28 7.5, 21.36 2.67 M7.33 24.92 C10.42 20.48, 15.74 16.78, 24.38 5.3 M7.33 24.92 C12.73 18.37, 19.1 11.56, 24.38 5.3 M11 26.79 C18 19.3, 23.3 13.4, 26.75 8.67 M11 26.79 C14.59 22.97, 18.5 18.99, 26.75 8.67 M16.64 26.39 C20.62 22.15, 24.54 17.33, 27.8 13.56 M16.64 26.39 C19.6 23, 22.21 19.77, 27.8 13.56" stroke="#a5d8ff" stroke-width="0.5" fill="none"></path><path d="M12.87 0.52 C15.72 0.16, 19.45 0.92, 21.82 2.51 C24.2 4.11, 26.35 7.27, 27.13 10.1 C27.92 12.93, 27.75 16.81, 26.54 19.5 C25.33 22.19, 22.52 25, 19.86 26.25 C17.19 27.49, 13.37 27.74, 10.55 26.97 C7.73 26.21, 4.71 24.06, 2.95 21.68 C1.19 19.29, -0.21 15.58, 0 12.65 C0.21 9.72, 1.88 6.23, 4.21 4.11 C6.55 1.99, 12.2 0.51, 13.99 -0.08 C15.78 -0.66, 15.03 0.45, 14.95 0.61 M13.27 0.34 C16.03 0.21, 20.12 1.79, 22.44 3.69 C24.77 5.6, 26.82 9.07, 27.23 11.76 C27.64 14.46, 26.27 17.46, 24.91 19.85 C23.54 22.24, 21.81 24.89, 19.05 26.11 C16.28 27.33, 11.31 28.11, 8.33 27.17 C5.35 26.23, 2.58 23.1, 1.15 20.49 C-0.28 17.88, -0.78 14.44, -0.26 11.5 C0.26 8.55, 1.95 4.84, 4.26 2.81 C6.58 0.78, 11.95 -0.22, 13.64 -0.68 C15.33 -1.13, 14.28 -0.33, 14.4 0.08" stroke="#000000" stroke-width="1" fill="none"></path></g></g><g clip-path="url(#gnBsbslzVTVa7IpiHMS73)"><g stroke-linecap="round" transform="translate(822.3923445556945 201.5957288249931) rotate(0 13.691136782261879 13.691136782261879)"><path d="M3.8 4.63 C3.8 4.63, 3.8 4.63, 3.8 4.63 M3.8 4.63 C3.8 4.63, 3.8 4.63, 3.8 4.63 M0.91 14.04 C3.56 9.91, 7.68 7.5, 12.72 0.46 M0.91 14.04 C5.21 8.87, 9.23 3.76, 12.72 0.46 M1.96 18.93 C7.15 12.49, 11.77 7.69, 17.05 1.57 M1.96 18.93 C6.34 13.46, 11.75 8.3, 17.05 1.57 M3.67 23.07 C8.28 18.4, 13.5 11.8, 21.38 2.69 M3.67 23.07 C10.97 14.98, 17.53 6.36, 21.38 2.69 M7.34 24.94 C14.8 17.96, 21.02 9.6, 24.4 5.31 M7.34 24.94 C14.16 17.39, 20.8 10.54, 24.4 5.31 M11.02 26.8 C17.06 20.72, 22.52 12.77, 26.77 8.69 M11.02 26.8 C15.98 21.88, 20.54 16.52, 26.77 8.69 M16.01 27.16 C19.64 23.06, 23.64 18.7, 27.16 14.33 M16.01 27.16 C18.99 23.55, 22.84 19.66, 27.16 14.33" stroke="#a5d8ff" stroke-width="0.5" fill="none"></path><path d="M12.24 0.13 C14.96 -0.48, 18.82 0.53, 21.32 2.11 C23.82 3.7, 26.32 6.81, 27.22 9.65 C28.12 12.49, 27.85 16.42, 26.71 19.14 C25.57 21.85, 22.96 24.59, 20.37 25.93 C17.77 27.27, 14.08 27.82, 11.14 27.19 C8.2 26.56, 4.55 24.48, 2.73 22.14 C0.9 19.8, -0.02 16.11, 0.21 13.14 C0.43 10.16, 1.99 6.44, 4.07 4.31 C6.15 2.18, 11.26 1.12, 12.69 0.37 C14.11 -0.37, 12.66 -0.37, 12.62 -0.18 M14.48 0.54 C17.35 0.55, 21.13 2.41, 23.16 4.23 C25.18 6.05, 26.2 8.7, 26.63 11.46 C27.06 14.22, 27.38 18.14, 25.76 20.8 C24.13 23.45, 19.92 26.51, 16.89 27.41 C13.85 28.31, 10.2 27.42, 7.55 26.18 C4.9 24.94, 2.28 22.65, 0.99 19.97 C-0.31 17.29, -0.98 13.09, -0.22 10.1 C0.53 7.11, 2.93 3.73, 5.51 2.02 C8.09 0.31, 13.63 0.05, 15.24 -0.17 C16.85 -0.38, 15.38 0.37, 15.16 0.73" stroke="#000000" stroke-width="1" fill="none"></path></g></g><g clip-path="url(#gnBsbslzVTVa7IpiHMS73)"><g stroke-linecap="round" transform="translate(891.7806131463756 153.98099757112664) rotate(0 13.691136782261879 13.691136782261879)"><path d="M1.64 8.05 C1.64 8.05, 1.64 8.05, 1.64 8.05 M1.64 8.05 C1.64 8.05, 1.64 8.05, 1.64 8.05 M0.73 15.21 C5.06 11.61, 8.63 7.59, 12.53 1.62 M0.73 15.21 C5.04 9.65, 9.98 4.64, 12.53 1.62 M2.43 19.34 C6.9 14.25, 11.78 8, 18.18 1.23 M2.43 19.34 C6.95 14.77, 10.42 10.09, 18.18 1.23 M4.79 22.72 C11.42 15.14, 17.56 8.28, 21.85 3.1 M4.79 22.72 C7.88 18.19, 12.21 14.27, 21.85 3.1 M7.16 26.1 C12.73 19.85, 18.44 13.2, 24.87 5.72 M7.16 26.1 C13.31 20, 19.03 13.36, 24.87 5.72 M12.14 26.46 C15.35 21.97, 19.94 17.39, 26.58 9.85 M12.14 26.46 C17.57 20.81, 22.62 14.52, 26.58 9.85 M16.48 27.57 C20.48 23.33, 25.04 17.79, 28.28 13.99 M16.48 27.57 C20.37 23.51, 23.39 19.42, 28.28 13.99" stroke="#a5d8ff" stroke-width="0.5" fill="none"></path><path d="M17.12 0.31 C19.9 0.8, 23.38 3.17, 25.16 5.57 C26.93 7.96, 27.94 11.75, 27.75 14.69 C27.57 17.62, 26.03 21.07, 24.03 23.19 C22.02 25.32, 18.7 27.1, 15.71 27.44 C12.71 27.79, 8.55 26.9, 6.06 25.27 C3.57 23.64, 1.5 20.53, 0.75 17.67 C0 14.82, 0.37 10.79, 1.57 8.14 C2.77 5.48, 5.32 3.08, 7.96 1.74 C10.6 0.39, 15.74 0.16, 17.41 0.05 C19.07 -0.06, 17.99 0.82, 17.96 1.07 M15.28 0.57 C17.96 0.52, 20.83 1.63, 22.95 3.6 C25.07 5.57, 27.82 9.27, 27.99 12.41 C28.17 15.54, 25.96 20, 23.99 22.42 C22.03 24.84, 19.01 26.31, 16.2 26.92 C13.39 27.53, 9.75 27.46, 7.14 26.1 C4.53 24.74, 1.65 21.58, 0.55 18.75 C-0.55 15.92, -0.51 11.92, 0.54 9.14 C1.6 6.37, 4.3 3.53, 6.86 2.1 C9.42 0.66, 14.59 0.71, 15.9 0.52 C17.21 0.32, 14.78 0.66, 14.7 0.93" stroke="#000000" stroke-width="1" fill="none"></path></g></g><g clip-path="url(#gnBsbslzVTVa7IpiHMS73)"><g stroke-linecap="round" transform="translate(654.5965500641043 203.11531272630873) rotate(0 13.69113678226185 13.691136782261879)"><path d="M4.76 2.82 C4.76 2.82, 4.76 2.82, 4.76 2.82 M4.76 2.82 C4.76 2.82, 4.76 2.82, 4.76 2.82 M1.22 12.99 C4.17 10.76, 6.82 7.33, 11.72 0.91 M1.22 12.99 C4.12 9.79, 6.74 6.77, 11.72 0.91 M2.27 17.88 C5.65 13.37, 8.4 9.62, 16.71 1.27 M2.27 17.88 C5.94 13.41, 10.33 8.81, 16.71 1.27 M3.98 22.01 C10.82 14.42, 14.8 8.73, 20.38 3.14 M3.98 22.01 C9.33 16.13, 13.72 11.34, 20.38 3.14 M7 24.63 C13.95 16.83, 19.6 10.96, 24.05 5.01 M7 24.63 C12.17 19.46, 16.39 13.46, 24.05 5.01 M10.67 26.5 C16.91 19.36, 23.82 12.86, 26.42 8.39 M10.67 26.5 C16.86 19.51, 22.87 12.52, 26.42 8.39 M15.66 26.86 C19.84 22.1, 24.12 16.54, 27.47 13.28 M15.66 26.86 C19.39 22.28, 23.49 17.92, 27.47 13.28" stroke="#a5d8ff" stroke-width="0.5" fill="none"></path><path d="M14.31 0.01 C17.13 -0.1, 20.81 1.53, 23.02 3.45 C25.24 5.38, 27.13 8.65, 27.62 11.55 C28.11 14.44, 27.53 18.29, 25.95 20.83 C24.37 23.37, 20.97 25.82, 18.15 26.79 C15.33 27.75, 11.7 27.69, 9.04 26.61 C6.37 25.53, 3.58 22.83, 2.18 20.31 C0.77 17.78, 0.14 14.4, 0.6 11.45 C1.06 8.5, 2.58 4.49, 4.95 2.6 C7.32 0.72, 13 0.55, 14.81 0.15 C16.63 -0.26, 15.82 -0.04, 15.84 0.17 M15.36 -0.45 C18.23 -0.3, 22.9 1.98, 24.78 4.43 C26.67 6.88, 26.88 11.25, 26.67 14.24 C26.45 17.24, 25.34 20.2, 23.5 22.38 C21.67 24.55, 18.52 26.85, 15.65 27.31 C12.78 27.77, 8.76 26.75, 6.29 25.15 C3.82 23.56, 1.62 20.45, 0.83 17.74 C0.04 15.02, 0.44 11.44, 1.55 8.86 C2.66 6.29, 5.15 3.64, 7.48 2.29 C9.81 0.94, 14.06 0.96, 15.53 0.77 C17 0.59, 16.21 0.98, 16.31 1.2" stroke="#000000" stroke-width="1" fill="none"></path></g></g><g clip-path="url(#gnBsbslzVTVa7IpiHMS73)"><g stroke-linecap="round" transform="translate(577.033283858508 147.75549878064157) rotate(0 13.69113678226185 13.691136782261879)"><path d="M4.37 3.8 C4.37 3.8, 4.37 3.8, 4.37 3.8 M4.37 3.8 C4.37 3.8, 4.37 3.8, 4.37 3.8 M0.83 13.97 C5.85 9.07, 9.02 3.56, 12.64 0.38 M0.83 13.97 C3.49 10.96, 5.88 7.69, 12.64 0.38 M1.88 18.86 C6.25 12.67, 11.2 8.63, 16.97 1.5 M1.88 18.86 C6.94 13.37, 11.81 8.19, 16.97 1.5 M4.24 22.24 C7.03 18.17, 11.76 12.71, 21.3 2.61 M4.24 22.24 C7.56 18.76, 11.3 14.64, 21.3 2.61 M7.26 24.86 C12.35 19.83, 16.86 14.52, 24.32 5.24 M7.26 24.86 C13.8 16.98, 21.19 8.85, 24.32 5.24 M10.28 27.48 C15.95 22.36, 21.3 16.43, 26.68 8.62 M10.28 27.48 C16.48 20.47, 22.38 13.67, 26.68 8.62 M15.92 27.09 C20.39 21.37, 25.21 17.46, 27.73 13.51 M15.92 27.09 C19.51 23.12, 23.04 19, 27.73 13.51" stroke="#a5d8ff" stroke-width="0.5" fill="none"></path><path d="M13.62 0.15 C16.39 -0.11, 20.22 1.16, 22.54 2.97 C24.87 4.78, 27.04 8.11, 27.57 11 C28.1 13.88, 27.15 17.71, 25.72 20.3 C24.29 22.88, 21.64 25.44, 19 26.5 C16.37 27.56, 12.64 27.51, 9.88 26.63 C7.12 25.76, 4.08 23.8, 2.44 21.25 C0.8 18.69, -0.29 14.23, 0.06 11.29 C0.41 8.35, 2.2 5.54, 4.53 3.61 C6.85 1.69, 12.31 0.3, 14.02 -0.25 C15.72 -0.81, 14.75 0.01, 14.78 0.29 M16.54 -0.25 C19.31 0.24, 21.67 3.08, 23.36 5.37 C25.05 7.65, 26.6 10.59, 26.68 13.45 C26.75 16.31, 25.66 20.3, 23.82 22.51 C21.98 24.72, 18.44 26.32, 15.63 26.73 C12.82 27.13, 9.31 26.35, 6.97 24.95 C4.64 23.55, 2.55 20.9, 1.63 18.34 C0.71 15.78, 0.69 12.23, 1.45 9.59 C2.22 6.95, 3.75 3.94, 6.21 2.49 C8.68 1.04, 14.58 1.16, 16.24 0.91 C17.9 0.66, 16.38 0.91, 16.17 1" stroke="#000000" stroke-width="1" fill="none"></path></g></g><g clip-path="url(#gnBsbslzVTVa7IpiHMS73)"><g stroke-linecap="round" transform="translate(685.3718444833626 310.2633397179238) rotate(0 13.691136782261879 13.691136782261879)"><path d="M4.97 3 C4.97 3, 4.97 3, 4.97 3 M4.97 3 C4.97 3, 4.97 3, 4.97 3 M0.78 13.93 C4.89 8.24, 9.1 3.81, 12.59 0.34 M0.78 13.93 C3.79 10.01, 7.53 6.28, 12.59 0.34 M1.83 18.81 C5.01 15.7, 8.87 10.58, 16.92 1.46 M1.83 18.81 C6.88 13.67, 10.99 8.29, 16.92 1.46 M4.19 22.19 C7.77 17.31, 10.36 14.9, 20.59 3.32 M4.19 22.19 C8.15 18.13, 11.41 14.16, 20.59 3.32 M7.21 24.82 C10.97 21.16, 16.07 16.57, 24.27 5.19 M7.21 24.82 C14.34 16.84, 20.53 9.55, 24.27 5.19 M10.88 26.69 C16.26 22.01, 20.72 16.53, 25.97 9.33 M10.88 26.69 C15.43 21.58, 19.85 16.77, 25.97 9.33 M16.53 26.29 C20.31 22.98, 23.53 18.03, 27.68 13.46 M16.53 26.29 C19.77 22.62, 22.75 19.24, 27.68 13.46" stroke="#a5d8ff" stroke-width="0.5" fill="none"></path><path d="M14.16 0.06 C16.96 -0.1, 20.85 1.47, 23.02 3.38 C25.18 5.29, 26.67 8.65, 27.12 11.53 C27.57 14.42, 27.11 18.2, 25.71 20.69 C24.32 23.19, 21.49 25.47, 18.76 26.49 C16.02 27.52, 12.16 27.93, 9.32 26.85 C6.49 25.76, 3.25 22.58, 1.73 20.01 C0.21 17.43, -0.34 14.22, 0.21 11.37 C0.76 8.52, 2.63 4.81, 5.05 2.92 C7.46 1.02, 12.97 0.43, 14.72 0.01 C16.47 -0.41, 15.56 0.25, 15.56 0.4 M10.02 0.92 C12.49 0.21, 16.68 0.19, 19.32 1.47 C21.96 2.76, 24.74 5.95, 25.88 8.61 C27.02 11.26, 26.96 14.74, 26.15 17.4 C25.34 20.06, 23.27 22.96, 21.02 24.57 C18.77 26.18, 15.43 27.27, 12.63 27.07 C9.84 26.87, 6.45 25.4, 4.27 23.36 C2.08 21.32, -0.3 17.73, -0.48 14.85 C-0.66 11.97, 1.25 8.4, 3.17 6.07 C5.09 3.75, 9.89 1.8, 11.05 0.87 C12.21 -0.05, 10.18 0.38, 10.12 0.53" stroke="#000000" stroke-width="1" fill="none"></path></g></g><g clip-path="url(#gnBsbslzVTVa7IpiHMS73)"><g stroke-linecap="round" transform="translate(790.7340710251167 311.45387335116357) rotate(0 13.691136782261879 13.691136782261879)"><path d="M5.94 2.52 C5.94 2.52, 5.94 2.52, 5.94 2.52 M5.94 2.52 C5.94 2.52, 5.94 2.52, 5.94 2.52 M1.09 14.2 C4.13 10.29, 8.26 5.77, 12.9 0.61 M1.09 14.2 C5 9.9, 8.37 5.31, 12.9 0.61 M1.48 19.84 C5.27 15.22, 8.86 11.98, 17.23 1.73 M1.48 19.84 C5.89 14.71, 10.69 8.17, 17.23 1.73 M4.5 22.46 C8.88 17.23, 14.46 10.16, 20.9 3.6 M4.5 22.46 C10.55 15.73, 16.43 8.37, 20.9 3.6 M7.52 25.09 C14.37 19.17, 20.15 11.24, 23.92 6.22 M7.52 25.09 C12.34 19.52, 17.18 14.25, 23.92 6.22 M11.85 26.2 C17.84 20.46, 22.51 14.29, 26.28 9.6 M11.85 26.2 C15.96 21.88, 19.37 17.6, 26.28 9.6 M16.18 27.32 C18.77 24.02, 21.3 21.36, 27.34 14.49 M16.18 27.32 C19.6 23.49, 22.36 20.49, 27.34 14.49" stroke="#a5d8ff" stroke-width="0.5" fill="none"></path><path d="M15.13 0.18 C17.84 0.22, 21.08 1.98, 23.14 4.01 C25.2 6.04, 27.11 9.49, 27.5 12.37 C27.89 15.24, 27.08 18.8, 25.47 21.26 C23.86 23.73, 20.73 26.42, 17.83 27.16 C14.93 27.9, 10.79 26.94, 8.05 25.71 C5.31 24.48, 2.64 22.4, 1.38 19.8 C0.13 17.2, -0.22 12.99, 0.52 10.13 C1.27 7.26, 3.32 4.27, 5.86 2.6 C8.4 0.94, 13.99 0.57, 15.76 0.15 C17.53 -0.27, 16.62 -0.23, 16.46 0.06 M11.04 0.06 C13.81 -0.59, 17.94 0.71, 20.45 2.2 C22.96 3.69, 25.11 6.35, 26.1 9 C27.09 11.65, 27.25 15.34, 26.39 18.1 C25.52 20.86, 23.37 24, 20.9 25.57 C18.43 27.14, 14.64 28, 11.57 27.52 C8.49 27.05, 4.31 24.98, 2.44 22.73 C0.57 20.47, 0.11 16.92, 0.34 13.99 C0.57 11.05, 2.01 7.43, 3.8 5.11 C5.58 2.8, 9.79 0.84, 11.07 0.08 C12.34 -0.68, 11.35 0.26, 11.45 0.54" stroke="#000000" stroke-width="1" fill="none"></path></g></g><g clip-path="url(#gnBsbslzVTVa7IpiHMS73)"><g stroke-linecap="round" transform="translate(615.7256269388133 383.4811581621934) rotate(0 13.69113678226185 13.691136782261879)"><path d="M5.3 3.28 C5.3 3.28, 5.3 3.28, 5.3 3.28 M5.3 3.28 C5.3 3.28, 5.3 3.28, 5.3 3.28 M1.1 14.21 C3.89 10.8, 7.13 6.86, 12.91 0.62 M1.1 14.21 C4.13 10.14, 7.5 6.33, 12.91 0.62 M2.15 19.1 C7.99 13.05, 13.56 6.68, 17.24 1.74 M2.15 19.1 C7.44 12.05, 13.65 6, 17.24 1.74 M4.51 22.47 C7.61 18.03, 12.93 14.34, 21.57 2.85 M4.51 22.47 C9.92 15.93, 16.29 9.12, 21.57 2.85 M7.53 25.1 C15.05 17.01, 20.86 10.51, 24.59 5.48 M7.53 25.1 C11.42 20.94, 15.63 16.62, 24.59 5.48 M11.21 26.97 C16.61 21.13, 21.96 14.62, 26.3 9.61 M11.21 26.97 C15.19 22.38, 18.79 17.98, 26.3 9.61 M16.85 26.57 C20.88 21.96, 25.33 17.26, 28 13.74 M16.85 26.57 C19.35 23.97, 22.1 20.42, 28 13.74" stroke="#a5d8ff" stroke-width="0.5" fill="none"></path><path d="M14.06 0.18 C16.8 0.09, 20.74 1.68, 23.01 3.6 C25.27 5.51, 27.22 8.72, 27.67 11.66 C28.12 14.6, 27.32 18.79, 25.69 21.21 C24.06 23.64, 20.74 25.33, 17.89 26.21 C15.04 27.09, 11.29 27.55, 8.6 26.5 C5.91 25.45, 3.09 22.51, 1.74 19.91 C0.4 17.3, -0.12 13.7, 0.51 10.88 C1.15 8.06, 3.1 4.85, 5.57 2.97 C8.04 1.1, 13.69 -0.03, 15.32 -0.38 C16.96 -0.73, 15.52 0.65, 15.39 0.87 M15.95 0.42 C18.73 0.74, 21.9 2.58, 23.8 4.74 C25.71 6.9, 27.21 10.39, 27.36 13.36 C27.51 16.33, 26.52 20.18, 24.7 22.57 C22.87 24.95, 19.51 27.1, 16.4 27.66 C13.3 28.22, 8.62 27.43, 6.06 25.94 C3.49 24.46, 1.84 21.56, 1.04 18.77 C0.24 15.99, 0.35 12.1, 1.26 9.23 C2.16 6.37, 4 3.08, 6.47 1.61 C8.94 0.14, 14.48 0.54, 16.08 0.4 C17.67 0.27, 16.12 0.6, 16.05 0.79" stroke="#000000" stroke-width="1" fill="none"></path></g></g><g clip-path="url(#gnBsbslzVTVa7IpiHMS73)"><g stroke-linecap="round" transform="translate(852.6418199536047 387.0527590619138) rotate(0 13.691136782261879 13.691136782261879)"><path d="M5.8 2.39 C5.8 2.39, 5.8 2.39, 5.8 2.39 M5.8 2.39 C5.8 2.39, 5.8 2.39, 5.8 2.39 M1.6 13.32 C5.45 8.47, 8.83 5.02, 12.75 0.48 M1.6 13.32 C4.79 9.25, 8.88 5.47, 12.75 0.48 M1.99 18.96 C5.93 15.07, 10.48 9.25, 17.08 1.6 M1.99 18.96 C8.24 12.07, 13.74 4.65, 17.08 1.6 M4.36 22.34 C11.81 15.36, 18.03 7, 21.41 2.71 M4.36 22.34 C11.17 14.8, 17.81 7.94, 21.41 2.71 M7.38 24.96 C13.92 18.28, 19.9 9.75, 24.43 5.34 M7.38 24.96 C12.72 19.6, 17.66 13.79, 24.43 5.34 M11.05 26.83 C16.03 21.2, 21.44 15.25, 26.14 9.47 M11.05 26.83 C15.13 21.93, 20.23 16.69, 26.14 9.47 M16.04 27.19 C19.45 23.75, 22.56 19.69, 28.5 12.85 M16.04 27.19 C19.14 23.48, 22.25 20.21, 28.5 12.85" stroke="#a5d8ff" stroke-width="0.5" fill="none"></path><path d="M14.89 0.15 C17.76 0.14, 21.53 1.72, 23.66 3.8 C25.8 5.88, 27.46 9.76, 27.67 12.61 C27.89 15.46, 26.65 18.51, 24.94 20.9 C23.23 23.29, 20.2 26.13, 17.41 26.97 C14.62 27.8, 10.83 27.14, 8.2 25.92 C5.56 24.7, 2.83 22.23, 1.59 19.64 C0.35 17.04, 0.02 13.29, 0.76 10.37 C1.5 7.46, 3.61 3.78, 6.01 2.15 C8.4 0.51, 13.45 0.9, 15.13 0.55 C16.81 0.21, 15.98 -0.01, 16.08 0.07 M12.73 -0.41 C15.59 -0.8, 19.68 0.43, 22.2 2.3 C24.72 4.16, 27.15 7.71, 27.85 10.77 C28.55 13.83, 28.01 17.95, 26.4 20.65 C24.8 23.36, 21.01 25.88, 18.22 27 C15.43 28.13, 12.33 28.34, 9.68 27.41 C7.03 26.47, 4.03 24.03, 2.33 21.4 C0.63 18.77, -0.85 14.58, -0.53 11.61 C-0.2 8.64, 2.02 5.46, 4.28 3.57 C6.54 1.68, 11.6 0.82, 13.02 0.26 C14.45 -0.31, 12.69 -0.04, 12.85 0.19" stroke="#000000" stroke-width="1" fill="none"></path></g></g><g clip-path="url(#gnBsbslzVTVa7IpiHMS73)"><g stroke-linecap="round" transform="translate(736.5647907126893 241.212388989994) rotate(0 13.691136782261879 13.691136782261879)"><path d="M5.17 3.17 C5.17 3.17, 5.17 3.17, 5.17 3.17 M5.17 3.17 C5.17 3.17, 5.17 3.17, 5.17 3.17 M0.97 14.09 C4.3 10.3, 7.99 5.47, 12.78 0.51 M0.97 14.09 C4.41 10.68, 6.93 7.17, 12.78 0.51 M1.36 19.74 C7.76 12.42, 13.68 5.82, 17.76 0.87 M1.36 19.74 C4.31 15.37, 8.51 11.6, 17.76 0.87 M4.38 22.36 C9.76 16.34, 15.27 9.92, 21.44 2.74 M4.38 22.36 C10.32 16.51, 15.83 10.11, 21.44 2.74 M7.4 24.98 C11.33 19.66, 16.63 14.26, 24.46 5.36 M7.4 24.98 C13.75 18.25, 19.73 10.89, 24.46 5.36 M11.08 26.85 C16.25 21.3, 22.03 14.32, 26.17 9.49 M11.08 26.85 C15.99 21.67, 19.92 16.46, 26.17 9.49 M16.06 27.21 C19.32 23.45, 23.18 18.3, 27.22 14.38 M16.06 27.21 C20.52 22.28, 25.14 17.52, 27.22 14.38" stroke="#a5d8ff" stroke-width="0.5" fill="none"></path><path d="M15.29 -0.03 C18.11 0.07, 21.73 2.3, 23.72 4.3 C25.71 6.3, 27.05 9.1, 27.25 11.99 C27.45 14.88, 26.56 19.19, 24.91 21.63 C23.26 24.07, 20.17 25.91, 17.37 26.66 C14.58 27.4, 10.77 27.28, 8.15 26.09 C5.52 24.91, 2.86 22.26, 1.63 19.54 C0.41 16.81, 0.16 12.5, 0.79 9.73 C1.41 6.95, 3 4.59, 5.39 2.91 C7.78 1.23, 13.31 0.12, 15.13 -0.37 C16.95 -0.86, 16.3 -0.27, 16.31 -0.01 M14.34 -0.66 C17.35 -0.67, 21.46 1.27, 23.73 3.45 C26 5.63, 27.79 9.36, 27.95 12.4 C28.12 15.43, 26.36 19.16, 24.71 21.67 C23.07 24.19, 20.75 26.63, 18.08 27.5 C15.41 28.36, 11.58 28.13, 8.7 26.87 C5.83 25.6, 2.29 22.58, 0.84 19.9 C-0.61 17.22, -0.71 13.61, 0 10.8 C0.71 7.99, 2.79 4.85, 5.1 3.04 C7.41 1.23, 12.22 0.34, 13.87 -0.07 C15.52 -0.48, 14.97 0.23, 14.99 0.59" stroke="#000000" stroke-width="1" fill="none"></path></g></g><g clip-path="url(#gnBsbslzVTVa7IpiHMS73)"><g stroke-linecap="round"><g transform="translate(748.7181548853496 181.78491846408974) rotate(0 0.5208584645425844 29.515312990745542)"><path d="M0.41 0.46 C0.57 10.49, 1.24 50.15, 1.31 60.06 M-0.83 -0.35 C-0.84 9.38, 0.37 48.75, 0.51 58.47" stroke="#000000" stroke-width="1" fill="none"></path></g></g><mask></mask></g><g clip-path="url(#gnBsbslzVTVa7IpiHMS73)"><g stroke-linecap="round"><g transform="translate(742.1206143344771 266.16398971998615) rotate(0 -16.667470865362247 23.78586988077734)"><path d="M0.27 1.03 C-5.38 9.02, -28.04 40.71, -33.52 48.44 M-1.05 0.52 C-6.91 8.15, -29.25 38.76, -34.57 46.77" stroke="#000000" stroke-width="1" fill="none"></path></g></g><mask></mask></g><g clip-path="url(#gnBsbslzVTVa7IpiHMS73)"><g stroke-linecap="round"><g transform="translate(680.7957945271103 223.21394364658886) rotate(0 28.231737069151393 13.835765556740967)"><path d="M-0.19 0.87 C9.3 5.28, 47.95 23.02, 57.2 27.49 M-1.75 0.28 C7.62 5.39, 46.75 24.15, 56.63 28.93" stroke="#000000" stroke-width="1" fill="none"></path></g></g><mask></mask></g><g clip-path="url(#gnBsbslzVTVa7IpiHMS73)"><g stroke-linecap="round"><g transform="translate(824.3392177402754 224.2835611620585) rotate(0 -30.171273947505256 13.474576287186892)"><path d="M0.73 -0.18 C-9.49 4.16, -51.38 22.37, -61.52 26.94 M-0.34 -1.33 C-10.2 3.15, -49.36 23.46, -59.42 28.47" stroke="#000000" stroke-width="1" fill="none"></path></g></g><mask></mask></g><g clip-path="url(#gnBsbslzVTVa7IpiHMS73)"><g stroke-linecap="round"><g transform="translate(759.8298021289245 264.77503381453926) rotate(0 18.403665747170805 23.959489368958202)"><path d="M-1.18 -0.01 C4.88 8.05, 30.82 40.12, 37.05 48.2 M0.41 -1.07 C6.26 6.63, 30.45 38.32, 36.23 46.23" stroke="#000000" stroke-width="1" fill="none"></path></g></g><mask></mask></g><g clip-path="url(#gnBsbslzVTVa7IpiHMS73)"><g stroke-linecap="round"><g transform="translate(600.0998730025365 171.36774917323828) rotate(0 27.960327797747993 19.62877661432151)"><path d="M0.24 0.28 C9.66 6.92, 46.03 33.16, 55.31 39.8 M-1.09 -0.61 C8.83 5.66, 48.33 31.49, 57.7 37.95" stroke="#000000" stroke-width="1" fill="none"></path></g></g><mask></mask></g><g clip-path="url(#gnBsbslzVTVa7IpiHMS73)"><g stroke-linecap="round"><g transform="translate(749.7598718144347 102.26719287725723) rotate(0 0 25.86930373894768)"><path d="M-0.61 0.54 C-0.66 9.25, -0.15 43.9, -0.03 52.56 M1.27 -0.23 C1.04 8.13, -0.68 42.4, -0.99 50.87" stroke="#000000" stroke-width="1" fill="none"></path></g></g><mask></mask></g><g clip-path="url(#gnBsbslzVTVa7IpiHMS73)"><g stroke-linecap="round"><g transform="translate(896.9891977918012 177.9652897241108) rotate(0 -23.479506550626297 15.534855212960679)"><path d="M-0.03 0.82 C-7.74 6.04, -38.86 26.98, -46.86 31.85 M-1.51 0.21 C-9.31 5.04, -40.4 25.04, -47.76 30.14" stroke="#000000" stroke-width="1" fill="none"></path></g></g><mask></mask></g><g clip-path="url(#gnBsbslzVTVa7IpiHMS73)"><g stroke-linecap="round"><g transform="translate(813.9990824413517 335.6117849923287) rotate(0 21.87605551078792 27.431879132575318)"><path d="M0.1 0.78 C7.22 9.61, 35.25 44.92, 42.69 53.82 M-1.31 0.15 C6.17 9.02, 37.21 45.65, 44.85 54.81" stroke="#000000" stroke-width="1" fill="none"></path></g></g><mask></mask></g><g clip-path="url(#gnBsbslzVTVa7IpiHMS73)"><g stroke-linecap="round"><g transform="translate(690.3820068565817 333.8755901105201) rotate(0 -25.69568425076676 26.737401179851872)"><path d="M-1.06 -1.04 C-9.47 7.63, -41.79 43.54, -50.37 52.79 M0.59 1.03 C-7.9 9.77, -42.32 45.37, -50.79 53.97" stroke="#000000" stroke-width="1" fill="none"></path></g></g><mask></mask></g><g clip-path="url(#gnBsbslzVTVa7IpiHMS73)"><g stroke-linecap="round"><g transform="translate(735.8703127599663 93.23897949185289) rotate(0 -66.84350294962985 30.55702991983071)"><path d="M1.02 -0.69 C-21.28 9.83, -112.2 51.79, -134.83 62.07 M0.09 1.57 C-21.76 11.86, -110.62 50.34, -132.72 60.46" stroke="#000000" stroke-width="1" fill="none"></path></g></g><mask></mask></g><g clip-path="url(#gnBsbslzVTVa7IpiHMS73)"><g stroke-linecap="round"><g transform="translate(587.9465088298764 174.8401389368555) rotate(0 17.535568306266498 105.03979034941824)"><path d="M-1.15 0.96 C4.34 36.07, 28.03 175.06, 33.94 209.95 M0.45 0.42 C6.2 35.78, 30 176.2, 36.06 211.42" stroke="#000000" stroke-width="1" fill="none"></path></g></g><mask></mask></g><g clip-path="url(#gnBsbslzVTVa7IpiHMS73)"><g stroke-linecap="round"><g transform="translate(642.810267095027 400.54547357196907) rotate(0 105.0397903494183 -0.17361948818086148)"><path d="M-1.13 -0.13 C33.95 -0.31, 174.3 0.03, 209.34 -0.12 M0.48 -1.24 C36.05 -1.89, 176.49 -2.32, 211.66 -2.12" stroke="#000000" stroke-width="1" fill="none"></path></g></g><mask></mask></g><g clip-path="url(#gnBsbslzVTVa7IpiHMS73)"><g stroke-linecap="round"><g transform="translate(904.6284552717589 181.43767948772802) rotate(0 -17.70918779444736 102.78273700306715)"><path d="M-0.74 0.23 C-6.62 34.4, -30.59 170.85, -36.37 204.9 M1.07 -0.69 C-4.34 33.63, -27.95 171.76, -34.16 206.08" stroke="#000000" stroke-width="1" fill="none"></path></g></g><mask></mask></g><g clip-path="url(#gnBsbslzVTVa7IpiHMS73)"><g stroke-linecap="round"><g transform="translate(763.3021918925417 92.54450153912944) rotate(0 65.80178602054468 33.50856121890524)"><path d="M-0.95 -0.67 C21.1 10.28, 109.29 54.7, 131.58 65.93 M0.75 1.59 C22.7 12.63, 108.64 55.85, 130.62 66.9" stroke="#000000" stroke-width="1" fill="none"></path></g></g><mask></mask></g><g clip-path="url(#gnBsbslzVTVa7IpiHMS73)"><g stroke-linecap="round"><g transform="translate(604.2667407188769 161.992296811472) rotate(0 66.14902499690635 1.7361948818085011)"><path d="M-0.02 -1.09 C22.38 -0.45, 111.25 2.29, 133.49 3.17 M-1.49 0.96 C20.94 1.83, 110.72 4.34, 133.16 4.55" stroke="#000000" stroke-width="1" fill="none"></path></g></g><mask></mask></g><g clip-path="url(#gnBsbslzVTVa7IpiHMS73)"><g stroke-linecap="round"><g transform="translate(763.6494308689032 167.54812043325956) rotate(0 64.06559113873612 -0.17361948818086148)"><path d="M1.19 -0.3 C22.73 -0.07, 108.19 0.19, 129.22 0.34 M0.35 -1.51 C21.83 -1.52, 107.26 -1.46, 128.84 -1.42" stroke="#000000" stroke-width="1" fill="none"></path></g></g><mask></mask></g><g clip-path="url(#gnBsbslzVTVa7IpiHMS73)"><g stroke-linecap="round"><g transform="translate(901.1336678425596 179.5092427943464) rotate(0 -42.615692553482916 68.75331731961933)"><path d="M1.09 0.69 C-13.45 23.81, -71.72 115.43, -86.02 138.43 M0.2 0 C-14.06 22.83, -69.49 113.96, -83.72 136.78" stroke="#000000" stroke-width="1" fill="none"></path></g></g><mask></mask></g><g clip-path="url(#gnBsbslzVTVa7IpiHMS73)"><g stroke-linecap="round"><g transform="translate(594.6794876135132 173.82715045388204) rotate(0 45.646141801730664 71.40496041183599)"><path d="M-0.79 0.92 C14.34 24.8, 76.4 120.18, 91.82 143.98 M1 0.35 C15.92 23.87, 76.11 118.89, 91.16 142.47" stroke="#000000" stroke-width="1" fill="none"></path></g></g><mask></mask></g><g clip-path="url(#gnBsbslzVTVa7IpiHMS73)"><g stroke-linecap="round"><g transform="translate(642.4090632734142 392.777108639777) rotate(0 75.95063428420747 -29.35747709239945)"><path d="M0.53 1.17 C26.06 -8.62, 127.35 -47.84, 152.39 -57.83 M-0.65 0.73 C24.84 -9.47, 126.07 -49.78, 151.71 -59.49" stroke="#000000" stroke-width="1" fill="none"></path></g></g><mask></mask></g><g clip-path="url(#gnBsbslzVTVa7IpiHMS73)"><g stroke-linecap="round"><g transform="translate(709.457752890894 332.92573598688523) rotate(0 72.5413788799288 30.683298638507722)"><path d="M0.49 0.88 C24.4 10.9, 119.99 51.16, 144 61.27 M-0.71 0.3 C23.52 11.02, 122.11 52.31, 146.14 62.76" stroke="#000000" stroke-width="1" fill="none"></path></g></g><mask></mask></g><g clip-path="url(#gnBsbslzVTVa7IpiHMS73)"><g stroke-linecap="round"><g transform="translate(663.7774031152323 231.30836213194652) rotate(0 -15.608649949311513 76.37810245955905)"><path d="M-1.08 -0.09 C-6.46 25.26, -26.65 127.43, -31.75 152.97 M0.55 -1.19 C-5.07 23.7, -27.44 125.59, -32.98 150.96" stroke="#000000" stroke-width="1" fill="none"></path></g></g><mask></mask></g><g clip-path="url(#gnBsbslzVTVa7IpiHMS73)"><g stroke-linecap="round"><g transform="translate(839.085315393331 228.26673560283757) rotate(0 13.030883813143816 79.0353341922065)"><path d="M-0.54 0.21 C3.91 26.64, 21.27 132.19, 25.57 158.47 M1.38 -0.72 C5.72 25.34, 19.97 129.91, 24.37 156.56" stroke="#000000" stroke-width="1" fill="none"></path></g></g><mask></mask></g><g clip-path="url(#gnBsbslzVTVa7IpiHMS73)"><g stroke-linecap="round"><g transform="translate(741.2774699974948 102.00550327041196) rotate(0 -32.68682462994062 51.56719529335021)"><path d="M-0.49 0.4 C-11.42 17.53, -55.51 85.8, -66.15 103 M1.46 -0.43 C-9.05 16.87, -52.84 87.47, -63.84 104.47" stroke="#000000" stroke-width="1" fill="none"></path></g></g><mask></mask></g><g clip-path="url(#gnBsbslzVTVa7IpiHMS73)"><g stroke-linecap="round"><g transform="translate(758.7404337905218 100.71756233990664) rotate(0 35.95170582413874 51.05873970438665)"><path d="M-0.77 -0.14 C11.47 16.9, 60.91 85.36, 72.95 102.59 M1.02 -1.25 C13.24 15.38, 60.98 83.59, 72.55 100.72" stroke="#000000" stroke-width="1" fill="none"></path></g></g><mask></mask></g></svg>