<svg version="1.1" xmlns="http://www.w3.org/2000/svg" viewBox="0 0 815.8646238593747 600.6724853515625" width="815.8646238593747" height="600.6724853515625" filter="invert(93%) hue-rotate(180deg)">
  <!-- svg-source:excalidraw -->
  
  <defs>
    <style class="style-fonts">
      @font-face {
        font-family: "Virgil";
        src: url("https://excalidraw.com/Virgil.woff2");
      }
      @font-face {
        font-family: "Cascadia";
        src: url("https://excalidraw.com/Cascadia.woff2");
      }
      @font-face {
        font-family: "Assistant";
        src: url("https://excalidraw.com/Assistant-Regular.woff2");
      }
    </style>
    <clipPath id="6toV74utO1PEJx9aUPPFf">
            <rect transform="translate(0 0) rotate(0 407.93231192968733 300.33624267578125)" width="815.8646238593747" height="600.6724853515626">
          </rect>
        </clipPath>
  </defs>
  <g clip-path="url(#6toV74utO1PEJx9aUPPFf)"><g stroke-linecap="round" transform="translate(39.79448306653444 105.31615900781208) rotate(0 374.9984130859375 240.5)"><path d="M0 0 C245.31 0.37, 488.99 0.48, 750 0 M0 0 C292.94 -1.4, 585.35 -1.64, 750 0 M750 0 C750.69 157.33, 751.45 314.25, 750 481 M750 0 C751.59 169.94, 750.9 340.31, 750 481 M750 481 C566.13 482.23, 384.14 482.17, 0 481 M750 481 C495.6 482.96, 241.78 483.11, 0 481 M0 481 C0.49 296.33, -0.44 110.04, 0 0 M0 481 C-1.88 292.63, -1.7 103.83, 0 0" stroke="#1e1e1e" stroke-width="2" fill="none"></path></g></g><g clip-path="url(#6toV74utO1PEJx9aUPPFf)"><g stroke-linecap="round" transform="translate(13.7867315665344 11.104858007812254) rotate(0 392.9140625 22)"><path d="M0 0 C236.04 -1.08, 474.07 -2.24, 785.83 0 M785.83 0 C784.93 15.06, 786.52 31.8, 785.83 44 M785.83 44 C493.65 46.07, 200.85 46.11, 0 44 M0 44 C-1.95 34.53, -1.46 27.79, 0 0" stroke="#1e1e1e" stroke-width="2.5" fill="none" stroke-dasharray="8 10"></path></g></g><g clip-path="url(#6toV74utO1PEJx9aUPPFf)"><g stroke-linecap="round"><g transform="translate(39.79448306653444 179.31615900781208) rotate(0 374.09417724609375 0.122955322265625)"><path d="M0 0 C263.08 -2.48, 525.13 -1.43, 748.19 0.25 M0 0 C253.29 0.87, 506.66 0.7, 748.19 0.25" stroke="#000" stroke-width="1" fill="none"></path></g></g><mask></mask></g><g clip-path="url(#6toV74utO1PEJx9aUPPFf)"><g stroke-linecap="round"><g transform="translate(39.79448306653444 360.3161590078121) rotate(0 374.115478515625 0.020294189453125)"><path d="M0 0 C272.68 2.75, 544.84 2.04, 748.23 0.04 M0 0 C209.21 -1.34, 418.04 -0.98, 748.23 0.04" stroke="#000" stroke-width="1" fill="none"></path></g></g><mask></mask></g><g clip-path="url(#6toV74utO1PEJx9aUPPFf)"><g stroke-linecap="round"><g transform="translate(406.7007940665344 56.104858007812254) rotate(0 -0.000021763135237051756 24.35565049999991)"><path d="M0.21 0.21 C0.24 8.26, -0.28 40.47, -0.29 48.6" stroke="#1e1e1e" stroke-width="2.5" fill="none" stroke-dasharray="1.5 8"></path></g></g><mask></mask></g><g clip-path="url(#6toV74utO1PEJx9aUPPFf)"><g transform="translate(331.20854556653444 110.31615900781208) rotate(0 64.453125 12)"><text x="0" y="19.3125" font-family="Cascadia, Segoe UI Emoji" font-size="20px" fill="#1e1e1e" text-anchor="start" style="white-space: pre;" direction="ltr" dominant-baseline="alphabetic">«component»</text></g></g><g clip-path="url(#6toV74utO1PEJx9aUPPFf)"><g transform="translate(230.16167056653444 143.31615900781208) rotate(0 152.34375 12)"><text x="0" y="19.3125" font-family="Cascadia, Segoe UI Emoji" font-size="20px" fill="#1e1e1e" text-anchor="start" style="white-space: pre;" direction="ltr" dominant-baseline="alphabetic">InMemoryEmbeddingRetriever</text></g></g><g clip-path="url(#6toV74utO1PEJx9aUPPFf)"><g transform="translate(47.29448306653444 188.31615900781208) rotate(0 216.796875 12)"><text x="0" y="19.3125" font-family="Cascadia, Segoe UI Emoji" font-size="20px" fill="#1e1e1e" text-anchor="start" style="white-space: pre;" direction="ltr" dominant-baseline="alphabetic">document_store: InMemoryDocumentStore</text></g></g><g clip-path="url(#6toV74utO1PEJx9aUPPFf)"><g transform="translate(47.29448306653444 221.31615900781208) rotate(0 193.359375 12)"><text x="0" y="19.3125" font-family="Cascadia, Segoe UI Emoji" font-size="20px" fill="#1e1e1e" text-anchor="start" style="white-space: pre;" direction="ltr" dominant-baseline="alphabetic">filters: Optional[Dict[str, Any]]</text></g></g><g clip-path="url(#6toV74utO1PEJx9aUPPFf)"><g transform="translate(47.29448306653444 254.31615900781208) rotate(0 58.59375 12)"><text x="0" y="19.3125" font-family="Cascadia, Segoe UI Emoji" font-size="20px" fill="#1e1e1e" text-anchor="start" style="white-space: pre;" direction="ltr" dominant-baseline="alphabetic">top_k: int</text></g></g><g clip-path="url(#6toV74utO1PEJx9aUPPFf)"><g transform="translate(47.29448306653444 287.3161590078121) rotate(0 99.609375 12)"><text x="0" y="19.3125" font-family="Cascadia, Segoe UI Emoji" font-size="20px" fill="#1e1e1e" text-anchor="start" style="white-space: pre;" direction="ltr" dominant-baseline="alphabetic">scale_score: bool</text></g></g><g clip-path="url(#6toV74utO1PEJx9aUPPFf)"><g transform="translate(47.29448306653444 320.3161590078121) rotate(0 128.90625 12)"><text x="0" y="19.3125" font-family="Cascadia, Segoe UI Emoji" font-size="20px" fill="#1e1e1e" text-anchor="start" style="white-space: pre;" direction="ltr" dominant-baseline="alphabetic">return_embedding: bool</text></g></g><g clip-path="url(#6toV74utO1PEJx9aUPPFf)"><g transform="translate(47.29448306653444 365.3161590078121) rotate(0 158.203125 12)"><text x="0" y="19.3125" font-family="Cascadia, Segoe UI Emoji" font-size="20px" fill="#1e1e1e" text-anchor="start" style="white-space: pre;" direction="ltr" dominant-baseline="alphabetic">+to_dict() : Dict[str, Any]</text></g></g><g clip-path="url(#6toV74utO1PEJx9aUPPFf)"><g transform="translate(47.29448306653444 398.3161590078121) rotate(0 363.28125 12)"><text x="0" y="19.3125" font-family="Cascadia, Segoe UI Emoji" font-size="20px" fill="#1e1e1e" text-anchor="start" style="white-space: pre;" direction="ltr" dominant-baseline="alphabetic">+from_dict(Dict[str, Any] data) : "InMemoryEmbeddingRetriever"</text></g></g><g clip-path="url(#6toV74utO1PEJx9aUPPFf)"><g transform="translate(47.29448306653444 431.3161590078121) rotate(0 298.828125 60)"><text x="0" y="19.3125" font-family="Cascadia, Segoe UI Emoji" font-size="20px" fill="#1e1e1e" text-anchor="start" style="white-space: pre;" direction="ltr" dominant-baseline="alphabetic">+run(query_embedding: List[float],</text><text x="0" y="43.3125" font-family="Cascadia, Segoe UI Emoji" font-size="20px" fill="#1e1e1e" text-anchor="start" style="white-space: pre;" direction="ltr" dominant-baseline="alphabetic">     filters: Optional[Dict[str, Any]],</text><text x="0" y="67.3125" font-family="Cascadia, Segoe UI Emoji" font-size="20px" fill="#1e1e1e" text-anchor="start" style="white-space: pre;" direction="ltr" dominant-baseline="alphabetic">     top_k: Optional[int],</text><text x="0" y="91.3125" font-family="Cascadia, Segoe UI Emoji" font-size="20px" fill="#1e1e1e" text-anchor="start" style="white-space: pre;" direction="ltr" dominant-baseline="alphabetic">     scale_score: Optional[bool],</text><text x="0" y="115.3125" font-family="Cascadia, Segoe UI Emoji" font-size="20px" fill="#1e1e1e" text-anchor="start" style="white-space: pre;" direction="ltr" dominant-baseline="alphabetic">     return_embedding: Optional[bool]) : OutputType</text></g></g><g clip-path="url(#6toV74utO1PEJx9aUPPFf)"><g transform="translate(97.3257940665344 23.504858007812345) rotate(0 309.375 9.599999999999909)"><text x="309.375" y="15.45" font-family="Cascadia, Segoe UI Emoji" font-size="16px" fill="#000" text-anchor="middle" style="white-space: pre;" direction="ltr" dominant-baseline="alphabetic">OutputTypes=TypedDict('OutputType', {'documents': List[Document]})</text></g></g></svg>