<svg width="848" height="397" viewBox="0 0 848 397" fill="none" xmlns="http://www.w3.org/2000/svg"><path d="M0 396.189H847.114" stroke="#EEF1F6" stroke-width="1.05143"></path><circle cx="245.889" cy="94.7467" r="91.7467" fill="#E6F8FF" stroke="#7AD1FF" stroke-width="4.0755"></circle><circle cx="688.058" cy="94.7467" r="91.7467" fill="#E6F8FF" stroke="#7AD1FF" stroke-width="4.0755"></circle><path d="M285.898 113.701V109.782C285.905 108.702 285.663 107.636 285.19 106.665C284.717 105.694 284.025 104.846 283.17 104.188C278.457 100.591 267.225 94.2129 246.921 94.2129C226.618 94.2129 215.404 100.591 210.673 104.188C209.818 104.846 209.127 105.694 208.653 106.665C208.18 107.636 207.938 108.702 207.945 109.782V113.701" stroke="#018BFF" stroke-width="4.07783" stroke-linecap="round" stroke-linejoin="round"></path><path d="M233.042 95.3186C233.703 98.5112 235.444 101.378 237.973 103.437C240.501 105.495 243.661 106.62 246.922 106.62C250.182 106.62 253.343 105.495 255.871 103.437C258.399 101.378 260.14 98.5112 260.801 95.3186" stroke="#018BFF" stroke-width="4.07783" stroke-linecap="round" stroke-linejoin="round"></path><path d="M263.164 78.2679C265.036 78.2149 266.861 77.6681 268.455 76.6828C270.048 75.6975 271.352 74.309 272.236 72.6573C273.12 71.0057 273.551 69.1501 273.487 67.2781C273.422 65.406 272.865 63.5842 271.87 61.9971C273.538 60.2373 274.654 58.027 275.079 55.6396C275.505 53.2522 275.221 50.7925 274.263 48.5649C273.305 46.3372 271.715 44.4393 269.689 43.106C267.663 41.7727 265.291 41.0624 262.867 41.0631C262.668 41.0631 262.473 41.0631 262.275 41.0631C260.721 38.3651 258.484 36.1241 255.789 34.5659C253.093 33.0076 250.035 32.1872 246.921 32.1872C243.808 32.1872 240.75 33.0076 238.054 34.5659C235.359 36.1241 233.122 38.3651 231.568 41.0631C231.37 41.0631 231.175 41.0631 230.977 41.0631C228.553 41.0638 226.183 41.7745 224.159 43.1074C222.135 44.4404 220.546 46.3372 219.588 48.5635C218.63 50.7897 218.345 53.2478 218.769 55.634C219.193 58.0202 220.307 60.2299 221.973 61.99C220.977 63.5773 220.417 65.3998 220.352 67.2728C220.287 69.1458 220.718 71.0028 221.602 72.6555C222.486 74.3082 223.791 75.6975 225.385 76.6832C226.979 77.6692 228.806 78.2156 230.679 78.2679" stroke="#018BFF" stroke-width="4.07783" stroke-linecap="round" stroke-linejoin="round"></path><path d="M261.095 60.5514C259.696 60.5516 258.329 60.1378 257.165 59.3622C256.001 58.5867 255.093 57.484 254.554 56.1932C253.771 57.5215 252.656 58.6227 251.317 59.3877C249.979 60.1527 248.463 60.5551 246.922 60.5551C245.38 60.5551 243.865 60.1527 242.526 59.3877C241.188 58.6227 240.072 57.5215 239.289 56.1932C238.902 57.1228 238.32 57.9591 237.584 58.6464C236.847 59.3336 235.972 59.8559 235.018 60.1784C234.064 60.501 233.052 60.6164 232.049 60.517C231.047 60.4176 230.077 60.1056 229.205 59.6019V71.1815C229.205 75.8802 231.072 80.3866 234.394 83.7091C237.717 87.0316 242.223 88.8979 246.922 88.8979C251.62 88.8979 256.127 87.0316 259.449 83.7091C262.772 80.3866 264.638 75.8802 264.638 71.1815V59.6019C263.562 60.2255 262.339 60.5531 261.095 60.5514Z" stroke="#018BFF" stroke-width="4.07783" stroke-linecap="round" stroke-linejoin="round"></path><path d="M727.213 113.701V102.645C727.221 101.56 726.977 100.488 726.502 99.5134C726.026 98.5384 725.332 97.6866 724.472 97.0245C719.738 93.4116 708.454 87.0043 688.058 87.0043C667.662 87.0043 656.396 93.4116 651.644 97.0245C650.785 97.6866 650.09 98.5384 649.614 99.5134C649.139 100.488 648.895 101.56 648.903 102.645V113.701" stroke="#018BFF" stroke-width="4.07783" stroke-linecap="round" stroke-linejoin="round"></path><path d="M705.336 88.7592C704.76 93.8818 702.959 98.7897 700.085 103.069C697.211 107.348 693.35 110.873 688.827 113.345C688.589 113.466 688.325 113.529 688.058 113.529C687.791 113.529 687.527 113.466 687.289 113.345C682.766 110.873 678.904 107.348 676.031 103.069C673.157 98.7897 671.356 93.8818 670.78 88.7592" stroke="#018BFF" stroke-width="4.07783" stroke-linecap="round" stroke-linejoin="round"></path><path d="M704.076 54.9684C700.734 54.9692 697.459 54.0287 694.625 52.2548C691.793 50.4807 689.517 47.9449 688.058 44.9375C686.599 47.9449 684.323 50.4807 681.491 52.2548C678.658 54.0287 675.383 54.9692 672.04 54.9684C671.446 54.9692 670.852 54.9395 670.26 54.8794V63.8673C670.26 68.5876 672.135 73.1146 675.473 76.4521C678.811 79.7899 683.338 81.6651 688.058 81.6651C692.778 81.6651 697.305 79.7899 700.643 76.4521C703.981 73.1146 705.856 68.5876 705.856 63.8673V54.8794C705.265 54.9395 704.671 54.9692 704.076 54.9684Z" stroke="#018BFF" stroke-width="4.07783" stroke-linecap="round" stroke-linejoin="round"></path><path d="M713.552 91.1654L719.738 88.0722C719.98 87.9508 720.191 87.776 720.355 87.561C720.519 87.346 720.632 87.0965 720.685 86.831C720.739 86.5658 720.73 86.292 720.662 86.0301C720.593 85.7684 720.466 85.5257 720.29 85.3206C715.564 79.8062 712.969 72.7814 712.975 65.5188V56.748C712.975 50.1396 710.35 43.8019 705.677 39.1291C701.004 34.4562 694.666 31.8311 688.058 31.8311C681.45 31.8311 675.112 34.4562 670.439 39.1291C665.766 43.8019 663.141 50.1396 663.141 56.748V65.5188C663.141 72.7806 660.541 79.803 655.812 85.3135C655.634 85.5196 655.507 85.7638 655.438 86.0269C655.37 86.2899 655.363 86.5654 655.418 86.8317C655.472 87.0983 655.587 87.3485 655.754 87.5635C655.92 87.7785 656.134 87.9526 656.378 88.0722L662.579 91.1726" stroke="#018BFF" stroke-width="4.07783" stroke-linecap="round" stroke-linejoin="round"></path><path d="M354.956 105.302C354.57 105.302 354.257 105.615 354.257 106.001C354.257 106.387 354.57 106.7 354.956 106.7V105.302ZM579.477 106.495C579.75 106.222 579.75 105.779 579.477 105.506L575.028 101.058C574.755 100.785 574.312 100.785 574.039 101.058C573.766 101.331 573.766 101.773 574.039 102.046L577.994 106.001L574.039 109.955C573.766 110.228 573.766 110.671 574.039 110.944C574.312 111.217 574.755 111.217 575.028 110.944L579.477 106.495ZM354.956 106.7L578.982 106.7L578.982 105.302L354.956 105.302V106.7Z" fill="#717780"></path><path d="M435.241 95.2508H446.74V92.7062H438.153V78.1239H435.241V95.2508Z" fill="black"></path><path d="M459.676 87.2746C459.676 84.0449 457.572 82.4056 454.342 82.4056C451.088 82.4056 448.959 84.0449 448.959 87.2746V90.6265C448.959 93.8562 451.088 95.4955 454.318 95.4955C457.572 95.4955 459.676 93.8562 459.676 90.6265V87.2746ZM456.96 90.7978C456.96 92.3882 455.932 93.1466 454.318 93.1466C452.752 93.1466 451.7 92.3882 451.7 90.7978V87.1033C451.7 85.5129 452.752 84.7545 454.342 84.7545C455.932 84.7545 456.96 85.5129 456.96 87.1033V90.7978Z" fill="black"></path><path d="M469.034 95.2508L473.634 82.6503H470.894L467.493 92.1924L464.116 82.6503H461.205L465.804 95.2508H469.034Z" fill="black"></path><path d="M483.122 91.2382C482.975 92.3392 482.241 93.1466 480.528 93.1466C478.816 93.1466 477.886 92.2413 477.886 90.7733V89.7947H485.862V87.2746C485.862 84.0449 483.758 82.4056 480.528 82.4056C477.274 82.4056 475.146 84.0449 475.146 87.2746V90.6021C475.146 93.8072 477.274 95.4955 480.528 95.4955C483.636 95.4955 485.618 94.0274 485.862 91.2382H483.122ZM477.886 87.1033C477.886 85.5129 478.938 84.7545 480.528 84.7545C482.119 84.7545 483.146 85.5129 483.146 87.1033V87.715H477.886V87.1033Z" fill="black"></path><path d="M496.506 91.7031C496.506 92.7307 495.551 93.2445 493.961 93.2445C492.346 93.2445 491.417 92.7062 491.417 91.5318V91.3605H488.701V91.6297C488.701 94.1987 490.683 95.4955 493.961 95.4955C497.24 95.4955 499.222 94.2476 499.222 91.6052C499.222 89.6723 497.827 88.4734 495.649 88.0575L493.154 87.5437C492.053 87.3235 491.612 86.8586 491.612 86.1491C491.612 85.1704 492.395 84.6566 493.986 84.6566C495.576 84.6566 496.334 85.1949 496.334 86.3448V86.5405H499.05V86.2714C499.05 83.7024 497.24 82.4056 493.986 82.4056C490.683 82.4056 488.872 83.6534 488.872 86.198C488.872 88.1798 490.267 89.3787 492.469 89.7947L494.94 90.3085C496.041 90.5042 496.506 90.9935 496.506 91.7031Z" fill="black"></path><path d="M225.866 229.097L219.933 214.282C219.941 214.47 219.957 214.784 219.982 215.224C220.014 215.656 220.047 216.174 220.08 216.778C220.12 217.373 220.153 218.005 220.178 218.674C220.202 219.343 220.214 220.003 220.214 220.656V229.097H218.245V212.251H221.119L227.151 227.127C227.142 226.891 227.114 226.458 227.065 225.83C227.016 225.194 226.971 224.428 226.93 223.531C226.89 222.633 226.869 221.683 226.869 220.68V212.251H228.839V229.097H225.866Z" fill="#ED1252"></path><path d="M238.237 215.946C239.452 215.946 240.467 216.223 241.283 216.778C242.107 217.324 242.722 218.099 243.13 219.102C243.546 220.105 243.754 221.288 243.754 222.65C243.754 223.963 243.542 225.125 243.118 226.136C242.694 227.148 242.07 227.943 241.246 228.522C240.431 229.093 239.419 229.378 238.212 229.378C237.005 229.378 235.99 229.101 235.166 228.546C234.342 227.992 233.719 227.213 233.294 226.21C232.879 225.198 232.671 224.02 232.671 222.674C232.671 221.345 232.883 220.175 233.307 219.163C233.731 218.152 234.355 217.365 235.178 216.802C236.01 216.231 237.03 215.946 238.237 215.946ZM238.237 217.622C237.128 217.622 236.288 218.034 235.717 218.857C235.154 219.673 234.873 220.945 234.873 222.674C234.873 224.371 235.15 225.631 235.704 226.454C236.267 227.278 237.103 227.69 238.212 227.69C239.322 227.69 240.153 227.278 240.708 226.454C241.271 225.631 241.552 224.362 241.552 222.65C241.552 220.937 241.275 219.673 240.72 218.857C240.166 218.034 239.338 217.622 238.237 217.622Z" fill="#ED1252"></path><path d="M255.709 210.771L257.764 211.028V229.097H255.966L255.77 227.396C255.289 228.081 254.734 228.583 254.106 228.901C253.487 229.219 252.822 229.378 252.112 229.378C250.995 229.378 250.073 229.097 249.348 228.534C248.622 227.971 248.083 227.188 247.733 226.185C247.382 225.174 247.207 224.004 247.207 222.674C247.207 221.386 247.406 220.236 247.806 219.224C248.206 218.205 248.781 217.406 249.531 216.827C250.289 216.239 251.199 215.946 252.259 215.946C253.001 215.946 253.654 216.076 254.216 216.337C254.779 216.59 255.277 216.965 255.709 217.463V210.771ZM252.797 217.597C251.721 217.597 250.893 218.017 250.314 218.857C249.735 219.697 249.445 220.97 249.445 222.674C249.445 223.783 249.564 224.713 249.8 225.463C250.037 226.214 250.383 226.777 250.84 227.152C251.305 227.527 251.872 227.714 252.54 227.714C253.274 227.714 253.898 227.506 254.412 227.091C254.934 226.675 255.366 226.206 255.709 225.684V219.249C255.358 218.727 254.934 218.323 254.437 218.038C253.939 217.744 253.393 217.597 252.797 217.597Z" fill="#ED1252"></path><path d="M264.287 223.384C264.328 224.379 264.52 225.194 264.862 225.83C265.205 226.458 265.657 226.923 266.22 227.225C266.783 227.519 267.395 227.666 268.055 227.666C268.716 227.666 269.311 227.568 269.841 227.372C270.38 227.176 270.93 226.887 271.493 226.503L272.459 227.861C271.856 228.334 271.167 228.705 270.392 228.974C269.625 229.244 268.838 229.378 268.031 229.378C266.783 229.378 265.719 229.097 264.838 228.534C263.957 227.971 263.284 227.188 262.819 226.185C262.363 225.174 262.134 224.004 262.134 222.674C262.134 221.369 262.367 220.211 262.831 219.2C263.296 218.189 263.949 217.393 264.789 216.814C265.629 216.235 266.62 215.946 267.762 215.946C268.846 215.946 269.78 216.203 270.563 216.717C271.346 217.222 271.945 217.948 272.361 218.894C272.785 219.832 272.998 220.953 272.998 222.258C272.998 222.479 272.993 222.686 272.985 222.882C272.977 223.07 272.965 223.237 272.949 223.384H264.287ZM267.786 217.634C266.832 217.634 266.033 217.973 265.388 218.649C264.752 219.326 264.389 220.374 264.3 221.793H271.016C270.991 220.415 270.689 219.379 270.11 218.686C269.531 217.985 268.757 217.634 267.786 217.634Z" fill="#ED1252"></path><path d="M238.316 143.952C238.316 139.939 235.698 137.81 231.612 137.81H225.104V154.937H231.563C235.698 154.937 238.316 152.809 238.316 148.796V143.952ZM235.405 148.796C235.405 151.145 233.937 152.393 231.563 152.393H228.016V140.33H231.612C233.937 140.33 235.405 141.603 235.405 143.952V148.796Z" fill="#044092"></path><path d="M241.059 151.292C241.059 153.91 242.821 155.182 245.561 155.182C247.225 155.182 248.546 154.668 249.329 153.689L249.696 154.937H251.776V146.667C251.776 143.634 249.794 142.092 246.711 142.092C243.457 142.092 241.671 143.487 241.671 146.227H244.387C244.387 144.881 245.121 144.319 246.711 144.319C248.155 144.319 249.06 145.102 249.06 146.521V148.527C248.252 147.793 247.054 147.426 245.586 147.426C242.821 147.426 241.059 148.698 241.059 151.292ZM243.775 151.218C243.775 150.068 244.778 149.579 246.368 149.579C247.983 149.579 249.06 150.142 249.06 151.218C249.06 152.295 247.983 152.833 246.368 152.833C244.778 152.833 243.775 152.344 243.775 151.218Z" fill="#044092"></path><path d="M255.352 154.937H258.068V146.79C258.068 145.199 259.169 144.441 260.759 144.441C262.35 144.441 263.353 145.15 263.353 146.716V154.937H266.069V146.912C266.069 143.682 264.258 142.092 261.469 142.092C259.903 142.092 258.631 142.606 257.799 143.609L257.432 142.337H255.352V154.937Z" fill="#044092"></path><path d="M675.534 137.81H671.987L666.017 154.937H668.904L670.249 150.925H677.002L678.348 154.937H681.504L675.534 137.81ZM673.626 140.893L676.219 148.405H671.032L673.626 140.893Z" fill="#044092"></path><path d="M683.579 154.937H686.295V146.79C686.295 145.199 687.396 144.441 688.987 144.441C690.577 144.441 691.58 145.15 691.58 146.716V154.937H694.296V146.912C694.296 143.682 692.485 142.092 689.696 142.092C688.13 142.092 686.858 142.606 686.026 143.609L685.659 142.337H683.579V154.937Z" fill="#044092"></path><path d="M697.879 154.937H700.595V146.79C700.595 145.199 701.696 144.441 703.286 144.441C704.877 144.441 705.88 145.15 705.88 146.716V154.937H708.596V146.912C708.596 143.682 706.785 142.092 703.996 142.092C702.43 142.092 701.158 142.606 700.326 143.609L699.959 142.337H697.879V154.937Z" fill="#044092"></path><path d="M116.11 361.162H125.59V359.652H117.851V346.482H116.11V361.162Z" fill="#00BA88"></path><path d="M133.978 346.482H131.86L126.428 361.162H128.148L129.532 357.387H136.138L137.522 361.162H139.389L133.978 346.482ZM132.825 348.327L135.656 355.877H129.993L132.825 348.327Z" fill="#00BA88"></path><path d="M141.28 361.162H147.802C150.402 361.162 151.912 359.841 151.912 357.282C151.912 355.458 151.136 354.241 149.752 353.717C150.927 353.109 151.598 351.997 151.598 350.341C151.598 347.782 150.067 346.482 147.487 346.482H141.28V361.162ZM143.02 354.556H147.529C149.27 354.556 150.13 355.458 150.13 357.115C150.13 358.771 149.249 359.652 147.508 359.652H143.02V354.556ZM143.02 347.992H147.215C148.934 347.992 149.815 348.873 149.815 350.508C149.815 352.165 148.955 353.046 147.194 353.046H143.02V347.992Z" fill="#00BA88"></path><path d="M154.643 361.162H164.122V359.652H156.383V354.556H163.073V353.046H156.383V347.992H164.122V346.482H154.643V361.162Z" fill="#00BA88"></path><path d="M166.838 361.162H176.317V359.652H168.579V346.482H166.838V361.162Z" fill="#00BA88"></path><path d="M585.78 362.56V348.121H587.605V360.935H594.19L593.98 362.56H585.78Z" fill="#00BA88"></path><path d="M604.605 358.879H598.89L597.736 362.56H595.943L600.641 348.121H602.969L607.667 362.56H605.758L604.605 358.879ZM599.362 357.369H604.133L601.763 349.652L599.362 357.369Z" fill="#00BA88"></path><path d="M617.484 358.502C617.484 357.775 617.34 357.216 617.054 356.824C616.774 356.426 616.4 356.15 615.932 355.996C615.463 355.842 614.949 355.765 614.39 355.765H611.926V361.061H614.306C614.663 361.061 615.026 361.026 615.397 360.956C615.767 360.886 616.11 360.76 616.425 360.578C616.746 360.396 617.001 360.141 617.19 359.813C617.386 359.477 617.484 359.04 617.484 358.502ZM616.907 351.854C616.907 351.036 616.652 350.456 616.141 350.113C615.638 349.764 614.949 349.589 614.076 349.589H611.926V354.266H614.254C615.107 354.266 615.76 354.077 616.215 353.699C616.676 353.315 616.907 352.7 616.907 351.854ZM619.402 358.439C619.402 359.222 619.245 359.879 618.931 360.41C618.623 360.942 618.207 361.365 617.683 361.679C617.166 361.994 616.585 362.221 615.942 362.361C615.306 362.494 614.656 362.56 613.992 362.56H610.112V348.121H613.667C614.303 348.121 614.922 348.18 615.523 348.299C616.131 348.411 616.676 348.607 617.159 348.886C617.648 349.159 618.039 349.53 618.333 349.998C618.627 350.466 618.773 351.054 618.773 351.76C618.773 352.382 618.644 352.91 618.385 353.343C618.134 353.769 617.802 354.112 617.389 354.371C616.984 354.629 616.55 354.811 616.089 354.916C616.627 355 617.148 355.164 617.651 355.409C618.162 355.646 618.581 356.01 618.91 356.499C619.238 356.982 619.402 357.628 619.402 358.439Z" fill="#00BA88"></path><path d="M625.12 349.61V354.475H630.467V355.975H625.12V361.102H631.684V362.56H623.295V348.121H631.495L631.285 349.61H625.12Z" fill="#00BA88"></path><path d="M636.08 362.56V348.121H637.904V360.935H644.489L644.28 362.56H636.08Z" fill="#00BA88"></path><path d="M240.696 352.578C240.696 351.83 240.549 351.239 240.256 350.806C239.962 350.365 239.56 350.051 239.05 349.862C238.539 349.666 237.956 349.568 237.299 349.568H235.212V355.734H237.225C237.903 355.734 238.501 355.643 239.018 355.461C239.536 355.273 239.945 354.951 240.245 354.497C240.546 354.035 240.696 353.396 240.696 352.578ZM242.646 352.557C242.646 353.682 242.405 354.584 241.923 355.262C241.448 355.94 240.79 356.433 239.952 356.741C239.113 357.048 238.148 357.202 237.057 357.202H235.212V362.56H233.387V348.121H237.078C238.798 348.121 240.154 348.485 241.147 349.212C242.147 349.932 242.646 351.047 242.646 352.557Z" fill="#00BA88"></path><path d="M254.812 352.169C254.812 352.889 254.655 353.518 254.34 354.056C254.033 354.594 253.613 355.038 253.082 355.388C252.551 355.737 251.953 355.993 251.289 356.153L255.567 362.56H253.386L249.444 356.363H247.493V362.56H245.669V348.121H249.381C251.163 348.121 252.512 348.464 253.428 349.149C254.351 349.827 254.812 350.834 254.812 352.169ZM252.862 352.169C252.862 351.239 252.596 350.575 252.065 350.176C251.534 349.771 250.709 349.568 249.59 349.568H247.493V354.937H249.59C250.625 354.937 251.429 354.727 252.002 354.308C252.575 353.881 252.862 353.168 252.862 352.169Z" fill="#00BA88"></path><path d="M267.723 355.356C267.723 356.81 267.523 358.1 267.125 359.226C266.734 360.344 266.143 361.222 265.353 361.858C264.563 362.487 263.581 362.801 262.406 362.801C261.239 362.801 260.257 362.494 259.46 361.879C258.67 361.256 258.076 360.39 257.677 359.278C257.286 358.167 257.09 356.866 257.09 355.377C257.09 353.916 257.286 352.623 257.677 351.498C258.076 350.372 258.67 349.491 259.46 348.855C260.257 348.212 261.239 347.891 262.406 347.891C263.581 347.891 264.563 348.202 265.353 348.824C266.143 349.446 266.734 350.316 267.125 351.435C267.523 352.553 267.723 353.86 267.723 355.356ZM265.814 355.356C265.814 353.434 265.549 351.963 265.017 350.942C264.493 349.921 263.623 349.411 262.406 349.411C261.19 349.411 260.316 349.925 259.785 350.952C259.261 351.98 258.998 353.455 258.998 355.377C258.998 357.3 259.271 358.764 259.816 359.771C260.362 360.771 261.225 361.27 262.406 361.27C263.623 361.27 264.493 360.767 265.017 359.761C265.549 358.747 265.814 357.279 265.814 355.356Z" fill="#00BA88"></path><path d="M278.421 352.578C278.421 351.83 278.274 351.239 277.98 350.806C277.687 350.365 277.285 350.051 276.774 349.862C276.264 349.666 275.68 349.568 275.023 349.568H272.936V355.734H274.95C275.628 355.734 276.226 355.643 276.743 355.461C277.26 355.273 277.669 354.951 277.97 354.497C278.27 354.035 278.421 353.396 278.421 352.578ZM280.371 352.557C280.371 353.682 280.13 354.584 279.647 355.262C279.172 355.94 278.515 356.433 277.676 356.741C276.837 357.048 275.873 357.202 274.782 357.202H272.936V362.56H271.112V348.121H274.803C276.523 348.121 277.879 348.485 278.871 349.212C279.871 349.932 280.371 351.047 280.371 352.557Z" fill="#00BA88"></path><path d="M285.721 349.61V354.476H291.069V355.975H285.721V361.103H292.285V362.56H283.896V348.121H292.096L291.887 349.61H285.721Z" fill="#00BA88"></path><path d="M305.112 352.169C305.112 352.889 304.954 353.518 304.64 354.056C304.332 354.594 303.913 355.038 303.381 355.388C302.85 355.737 302.252 355.993 301.588 356.153L305.867 362.56H303.686L299.743 356.363H297.793V362.56H295.968V348.121H299.68C301.463 348.121 302.812 348.464 303.728 349.149C304.65 349.827 305.112 350.834 305.112 352.169ZM303.161 352.169C303.161 351.239 302.896 350.575 302.364 350.176C301.833 349.771 301.008 349.568 299.89 349.568H297.793V354.937H299.89C300.924 354.937 301.728 354.727 302.301 354.308C302.875 353.881 303.161 353.168 303.161 352.169Z" fill="#00BA88"></path><path d="M313.576 349.684V362.56H311.762V349.684H307.253V348.121H318.148L317.959 349.684H313.576Z" fill="#00BA88"></path><path d="M326.203 356.992V362.56H324.358V357.013L319.482 348.121H321.495L325.322 355.356L329.192 348.121H331.079L326.203 356.992Z" fill="#00BA88"></path><path d="M709.732 352.578C709.732 351.83 709.585 351.239 709.292 350.806C708.998 350.365 708.596 350.051 708.086 349.862C707.576 349.666 706.992 349.568 706.335 349.568H704.248V355.734H706.261C706.939 355.734 707.537 355.643 708.054 355.461C708.572 355.273 708.981 354.951 709.281 354.497C709.582 354.035 709.732 353.396 709.732 352.578ZM711.683 352.557C711.683 353.682 711.441 354.584 710.959 355.262C710.484 355.94 709.827 356.433 708.988 356.741C708.149 357.048 707.184 357.202 706.094 357.202H704.248V362.56H702.424V348.121H706.115C707.834 348.121 709.19 348.485 710.183 349.212C711.183 349.932 711.683 351.047 711.683 352.557Z" fill="#00BA88"></path><path d="M723.848 352.169C723.848 352.889 723.691 353.518 723.377 354.056C723.069 354.594 722.65 355.038 722.118 355.388C721.587 355.737 720.989 355.993 720.325 356.153L724.603 362.56H722.422L718.48 356.363H716.529V362.56H714.705V348.121H718.417C720.199 348.121 721.549 348.464 722.464 349.149C723.387 349.827 723.848 350.834 723.848 352.169ZM721.898 352.169C721.898 351.239 721.632 350.575 721.101 350.176C720.57 349.771 719.745 349.568 718.627 349.568H716.529V354.937H718.627C719.661 354.937 720.465 354.727 721.038 354.308C721.611 353.881 721.898 353.168 721.898 352.169Z" fill="#00BA88"></path><path d="M736.759 355.356C736.759 356.81 736.56 358.1 736.161 359.226C735.77 360.344 735.179 361.222 734.389 361.858C733.599 362.487 732.617 362.801 731.443 362.801C730.275 362.801 729.293 362.494 728.496 361.879C727.706 361.256 727.112 360.39 726.713 359.278C726.322 358.167 726.126 356.866 726.126 355.377C726.126 353.916 726.322 352.623 726.713 351.498C727.112 350.372 727.706 349.491 728.496 348.855C729.293 348.212 730.275 347.891 731.443 347.891C732.617 347.891 733.599 348.202 734.389 348.824C735.179 349.446 735.77 350.316 736.161 351.435C736.56 352.553 736.759 353.86 736.759 355.356ZM734.85 355.356C734.85 353.434 734.585 351.963 734.053 350.942C733.529 349.921 732.659 349.411 731.443 349.411C730.226 349.411 729.352 349.925 728.821 350.952C728.297 351.98 728.035 353.455 728.035 355.377C728.035 357.3 728.307 358.764 728.853 359.771C729.398 360.771 730.261 361.27 731.443 361.27C732.659 361.27 733.529 360.767 734.053 359.761C734.585 358.747 734.85 357.279 734.85 355.356Z" fill="#00BA88"></path><path d="M747.457 352.578C747.457 351.83 747.31 351.239 747.016 350.806C746.723 350.365 746.321 350.051 745.81 349.862C745.3 349.666 744.716 349.568 744.059 349.568H741.973V355.734H743.986C744.664 355.734 745.262 355.643 745.779 355.461C746.296 355.273 746.705 354.951 747.006 354.497C747.306 354.035 747.457 353.396 747.457 352.578ZM749.407 352.557C749.407 353.682 749.166 354.584 748.684 355.262C748.208 355.94 747.551 356.433 746.712 356.741C745.873 357.048 744.909 357.202 743.818 357.202H741.973V362.56H740.148V348.121H743.839C745.559 348.121 746.915 348.485 747.908 349.212C748.907 349.932 749.407 351.047 749.407 352.557Z" fill="#00BA88"></path><path d="M754.757 349.61V354.476H760.105V355.975H754.757V361.103H761.321V362.56H752.933V348.121H761.133L760.923 349.61H754.757Z" fill="#00BA88"></path><path d="M774.148 352.169C774.148 352.889 773.99 353.518 773.676 354.056C773.368 354.594 772.949 355.038 772.418 355.388C771.886 355.737 771.289 355.993 770.625 356.153L774.903 362.56H772.722L768.779 356.363H766.829V362.56H765.004V348.121H768.716C770.499 348.121 771.848 348.464 772.764 349.149C773.686 349.827 774.148 350.834 774.148 352.169ZM772.197 352.169C772.197 351.239 771.932 350.575 771.4 350.176C770.869 349.771 770.044 349.568 768.926 349.568H766.829V354.937H768.926C769.96 354.937 770.764 354.727 771.338 354.308C771.911 353.881 772.197 353.168 772.197 352.169Z" fill="#00BA88"></path><path d="M782.612 349.684V362.56H780.798V349.684H776.289V348.121H787.184L786.995 349.684H782.612Z" fill="#00BA88"></path><path d="M795.239 356.992V362.56H793.394V357.013L788.518 348.121H790.531L794.359 355.356L798.228 348.121H800.115L795.239 356.992Z" fill="#00BA88"></path><path d="M668.024 229.097L662.091 214.282C662.099 214.47 662.115 214.784 662.139 215.224C662.172 215.656 662.205 216.174 662.237 216.778C662.278 217.373 662.311 218.005 662.335 218.674C662.36 219.343 662.372 220.003 662.372 220.656V229.097H660.402V212.251H663.277L669.308 227.127C669.3 226.891 669.272 226.458 669.223 225.83C669.174 225.194 669.129 224.428 669.088 223.531C669.047 222.633 669.027 221.683 669.027 220.68V212.251H670.997V229.097H668.024Z" fill="#ED1252"></path><path d="M680.395 215.946C681.61 215.946 682.625 216.223 683.441 216.778C684.264 217.324 684.88 218.099 685.288 219.102C685.704 220.105 685.912 221.288 685.912 222.65C685.912 223.963 685.7 225.125 685.276 226.136C684.852 227.148 684.228 227.943 683.404 228.522C682.588 229.093 681.577 229.378 680.37 229.378C679.163 229.378 678.148 229.101 677.324 228.546C676.5 227.992 675.876 227.213 675.452 226.21C675.036 225.198 674.828 224.02 674.828 222.674C674.828 221.345 675.04 220.175 675.464 219.163C675.889 218.152 676.512 217.365 677.336 216.802C678.168 216.231 679.188 215.946 680.395 215.946ZM680.395 217.622C679.285 217.622 678.445 218.034 677.874 218.857C677.312 219.673 677.03 220.945 677.03 222.674C677.03 224.371 677.308 225.631 677.862 226.454C678.425 227.278 679.261 227.69 680.37 227.69C681.479 227.69 682.311 227.278 682.866 226.454C683.428 225.631 683.71 224.362 683.71 222.65C683.71 220.937 683.433 219.673 682.878 218.857C682.323 218.034 681.496 217.622 680.395 217.622Z" fill="#ED1252"></path><path d="M697.867 210.771L699.922 211.028V229.097H698.124L697.928 227.396C697.447 228.081 696.892 228.583 696.264 228.901C695.644 229.219 694.98 229.378 694.27 229.378C693.153 229.378 692.231 229.097 691.505 228.534C690.779 227.971 690.241 227.188 689.89 226.185C689.54 225.174 689.364 224.004 689.364 222.674C689.364 221.386 689.564 220.236 689.964 219.224C690.363 218.205 690.938 217.406 691.689 216.827C692.447 216.239 693.357 215.946 694.417 215.946C695.159 215.946 695.811 216.076 696.374 216.337C696.937 216.59 697.434 216.965 697.867 217.463V210.771ZM694.955 217.597C693.879 217.597 693.051 218.017 692.472 218.857C691.893 219.697 691.603 220.97 691.603 222.674C691.603 223.783 691.721 224.713 691.958 225.463C692.194 226.214 692.541 226.777 692.998 227.152C693.463 227.527 694.029 227.714 694.698 227.714C695.432 227.714 696.056 227.506 696.57 227.091C697.092 226.675 697.524 226.206 697.867 225.684V219.249C697.516 218.727 697.092 218.323 696.594 218.038C696.097 217.744 695.55 217.597 694.955 217.597Z" fill="#ED1252"></path><path d="M706.445 223.384C706.486 224.379 706.677 225.194 707.02 225.83C707.363 226.458 707.815 226.923 708.378 227.225C708.941 227.519 709.552 227.666 710.213 227.666C710.874 227.666 711.469 227.568 711.999 227.372C712.537 227.176 713.088 226.887 713.651 226.503L714.617 227.861C714.013 228.334 713.324 228.705 712.549 228.974C711.783 229.244 710.996 229.378 710.188 229.378C708.941 229.378 707.876 229.097 706.995 228.534C706.115 227.971 705.442 227.188 704.977 226.185C704.52 225.174 704.292 224.004 704.292 222.674C704.292 221.369 704.524 220.211 704.989 219.2C705.454 218.189 706.107 217.393 706.947 216.814C707.787 216.235 708.778 215.946 709.919 215.946C711.004 215.946 711.938 216.203 712.721 216.717C713.504 217.222 714.103 217.948 714.519 218.894C714.943 219.832 715.155 220.953 715.155 222.258C715.155 222.479 715.151 222.686 715.143 222.882C715.135 223.07 715.123 223.237 715.106 223.384H706.445ZM709.944 217.634C708.99 217.634 708.19 217.973 707.546 218.649C706.91 219.326 706.547 220.374 706.457 221.793H713.173C713.149 220.415 712.847 219.379 712.268 218.686C711.689 217.985 710.914 217.634 709.944 217.634Z" fill="#ED1252"></path><path d="M12.2335 278.129L13.1877 294.974H11.1447L10.6187 286.178C10.5942 285.583 10.5697 284.98 10.5453 284.368C10.5208 283.756 10.5045 283.169 10.4963 282.606C10.4882 282.044 10.4841 281.542 10.4841 281.102C10.4841 280.661 10.4841 280.319 10.4841 280.074L7.64593 291.953H5.5173L2.47116 280.074C2.47932 280.31 2.48748 280.661 2.49563 281.126C2.50379 281.583 2.50787 282.101 2.50787 282.68C2.51602 283.259 2.51194 283.854 2.49563 284.466C2.48748 285.069 2.47116 285.632 2.4467 286.154L1.99406 294.974H0L0.954212 278.129H3.91472L6.64278 289.665L9.24852 278.129H12.2335Z" fill="#018BFF"></path><path d="M24.5308 290.68H17.8636L16.5179 294.974H14.426L19.9066 278.129H22.6224L28.103 294.974H25.8765L24.5308 290.68ZM18.4141 288.919H23.9803L21.2155 279.915L18.4141 288.919Z" fill="#018BFF"></path><path d="M36.9505 279.952V294.974H34.8341V279.952H29.5737V278.129H42.2843L42.0641 279.952H36.9505Z" fill="#018BFF"></path><path d="M52.0248 277.86C53.1258 277.86 54.0474 277.998 54.7896 278.276C55.5318 278.553 56.2372 278.961 56.906 279.499L55.7193 280.881C55.1892 280.433 54.6265 280.115 54.0311 279.927C53.4439 279.731 52.8282 279.634 52.1839 279.634C51.2623 279.634 50.41 279.854 49.6271 280.294C48.8441 280.726 48.2121 281.448 47.7309 282.459C47.2578 283.463 47.0213 284.825 47.0213 286.545C47.0213 288.217 47.2456 289.559 47.6942 290.57C48.1509 291.582 48.7666 292.311 49.5414 292.76C50.3162 293.209 51.1807 293.433 52.1349 293.433C53.081 293.433 53.8558 293.29 54.4593 293.005C55.071 292.719 55.6011 292.393 56.0496 292.026L57.1507 293.421C56.6369 293.918 55.9681 294.35 55.1444 294.717C54.3206 295.076 53.3093 295.256 52.1105 295.256C50.7485 295.256 49.5129 294.921 48.4037 294.253C47.3027 293.584 46.43 292.605 45.7857 291.317C45.1414 290.02 44.8193 288.429 44.8193 286.545C44.8193 284.653 45.1455 283.063 45.798 281.774C46.4586 280.486 47.3353 279.511 48.4282 278.851C49.5292 278.19 50.7281 277.86 52.0248 277.86Z" fill="#018BFF"></path><path d="M68.4571 294.974V286.986H62.0957V294.974H59.9793V278.129H62.0957V285.249H68.4571V278.129H70.5735V294.974H68.4571Z" fill="#018BFF"></path><path d="M77.8061 286.411C77.8061 287.683 77.9162 288.825 78.1364 289.836C78.3567 290.839 78.6829 291.761 79.1151 292.601C79.5474 293.433 80.0897 294.224 80.7422 294.974C81.4028 295.733 82.1694 296.499 83.0421 297.274L81.9655 298.4C80.6443 297.315 79.5107 296.206 78.5646 295.072C77.6267 293.939 76.9049 292.674 76.3993 291.28C75.9018 289.885 75.653 288.262 75.653 286.411C75.653 284.551 75.9018 282.924 76.3993 281.53C76.9049 280.135 77.6267 278.871 78.5646 277.737C79.5107 276.604 80.6443 275.499 81.9655 274.422L83.0421 275.548C82.1613 276.33 81.3905 277.101 80.7299 277.86C80.0775 278.61 79.5351 279.401 79.1029 280.233C78.6706 281.057 78.3444 281.974 78.1242 282.986C77.9122 283.989 77.8061 285.13 77.8061 286.411Z" fill="#018BFF"></path><path d="M92.6236 291.304C92.6236 290.774 92.8111 290.313 93.1863 289.922C93.5696 289.53 94.0386 289.335 94.5932 289.335C95.164 289.335 95.6371 289.53 96.0122 289.922C96.3956 290.313 96.5872 290.774 96.5872 291.304C96.5872 291.859 96.3956 292.332 96.0122 292.723C95.6371 293.107 95.164 293.298 94.5932 293.298C94.0386 293.298 93.5696 293.107 93.1863 292.723C92.8111 292.332 92.6236 291.859 92.6236 291.304ZM92.6236 282.484C92.6236 282.109 92.7092 281.774 92.8805 281.481C93.0517 281.187 93.2882 280.955 93.59 280.783C93.8918 280.604 94.2262 280.514 94.5932 280.514C95.164 280.514 95.6371 280.706 96.0122 281.089C96.3956 281.473 96.5872 281.937 96.5872 282.484C96.5872 283.022 96.3956 283.491 96.0122 283.891C95.6371 284.282 95.164 284.478 94.5932 284.478C94.0386 284.478 93.5696 284.282 93.1863 283.891C92.8111 283.491 92.6236 283.022 92.6236 282.484Z" fill="#018BFF"></path><path d="M113.301 283.328C113.301 282.455 113.13 281.766 112.787 281.261C112.444 280.747 111.976 280.38 111.38 280.16C110.785 279.931 110.104 279.817 109.337 279.817H106.903V287.01H109.252C110.043 287.01 110.74 286.904 111.343 286.692C111.947 286.472 112.424 286.097 112.775 285.567C113.125 285.028 113.301 284.282 113.301 283.328ZM115.576 283.304C115.576 284.617 115.295 285.669 114.732 286.46C114.178 287.251 113.411 287.826 112.432 288.185C111.454 288.544 110.328 288.723 109.056 288.723H106.903V294.974H104.774V278.129H109.08C111.087 278.129 112.669 278.553 113.827 279.401C114.993 280.241 115.576 281.542 115.576 283.304Z" fill="#018BFF"></path><path d="M120.693 289.261C120.733 290.256 120.925 291.072 121.268 291.708C121.61 292.336 122.063 292.801 122.625 293.103C123.188 293.396 123.8 293.543 124.46 293.543C125.121 293.543 125.716 293.445 126.247 293.249C126.785 293.054 127.335 292.764 127.898 292.381L128.865 293.739C128.261 294.212 127.572 294.583 126.797 294.852C126.03 295.121 125.243 295.256 124.436 295.256C123.188 295.256 122.124 294.974 121.243 294.412C120.362 293.849 119.689 293.066 119.225 292.063C118.768 291.051 118.539 289.881 118.539 288.552C118.539 287.247 118.772 286.089 119.237 285.077C119.702 284.066 120.354 283.271 121.194 282.692C122.034 282.113 123.025 281.823 124.167 281.823C125.252 281.823 126.185 282.08 126.968 282.594C127.751 283.1 128.351 283.826 128.767 284.772C129.191 285.709 129.403 286.831 129.403 288.136C129.403 288.356 129.399 288.564 129.391 288.76C129.382 288.947 129.37 289.114 129.354 289.261H120.693ZM124.191 283.512C123.237 283.512 122.438 283.85 121.794 284.527C121.157 285.204 120.794 286.252 120.705 287.671H127.421C127.396 286.293 127.095 285.257 126.516 284.564C125.937 283.862 125.162 283.512 124.191 283.512Z" fill="#018BFF"></path><path d="M133.871 294.974V293.396H135.877V283.671H133.871V282.092H137.443L137.822 285.139C138.32 284.078 138.923 283.259 139.633 282.68C140.342 282.101 141.28 281.811 142.446 281.811C142.805 281.811 143.123 281.84 143.401 281.897C143.686 281.946 143.976 282.011 144.269 282.092L143.67 283.927C143.401 283.854 143.156 283.801 142.936 283.768C142.715 283.728 142.463 283.707 142.177 283.707C141.19 283.707 140.342 284.058 139.633 284.759C138.923 285.461 138.356 286.521 137.932 287.94V293.396H140.55V294.974H133.871ZM142.287 286.448V283.646L142.495 282.092H144.269L143.976 286.448H142.287Z" fill="#018BFF"></path><path d="M152.799 293.555C153.785 293.555 154.564 293.372 155.135 293.005C155.714 292.63 156.004 292.132 156.004 291.512C156.004 291.121 155.93 290.782 155.784 290.497C155.645 290.211 155.355 289.955 154.915 289.726C154.475 289.498 153.798 289.269 152.884 289.041C151.995 288.821 151.22 288.568 150.56 288.283C149.907 287.989 149.398 287.61 149.031 287.145C148.672 286.68 148.492 286.076 148.492 285.334C148.492 284.608 148.696 283.985 149.104 283.463C149.52 282.932 150.095 282.529 150.829 282.251C151.563 281.966 152.415 281.823 153.386 281.823C154.422 281.823 155.323 281.962 156.089 282.239C156.864 282.508 157.521 282.843 158.059 283.242L157.154 284.637C156.664 284.303 156.126 284.029 155.539 283.817C154.952 283.597 154.242 283.487 153.41 283.487C152.399 283.487 151.681 283.646 151.257 283.964C150.833 284.274 150.621 284.678 150.621 285.175C150.621 285.55 150.723 285.864 150.927 286.117C151.139 286.362 151.494 286.586 151.991 286.79C152.489 286.986 153.174 287.202 154.046 287.438C154.886 287.659 155.616 287.924 156.236 288.234C156.864 288.544 157.354 288.951 157.704 289.457C158.055 289.963 158.23 290.615 158.23 291.414C158.23 292.328 157.969 293.07 157.447 293.641C156.925 294.204 156.248 294.615 155.417 294.876C154.593 295.129 153.72 295.256 152.799 295.256C151.632 295.256 150.637 295.088 149.814 294.754C148.998 294.412 148.313 294 147.758 293.519L148.933 292.161C149.438 292.577 150.017 292.915 150.67 293.176C151.331 293.429 152.04 293.555 152.799 293.555Z" fill="#018BFF"></path><path d="M167.995 281.823C169.21 281.823 170.226 282.101 171.041 282.655C171.865 283.202 172.481 283.976 172.889 284.98C173.305 285.983 173.513 287.165 173.513 288.527C173.513 289.84 173.3 291.003 172.876 292.014C172.452 293.025 171.828 293.82 171.005 294.399C170.189 294.97 169.178 295.256 167.971 295.256C166.764 295.256 165.748 294.978 164.925 294.424C164.101 293.869 163.477 293.09 163.053 292.087C162.637 291.076 162.429 289.897 162.429 288.552C162.429 287.222 162.641 286.052 163.065 285.041C163.489 284.029 164.113 283.242 164.937 282.68C165.769 282.109 166.788 281.823 167.995 281.823ZM167.995 283.499C166.886 283.499 166.046 283.911 165.475 284.735C164.912 285.55 164.631 286.823 164.631 288.552C164.631 290.248 164.908 291.508 165.463 292.332C166.026 293.156 166.862 293.567 167.971 293.567C169.08 293.567 169.912 293.156 170.466 292.332C171.029 291.508 171.311 290.24 171.311 288.527C171.311 286.815 171.033 285.55 170.479 284.735C169.924 283.911 169.096 283.499 167.995 283.499Z" fill="#018BFF"></path><path d="M177.76 294.974V282.092H179.51L179.669 283.879C180.191 283.218 180.843 282.712 181.626 282.362C182.417 282.003 183.184 281.823 183.926 281.823C185.19 281.823 186.108 282.158 186.678 282.826C187.257 283.495 187.547 284.425 187.547 285.616V294.974H185.492V287.133C185.492 286.252 185.443 285.542 185.345 285.004C185.247 284.458 185.043 284.062 184.733 283.817C184.423 283.565 183.942 283.438 183.29 283.438C182.784 283.438 182.307 283.548 181.858 283.768C181.418 283.989 181.022 284.266 180.672 284.6C180.329 284.927 180.044 285.257 179.815 285.591V294.974H177.76Z" fill="#018BFF"></path><path d="M201.019 274.532V276.147C200.423 276.147 199.881 276.208 199.392 276.33C198.911 276.445 198.535 276.644 198.266 276.93C198.005 277.215 197.895 277.607 197.936 278.104L198.45 283.12C198.523 283.805 198.482 284.372 198.327 284.821C198.172 285.269 197.911 285.62 197.544 285.873C197.186 286.125 196.725 286.305 196.162 286.411C196.733 286.509 197.202 286.68 197.569 286.925C197.936 287.161 198.193 287.504 198.34 287.952C198.486 288.393 198.523 288.976 198.45 289.702L197.936 294.717C197.895 295.223 198.005 295.619 198.266 295.904C198.527 296.19 198.902 296.389 199.392 296.504C199.881 296.618 200.423 296.675 201.019 296.675V298.29C200.334 298.29 199.677 298.228 199.049 298.106C198.421 297.992 197.867 297.792 197.385 297.507C196.904 297.221 196.541 296.83 196.297 296.332C196.052 295.843 195.97 295.223 196.052 294.473L196.541 289.824C196.607 289.261 196.554 288.788 196.382 288.405C196.219 288.022 195.86 287.732 195.306 287.536C194.759 287.332 193.94 287.231 192.847 287.231V285.591C193.94 285.591 194.759 285.493 195.306 285.298C195.86 285.102 196.219 284.812 196.382 284.429C196.554 284.046 196.607 283.577 196.541 283.022L196.052 278.349C195.97 277.599 196.052 276.979 196.297 276.49C196.541 275.992 196.9 275.601 197.373 275.315C197.854 275.03 198.409 274.83 199.037 274.716C199.673 274.593 200.334 274.532 201.019 274.532Z" fill="#018BFF"></path><path d="M207.101 294.974V282.092H208.851L209.01 283.879C209.532 283.218 210.184 282.712 210.967 282.362C211.758 282.003 212.525 281.823 213.267 281.823C214.531 281.823 215.449 282.158 216.02 282.826C216.599 283.495 216.888 284.425 216.888 285.616V294.974H214.833V287.133C214.833 286.252 214.784 285.542 214.686 285.004C214.588 284.458 214.384 284.062 214.075 283.817C213.765 283.565 213.283 283.438 212.631 283.438C212.125 283.438 211.648 283.548 211.2 283.768C210.759 283.989 210.364 284.266 210.013 284.6C209.671 284.927 209.385 285.257 209.157 285.591V294.974H207.101Z" fill="#018BFF"></path><path d="M230.996 292.161C230.996 292.674 231.082 293.05 231.253 293.286C231.424 293.523 231.689 293.698 232.048 293.812L231.547 295.256C230.992 295.182 230.507 295.007 230.091 294.73C229.675 294.444 229.373 294.016 229.186 293.445C228.721 294.04 228.142 294.493 227.448 294.803C226.755 295.105 225.989 295.256 225.149 295.256C223.86 295.256 222.845 294.893 222.102 294.167C221.36 293.441 220.989 292.479 220.989 291.28C220.989 289.95 221.507 288.931 222.543 288.221C223.579 287.512 225.075 287.157 227.033 287.157H228.929V286.081C228.929 285.151 228.655 284.494 228.109 284.111C227.571 283.72 226.82 283.524 225.858 283.524C225.434 283.524 224.937 283.577 224.366 283.683C223.795 283.781 223.175 283.948 222.506 284.184L221.968 282.631C222.759 282.337 223.501 282.129 224.194 282.007C224.888 281.884 225.548 281.823 226.176 281.823C227.783 281.823 228.986 282.198 229.785 282.949C230.592 283.691 230.996 284.702 230.996 285.983V292.161ZM225.675 293.69C226.311 293.69 226.918 293.531 227.497 293.213C228.076 292.886 228.554 292.438 228.929 291.867V288.552H227.069C225.65 288.552 224.647 288.796 224.06 289.286C223.481 289.775 223.191 290.432 223.191 291.255C223.191 292.055 223.395 292.662 223.803 293.078C224.219 293.486 224.843 293.69 225.675 293.69Z" fill="#018BFF"></path><path d="M244.933 281.823C245.349 281.823 245.744 281.913 246.119 282.092C246.503 282.272 246.817 282.618 247.061 283.132C247.306 283.646 247.428 284.396 247.428 285.383V294.974H245.52V285.714C245.52 284.906 245.471 284.323 245.373 283.964C245.275 283.605 244.994 283.426 244.529 283.426C244.146 283.426 243.762 283.548 243.379 283.793C243.004 284.029 242.637 284.421 242.278 284.967V294.974H240.357V285.714C240.357 284.906 240.309 284.323 240.211 283.964C240.113 283.605 239.831 283.426 239.367 283.426C238.967 283.426 238.58 283.548 238.204 283.793C237.837 284.029 237.474 284.421 237.116 284.967V294.974H235.219V282.092H236.834L236.957 283.585C237.307 283.087 237.699 282.672 238.131 282.337C238.571 281.995 239.114 281.823 239.758 281.823C240.247 281.823 240.708 281.942 241.14 282.178C241.573 282.406 241.891 282.855 242.095 283.524C242.445 283.018 242.841 282.61 243.281 282.3C243.722 281.982 244.272 281.823 244.933 281.823Z" fill="#018BFF"></path><path d="M252.728 289.261C252.769 290.256 252.961 291.072 253.303 291.708C253.646 292.336 254.098 292.801 254.661 293.103C255.224 293.396 255.836 293.543 256.496 293.543C257.157 293.543 257.752 293.445 258.282 293.249C258.82 293.054 259.371 292.764 259.934 292.381L260.9 293.739C260.297 294.212 259.608 294.583 258.833 294.852C258.066 295.121 257.279 295.256 256.472 295.256C255.224 295.256 254.16 294.974 253.279 294.412C252.398 293.849 251.725 293.066 251.26 292.063C250.803 291.051 250.575 289.881 250.575 288.552C250.575 287.247 250.808 286.089 251.272 285.077C251.737 284.066 252.39 283.271 253.23 282.692C254.07 282.113 255.061 281.823 256.203 281.823C257.287 281.823 258.221 282.08 259.004 282.594C259.787 283.1 260.386 283.826 260.802 284.772C261.226 285.709 261.438 286.831 261.438 288.136C261.438 288.356 261.434 288.564 261.426 288.76C261.418 288.947 261.406 289.114 261.39 289.261H252.728ZM256.227 283.512C255.273 283.512 254.474 283.85 253.829 284.527C253.193 285.204 252.83 286.252 252.74 287.671H259.457C259.432 286.293 259.13 285.257 258.551 284.564C257.972 283.862 257.198 283.512 256.227 283.512Z" fill="#018BFF"></path><path d="M268.671 293.262C268.671 292.732 268.859 292.271 269.234 291.879C269.617 291.488 270.086 291.292 270.641 291.292C271.212 291.292 271.685 291.488 272.06 291.879C272.443 292.271 272.635 292.732 272.635 293.262C272.635 293.816 272.443 294.289 272.06 294.681C271.685 295.064 271.212 295.256 270.641 295.256C270.086 295.256 269.617 295.064 269.234 294.681C268.859 294.289 268.671 293.816 268.671 293.262ZM268.671 284.441C268.671 284.066 268.757 283.732 268.928 283.438C269.099 283.145 269.336 282.912 269.638 282.741C269.939 282.561 270.274 282.472 270.641 282.472C271.212 282.472 271.685 282.663 272.06 283.047C272.443 283.43 272.635 283.895 272.635 284.441C272.635 284.98 272.443 285.449 272.06 285.848C271.685 286.24 271.212 286.435 270.641 286.435C270.086 286.435 269.617 286.24 269.234 285.848C268.859 285.449 268.671 284.98 268.671 284.441Z" fill="#018BFF"></path><path d="M284.369 281.505C284.369 282.011 284.186 282.435 283.819 282.778C283.46 283.12 283.024 283.291 282.51 283.291C281.988 283.291 281.552 283.12 281.201 282.778C280.85 282.435 280.675 282.011 280.675 281.505C280.675 281.301 280.699 281.081 280.748 280.845C280.797 280.6 280.915 280.282 281.103 279.89L283.085 275.67H284.712L283.709 280.16C283.913 280.298 284.072 280.49 284.186 280.735C284.308 280.971 284.369 281.228 284.369 281.505ZM289.654 281.505C289.654 282.011 289.467 282.435 289.091 282.778C288.724 283.12 288.292 283.291 287.795 283.291C287.289 283.291 286.857 283.12 286.498 282.778C286.139 282.435 285.96 282.011 285.96 281.505C285.96 281.301 285.984 281.081 286.033 280.845C286.082 280.6 286.2 280.282 286.388 279.89L288.406 275.67H289.997L289.006 280.16C289.202 280.298 289.357 280.49 289.471 280.735C289.593 280.971 289.654 281.228 289.654 281.505Z" fill="#018BFF"></path><path d="M303.921 286.472C303.921 285.004 303.766 283.83 303.456 282.949C303.146 282.068 302.739 281.407 302.233 280.967C301.727 280.527 301.173 280.233 300.569 280.086C299.974 279.939 299.387 279.866 298.808 279.866H296.826V293.274H298.832C299.436 293.274 300.035 293.18 300.63 292.992C301.234 292.797 301.784 292.454 302.282 291.965C302.779 291.467 303.175 290.778 303.469 289.897C303.77 289.008 303.921 287.867 303.921 286.472ZM306.184 286.472C306.184 287.875 306.033 289.074 305.732 290.069C305.438 291.056 305.034 291.871 304.521 292.515C304.007 293.16 303.42 293.661 302.759 294.02C302.107 294.371 301.417 294.62 300.692 294.766C299.974 294.905 299.268 294.974 298.575 294.974H294.709V278.129H298.306C299.293 278.129 300.251 278.239 301.181 278.459C302.119 278.679 302.963 279.087 303.713 279.682C304.472 280.27 305.071 281.11 305.512 282.203C305.96 283.295 306.184 284.719 306.184 286.472Z" fill="#018BFF"></path><path d="M319.02 292.161C319.02 292.674 319.106 293.05 319.277 293.286C319.448 293.523 319.713 293.698 320.072 293.812L319.57 295.256C319.016 295.182 318.531 295.007 318.115 294.73C317.699 294.444 317.397 294.016 317.209 293.445C316.745 294.04 316.165 294.493 315.472 294.803C314.779 295.105 314.012 295.256 313.172 295.256C311.884 295.256 310.868 294.893 310.126 294.167C309.384 293.441 309.013 292.479 309.013 291.28C309.013 289.95 309.531 288.931 310.567 288.221C311.602 287.512 313.099 287.157 315.056 287.157H316.952V286.081C316.952 285.151 316.679 284.494 316.133 284.111C315.595 283.72 314.844 283.524 313.882 283.524C313.458 283.524 312.96 283.577 312.389 283.683C311.819 283.781 311.199 283.948 310.53 284.184L309.992 282.631C310.783 282.337 311.525 282.129 312.218 282.007C312.911 281.884 313.572 281.823 314.2 281.823C315.807 281.823 317.01 282.198 317.809 282.949C318.616 283.691 319.02 284.702 319.02 285.983V292.161ZM313.698 293.69C314.335 293.69 314.942 293.531 315.521 293.213C316.1 292.886 316.577 292.438 316.952 291.867V288.552H315.093C313.674 288.552 312.671 288.796 312.084 289.286C311.505 289.775 311.215 290.432 311.215 291.255C311.215 292.055 311.419 292.662 311.827 293.078C312.243 293.486 312.867 293.69 313.698 293.69Z" fill="#018BFF"></path><path d="M324.467 294.974V282.092H326.216L326.375 283.879C326.897 283.218 327.549 282.712 328.332 282.362C329.123 282.003 329.89 281.823 330.632 281.823C331.896 281.823 332.814 282.158 333.385 282.826C333.964 283.495 334.253 284.425 334.253 285.616V294.974H332.198V287.133C332.198 286.252 332.149 285.542 332.051 285.004C331.953 284.458 331.75 284.062 331.44 283.817C331.13 283.565 330.648 283.438 329.996 283.438C329.49 283.438 329.013 283.548 328.565 283.768C328.124 283.989 327.729 284.266 327.378 284.6C327.036 284.927 326.75 285.257 326.522 285.591V294.974H324.467Z" fill="#018BFF"></path><path d="M339.675 277.493C339.675 276.987 339.859 276.563 340.226 276.22C340.601 275.87 341.037 275.694 341.535 275.694C342.041 275.694 342.477 275.87 342.844 276.22C343.211 276.563 343.394 276.987 343.394 277.493C343.394 277.713 343.362 277.937 343.297 278.166C343.231 278.386 343.101 278.696 342.905 279.095L340.923 283.316H339.333L340.299 278.826C340.112 278.679 339.961 278.488 339.847 278.251C339.733 278.015 339.675 277.762 339.675 277.493ZM344.96 277.493C344.96 276.987 345.144 276.563 345.511 276.22C345.886 275.87 346.322 275.694 346.82 275.694C347.334 275.694 347.77 275.87 348.129 276.22C348.496 276.563 348.679 276.987 348.679 277.493C348.679 277.713 348.651 277.937 348.594 278.166C348.537 278.386 348.414 278.696 348.227 279.095L346.22 283.316H344.618L345.609 278.826C345.413 278.679 345.254 278.488 345.132 278.251C345.017 278.015 344.96 277.762 344.96 277.493Z" fill="#018BFF"></path><path d="M354.982 274.532C355.667 274.532 356.324 274.593 356.952 274.716C357.58 274.83 358.134 275.03 358.616 275.315C359.097 275.601 359.46 275.992 359.704 276.49C359.957 276.979 360.039 277.599 359.949 278.349L359.46 283.022C359.394 283.577 359.464 284.046 359.668 284.429C359.88 284.812 360.263 285.102 360.818 285.298C361.372 285.493 362.151 285.591 363.154 285.591V287.231C362.159 287.231 361.38 287.332 360.818 287.536C360.263 287.732 359.88 288.022 359.668 288.405C359.464 288.788 359.394 289.261 359.46 289.824L359.949 294.473C360.031 295.223 359.949 295.843 359.704 296.332C359.46 296.83 359.097 297.221 358.616 297.507C358.143 297.792 357.588 297.992 356.952 298.106C356.324 298.228 355.667 298.29 354.982 298.29V296.675C355.578 296.675 356.116 296.618 356.597 296.504C357.086 296.389 357.466 296.19 357.735 295.904C358.004 295.619 358.114 295.223 358.065 294.717L357.551 289.702C357.478 288.976 357.519 288.393 357.674 287.952C357.829 287.504 358.106 287.161 358.505 286.925C358.913 286.688 359.447 286.525 360.108 286.435C359.472 286.329 358.95 286.146 358.542 285.885C358.143 285.624 357.861 285.269 357.698 284.821C357.535 284.372 357.486 283.805 357.551 283.12L358.065 278.104C358.114 277.607 358.004 277.215 357.735 276.93C357.466 276.644 357.09 276.445 356.609 276.33C356.128 276.208 355.586 276.147 354.982 276.147V274.532Z" fill="#018BFF"></path><path d="M375.5 286.411C375.5 285.13 375.39 283.989 375.17 282.986C374.958 281.974 374.636 281.057 374.204 280.233C373.771 279.401 373.225 278.61 372.564 277.86C371.912 277.101 371.145 276.33 370.265 275.548L371.341 274.422C372.67 275.499 373.804 276.604 374.742 277.737C375.68 278.871 376.398 280.135 376.895 281.53C377.401 282.924 377.654 284.551 377.654 286.411C377.654 288.262 377.401 289.885 376.895 291.28C376.398 292.674 375.68 293.939 374.742 295.072C373.804 296.206 372.67 297.315 371.341 298.4L370.265 297.274C371.137 296.499 371.9 295.733 372.552 294.974C373.213 294.224 373.759 293.433 374.191 292.601C374.624 291.761 374.95 290.839 375.17 289.836C375.39 288.825 375.5 287.683 375.5 286.411Z" fill="#018BFF"></path><path d="M383.125 288.209V286.423H392.936V288.209H383.125Z" fill="#018BFF"></path><path d="M399.863 297.8V275.021H405.992V276.795H401.808V296.051H405.992V297.8H399.863Z" fill="#018BFF"></path><path d="M415.377 291.304C415.377 290.774 415.565 290.313 415.94 289.922C416.323 289.53 416.792 289.335 417.347 289.335C417.918 289.335 418.391 289.53 418.766 289.922C419.149 290.313 419.341 290.774 419.341 291.304C419.341 291.859 419.149 292.332 418.766 292.723C418.391 293.107 417.918 293.298 417.347 293.298C416.792 293.298 416.323 293.107 415.94 292.723C415.565 292.332 415.377 291.859 415.377 291.304ZM415.377 282.484C415.377 282.109 415.463 281.774 415.634 281.481C415.806 281.187 416.042 280.955 416.344 280.783C416.646 280.604 416.98 280.514 417.347 280.514C417.918 280.514 418.391 280.706 418.766 281.089C419.149 281.473 419.341 281.937 419.341 282.484C419.341 283.022 419.149 283.491 418.766 283.891C418.391 284.282 417.918 284.478 417.347 284.478C416.792 284.478 416.323 284.282 415.94 283.891C415.565 283.491 415.377 283.022 415.377 282.484Z" fill="#018BFF"></path><path d="M428.017 294.974V278.129H430.146V293.078H437.829L437.584 294.974H428.017Z" fill="#018BFF"></path><path d="M452.915 286.57C452.915 288.266 452.683 289.771 452.218 291.084C451.761 292.389 451.072 293.413 450.15 294.155C449.229 294.889 448.083 295.256 446.713 295.256C445.351 295.256 444.205 294.897 443.275 294.179C442.354 293.453 441.66 292.442 441.195 291.145C440.739 289.848 440.51 288.332 440.51 286.594C440.51 284.89 440.739 283.381 441.195 282.068C441.66 280.755 442.354 279.727 443.275 278.985C444.205 278.235 445.351 277.86 446.713 277.86C448.083 277.86 449.229 278.223 450.15 278.948C451.072 279.674 451.761 280.69 452.218 281.995C452.683 283.299 452.915 284.825 452.915 286.57ZM450.689 286.57C450.689 284.327 450.379 282.61 449.759 281.42C449.147 280.229 448.132 279.634 446.713 279.634C445.294 279.634 444.274 280.233 443.654 281.432C443.043 282.631 442.737 284.352 442.737 286.594C442.737 288.837 443.055 290.546 443.691 291.72C444.327 292.886 445.334 293.47 446.713 293.47C448.132 293.47 449.147 292.882 449.759 291.708C450.379 290.525 450.689 288.813 450.689 286.57Z" fill="#018BFF"></path><path d="M461.432 292.564L465.983 278.129H468.124L462.484 294.974H460.282L454.643 278.129H456.93L461.432 292.564Z" fill="#018BFF"></path><path d="M473.913 279.866V285.542H480.152V287.292H473.913V293.274H481.571V294.974H471.785V278.129H481.351L481.106 279.866H473.913Z" fill="#018BFF"></path><path d="M496.511 290.313C496.511 291.276 496.27 292.132 495.789 292.882C495.308 293.625 494.611 294.208 493.697 294.632C492.784 295.048 491.671 295.256 490.358 295.256C489.126 295.256 488.009 295.068 487.006 294.693C486.011 294.318 485.158 293.788 484.449 293.103L485.709 291.684C486.296 292.23 486.969 292.666 487.727 292.992C488.486 293.311 489.375 293.47 490.394 293.47C491.079 293.47 491.72 293.36 492.315 293.139C492.91 292.911 493.392 292.568 493.759 292.112C494.126 291.647 494.309 291.06 494.309 290.35C494.309 289.804 494.203 289.339 493.991 288.955C493.779 288.572 493.404 288.234 492.865 287.94C492.327 287.638 491.577 287.345 490.615 287.059C489.505 286.733 488.543 286.366 487.727 285.958C486.92 285.542 486.292 285.033 485.843 284.429C485.403 283.826 485.183 283.079 485.183 282.19C485.183 281.35 485.415 280.604 485.88 279.952C486.345 279.299 486.985 278.789 487.801 278.422C488.625 278.047 489.571 277.86 490.639 277.86C491.805 277.86 492.817 278.027 493.673 278.361C494.537 278.687 495.32 279.16 496.022 279.78L494.774 281.163C494.17 280.624 493.522 280.237 492.829 280.001C492.136 279.756 491.43 279.634 490.712 279.634C490.101 279.634 489.538 279.727 489.024 279.915C488.518 280.094 488.111 280.368 487.801 280.735C487.499 281.093 487.348 281.554 487.348 282.117C487.348 282.598 487.479 283.014 487.74 283.365C488.001 283.715 488.441 284.038 489.061 284.331C489.681 284.617 490.525 284.918 491.593 285.236C492.466 285.489 493.273 285.807 494.015 286.191C494.766 286.566 495.369 287.08 495.826 287.732C496.283 288.376 496.511 289.237 496.511 290.313Z" fill="#018BFF"></path><path d="M508.233 275.021V297.8H502.104V296.063H506.288V276.795H502.104V275.021H508.233Z" fill="#018BFF"></path><path d="M515.772 288.221V286.411H527.651V288.221H515.772Z" fill="#018BFF"></path><path d="M537.183 288.221H527.152V286.411H537.183V288.221ZM532.424 279.866L539.079 287.316L532.424 294.766L530.907 293.47L534.394 289.628C534.728 289.269 534.997 288.992 535.201 288.796C535.405 288.601 535.658 288.409 535.96 288.221V286.411C535.658 286.223 535.405 286.032 535.201 285.836C534.997 285.64 534.728 285.363 534.394 285.004L530.907 281.163L532.424 279.866Z" fill="#018BFF"></path><path d="M547.266 286.411C547.266 287.683 547.376 288.825 547.597 289.836C547.817 290.839 548.143 291.761 548.575 292.601C549.008 293.433 549.55 294.224 550.202 294.974C550.863 295.733 551.63 296.499 552.502 297.274L551.426 298.4C550.104 297.315 548.971 296.206 548.025 295.072C547.087 293.939 546.365 292.674 545.859 291.28C545.362 289.885 545.113 288.262 545.113 286.411C545.113 284.551 545.362 282.924 545.859 281.53C546.365 280.135 547.087 278.871 548.025 277.737C548.971 276.604 550.104 275.499 551.426 274.422L552.502 275.548C551.621 276.33 550.851 277.101 550.19 277.86C549.538 278.61 548.995 279.401 548.563 280.233C548.131 281.057 547.805 281.974 547.584 282.986C547.372 283.989 547.266 285.13 547.266 286.411Z" fill="#018BFF"></path><path d="M562.084 291.304C562.084 290.774 562.271 290.313 562.646 289.922C563.03 289.53 563.499 289.335 564.053 289.335C564.624 289.335 565.097 289.53 565.472 289.922C565.856 290.313 566.047 290.774 566.047 291.304C566.047 291.859 565.856 292.332 565.472 292.723C565.097 293.107 564.624 293.298 564.053 293.298C563.499 293.298 563.03 293.107 562.646 292.723C562.271 292.332 562.084 291.859 562.084 291.304ZM562.084 282.484C562.084 282.109 562.169 281.774 562.341 281.481C562.512 281.187 562.748 280.955 563.05 280.783C563.352 280.604 563.686 280.514 564.053 280.514C564.624 280.514 565.097 280.706 565.472 281.089C565.856 281.473 566.047 281.937 566.047 282.484C566.047 283.022 565.856 283.491 565.472 283.891C565.097 284.282 564.624 284.478 564.053 284.478C563.499 284.478 563.03 284.282 562.646 283.891C562.271 283.491 562.084 283.022 562.084 282.484Z" fill="#018BFF"></path><path d="M582.761 283.328C582.761 282.455 582.59 281.766 582.247 281.261C581.905 280.747 581.436 280.38 580.84 280.16C580.245 279.931 579.564 279.817 578.797 279.817H576.363V287.01H578.712C579.503 287.01 580.2 286.904 580.804 286.692C581.407 286.472 581.884 286.097 582.235 285.567C582.586 285.028 582.761 284.282 582.761 283.328ZM585.036 283.304C585.036 284.617 584.755 285.669 584.192 286.46C583.638 287.251 582.871 287.826 581.892 288.185C580.914 288.544 579.788 288.723 578.516 288.723H576.363V294.974H574.234V278.129H578.54C580.547 278.129 582.129 278.553 583.287 279.401C584.453 280.241 585.036 281.542 585.036 283.304Z" fill="#018BFF"></path><path d="M590.153 289.261C590.193 290.256 590.385 291.072 590.728 291.708C591.07 292.336 591.523 292.801 592.086 293.103C592.648 293.396 593.26 293.543 593.921 293.543C594.581 293.543 595.177 293.445 595.707 293.249C596.245 293.054 596.795 292.764 597.358 292.381L598.325 293.739C597.721 294.212 597.032 294.583 596.257 294.852C595.491 295.121 594.704 295.256 593.896 295.256C592.648 295.256 591.584 294.974 590.703 294.412C589.822 293.849 589.15 293.066 588.685 292.063C588.228 291.051 588 289.881 588 288.552C588 287.247 588.232 286.089 588.697 285.077C589.162 284.066 589.814 283.271 590.654 282.692C591.494 282.113 592.485 281.823 593.627 281.823C594.712 281.823 595.646 282.08 596.428 282.594C597.211 283.1 597.811 283.826 598.227 284.772C598.651 285.709 598.863 286.831 598.863 288.136C598.863 288.356 598.859 288.564 598.851 288.76C598.843 288.947 598.83 289.114 598.814 289.261H590.153ZM593.651 283.512C592.697 283.512 591.898 283.85 591.254 284.527C590.618 285.204 590.255 286.252 590.165 287.671H596.881C596.857 286.293 596.555 285.257 595.976 284.564C595.397 283.862 594.622 283.512 593.651 283.512Z" fill="#018BFF"></path><path d="M603.331 294.974V293.396H605.337V283.671H603.331V282.092H606.903L607.282 285.139C607.78 284.078 608.383 283.259 609.093 282.68C609.802 282.101 610.74 281.811 611.906 281.811C612.265 281.811 612.583 281.84 612.861 281.897C613.146 281.946 613.436 282.011 613.729 282.092L613.13 283.927C612.861 283.854 612.616 283.801 612.396 283.768C612.176 283.728 611.923 283.707 611.637 283.707C610.651 283.707 609.802 284.058 609.093 284.759C608.383 285.461 607.816 286.521 607.392 287.94V293.396H610.01V294.974H603.331ZM611.747 286.448V283.646L611.955 282.092H613.729L613.436 286.448H611.747Z" fill="#018BFF"></path><path d="M622.259 293.555C623.246 293.555 624.024 293.372 624.595 293.005C625.174 292.63 625.464 292.132 625.464 291.512C625.464 291.121 625.39 290.782 625.244 290.497C625.105 290.211 624.815 289.955 624.375 289.726C623.935 289.498 623.258 289.269 622.344 289.041C621.455 288.821 620.681 288.568 620.02 288.283C619.368 287.989 618.858 287.61 618.491 287.145C618.132 286.68 617.953 286.076 617.953 285.334C617.953 284.608 618.156 283.985 618.564 283.463C618.98 282.932 619.555 282.529 620.289 282.251C621.023 281.966 621.875 281.823 622.846 281.823C623.882 281.823 624.783 281.962 625.549 282.239C626.324 282.508 626.981 282.843 627.519 283.242L626.614 284.637C626.125 284.303 625.586 284.029 624.999 283.817C624.412 283.597 623.702 283.487 622.87 283.487C621.859 283.487 621.141 283.646 620.717 283.964C620.293 284.274 620.081 284.678 620.081 285.175C620.081 285.55 620.183 285.864 620.387 286.117C620.599 286.362 620.954 286.586 621.451 286.79C621.949 286.986 622.634 287.202 623.507 287.438C624.347 287.659 625.076 287.924 625.696 288.234C626.324 288.544 626.814 288.951 627.164 289.457C627.515 289.963 627.69 290.615 627.69 291.414C627.69 292.328 627.429 293.07 626.907 293.641C626.385 294.204 625.709 294.615 624.877 294.876C624.053 295.129 623.18 295.256 622.259 295.256C621.092 295.256 620.097 295.088 619.274 294.754C618.458 294.412 617.773 294 617.219 293.519L618.393 292.161C618.899 292.577 619.478 292.915 620.13 293.176C620.791 293.429 621.5 293.555 622.259 293.555Z" fill="#018BFF"></path><path d="M637.455 281.823C638.671 281.823 639.686 282.101 640.502 282.655C641.325 283.202 641.941 283.976 642.349 284.98C642.765 285.983 642.973 287.165 642.973 288.527C642.973 289.84 642.761 291.003 642.337 292.014C641.912 293.025 641.289 293.82 640.465 294.399C639.649 294.97 638.638 295.256 637.431 295.256C636.224 295.256 635.208 294.978 634.385 294.424C633.561 293.869 632.937 293.09 632.513 292.087C632.097 291.076 631.889 289.897 631.889 288.552C631.889 287.222 632.101 286.052 632.525 285.041C632.949 284.029 633.573 283.242 634.397 282.68C635.229 282.109 636.248 281.823 637.455 281.823ZM637.455 283.499C636.346 283.499 635.506 283.911 634.935 284.735C634.372 285.55 634.091 286.823 634.091 288.552C634.091 290.248 634.368 291.508 634.923 292.332C635.486 293.156 636.322 293.567 637.431 293.567C638.54 293.567 639.372 293.156 639.927 292.332C640.489 291.508 640.771 290.24 640.771 288.527C640.771 286.815 640.493 285.55 639.939 284.735C639.384 283.911 638.556 283.499 637.455 283.499Z" fill="#018BFF"></path><path d="M647.22 294.974V282.092H648.97L649.129 283.879C649.651 283.218 650.303 282.712 651.086 282.362C651.877 282.003 652.644 281.823 653.386 281.823C654.65 281.823 655.568 282.158 656.139 282.826C656.718 283.495 657.007 284.425 657.007 285.616V294.974H654.952V287.133C654.952 286.252 654.903 285.542 654.805 285.004C654.707 284.458 654.503 284.062 654.193 283.817C653.884 283.565 653.402 283.438 652.75 283.438C652.244 283.438 651.767 283.548 651.319 283.768C650.878 283.989 650.483 284.266 650.132 284.6C649.789 284.927 649.504 285.257 649.276 285.591V294.974H647.22Z" fill="#018BFF"></path><path d="M670.479 274.532V276.147C669.884 276.147 669.341 276.208 668.852 276.33C668.371 276.445 667.995 276.644 667.726 276.93C667.465 277.215 667.355 277.607 667.396 278.104L667.91 283.12C667.983 283.805 667.943 284.372 667.788 284.821C667.633 285.269 667.372 285.62 667.005 285.873C666.646 286.125 666.185 286.305 665.622 286.411C666.193 286.509 666.662 286.68 667.029 286.925C667.396 287.161 667.653 287.504 667.8 287.952C667.947 288.393 667.983 288.976 667.91 289.702L667.396 294.717C667.355 295.223 667.465 295.619 667.726 295.904C667.987 296.19 668.362 296.389 668.852 296.504C669.341 296.618 669.884 296.675 670.479 296.675V298.29C669.794 298.29 669.137 298.228 668.509 298.106C667.881 297.992 667.327 297.792 666.846 297.507C666.364 297.221 666.001 296.83 665.757 296.332C665.512 295.843 665.431 295.223 665.512 294.473L666.001 289.824C666.067 289.261 666.014 288.788 665.842 288.405C665.679 288.022 665.32 287.732 664.766 287.536C664.219 287.332 663.4 287.231 662.307 287.231V285.591C663.4 285.591 664.219 285.493 664.766 285.298C665.32 285.102 665.679 284.812 665.842 284.429C666.014 284.046 666.067 283.577 666.001 283.022L665.512 278.349C665.431 277.599 665.512 276.979 665.757 276.49C666.001 275.992 666.36 275.601 666.833 275.315C667.315 275.03 667.869 274.83 668.497 274.716C669.133 274.593 669.794 274.532 670.479 274.532Z" fill="#018BFF"></path><path d="M676.562 294.974V282.092H678.311L678.47 283.879C678.992 283.218 679.644 282.712 680.427 282.362C681.219 282.003 681.985 281.823 682.727 281.823C683.991 281.823 684.909 282.158 685.48 282.826C686.059 283.495 686.348 284.425 686.348 285.616V294.974H684.293V287.133C684.293 286.252 684.244 285.542 684.146 285.004C684.049 284.458 683.845 284.062 683.535 283.817C683.225 283.565 682.744 283.438 682.091 283.438C681.586 283.438 681.108 283.548 680.66 283.768C680.219 283.989 679.824 284.266 679.473 284.6C679.131 284.927 678.845 285.257 678.617 285.591V294.974H676.562Z" fill="#018BFF"></path><path d="M700.456 292.161C700.456 292.674 700.542 293.05 700.713 293.286C700.885 293.523 701.15 293.698 701.508 293.812L701.007 295.256C700.452 295.182 699.967 295.007 699.551 294.73C699.135 294.444 698.833 294.016 698.646 293.445C698.181 294.04 697.602 294.493 696.909 294.803C696.215 295.105 695.449 295.256 694.609 295.256C693.32 295.256 692.305 294.893 691.563 294.167C690.82 293.441 690.449 292.479 690.449 291.28C690.449 289.95 690.967 288.931 692.003 288.221C693.039 287.512 694.535 287.157 696.493 287.157H698.389V286.081C698.389 285.151 698.116 284.494 697.569 284.111C697.031 283.72 696.281 283.524 695.318 283.524C694.894 283.524 694.397 283.577 693.826 283.683C693.255 283.781 692.635 283.948 691.966 284.184L691.428 282.631C692.219 282.337 692.961 282.129 693.654 282.007C694.348 281.884 695.008 281.823 695.636 281.823C697.243 281.823 698.446 282.198 699.245 282.949C700.053 283.691 700.456 284.702 700.456 285.983V292.161ZM695.135 293.69C695.771 293.69 696.378 293.531 696.958 293.213C697.537 292.886 698.014 292.438 698.389 291.867V288.552H696.529C695.11 288.552 694.107 288.796 693.52 289.286C692.941 289.775 692.651 290.432 692.651 291.255C692.651 292.055 692.855 292.662 693.263 293.078C693.679 293.486 694.303 293.69 695.135 293.69Z" fill="#018BFF"></path><path d="M714.393 281.823C714.809 281.823 715.204 281.913 715.58 282.092C715.963 282.272 716.277 282.618 716.522 283.132C716.766 283.646 716.889 284.396 716.889 285.383V294.974H714.98V285.714C714.98 284.906 714.931 284.323 714.833 283.964C714.735 283.605 714.454 283.426 713.989 283.426C713.606 283.426 713.223 283.548 712.839 283.793C712.464 284.029 712.097 284.421 711.738 284.967V294.974H709.818V285.714C709.818 284.906 709.769 284.323 709.671 283.964C709.573 283.605 709.292 283.426 708.827 283.426C708.427 283.426 708.04 283.548 707.664 283.793C707.297 284.029 706.935 284.421 706.576 284.967V294.974H704.68V282.092H706.294L706.417 283.585C706.767 283.087 707.159 282.672 707.591 282.337C708.031 281.995 708.574 281.823 709.218 281.823C709.708 281.823 710.168 281.942 710.601 282.178C711.033 282.406 711.351 282.855 711.555 283.524C711.905 283.018 712.301 282.61 712.741 282.3C713.182 281.982 713.732 281.823 714.393 281.823Z" fill="#018BFF"></path><path d="M722.188 289.261C722.229 290.256 722.421 291.072 722.763 291.708C723.106 292.336 723.559 292.801 724.121 293.103C724.684 293.396 725.296 293.543 725.956 293.543C726.617 293.543 727.212 293.445 727.742 293.249C728.281 293.054 728.831 292.764 729.394 292.381L730.36 293.739C729.757 294.212 729.068 294.583 728.293 294.852C727.526 295.121 726.739 295.256 725.932 295.256C724.684 295.256 723.62 294.974 722.739 294.412C721.858 293.849 721.185 293.066 720.72 292.063C720.264 291.051 720.035 289.881 720.035 288.552C720.035 287.247 720.268 286.089 720.733 285.077C721.197 284.066 721.85 283.271 722.69 282.692C723.53 282.113 724.521 281.823 725.663 281.823C726.747 281.823 727.681 282.08 728.464 282.594C729.247 283.1 729.846 283.826 730.262 284.772C730.687 285.709 730.899 286.831 730.899 288.136C730.899 288.356 730.895 288.564 730.886 288.76C730.878 288.947 730.866 289.114 730.85 289.261H722.188ZM725.687 283.512C724.733 283.512 723.934 283.85 723.289 284.527C722.653 285.204 722.29 286.252 722.201 287.671H728.917C728.892 286.293 728.591 285.257 728.011 284.564C727.432 283.862 726.658 283.512 725.687 283.512Z" fill="#018BFF"></path><path d="M738.131 293.262C738.131 292.732 738.319 292.271 738.694 291.879C739.077 291.488 739.546 291.292 740.101 291.292C740.672 291.292 741.145 291.488 741.52 291.879C741.903 292.271 742.095 292.732 742.095 293.262C742.095 293.816 741.903 294.289 741.52 294.681C741.145 295.064 740.672 295.256 740.101 295.256C739.546 295.256 739.077 295.064 738.694 294.681C738.319 294.289 738.131 293.816 738.131 293.262ZM738.131 284.441C738.131 284.066 738.217 283.732 738.388 283.438C738.559 283.145 738.796 282.912 739.098 282.741C739.399 282.561 739.734 282.472 740.101 282.472C740.672 282.472 741.145 282.663 741.52 283.047C741.903 283.43 742.095 283.895 742.095 284.441C742.095 284.98 741.903 285.449 741.52 285.848C741.145 286.24 740.672 286.435 740.101 286.435C739.546 286.435 739.077 286.24 738.694 285.848C738.319 285.449 738.131 284.98 738.131 284.441Z" fill="#018BFF"></path><path d="M753.83 281.505C753.83 282.011 753.646 282.435 753.279 282.778C752.92 283.12 752.484 283.291 751.97 283.291C751.448 283.291 751.012 283.12 750.661 282.778C750.31 282.435 750.135 282.011 750.135 281.505C750.135 281.301 750.159 281.081 750.208 280.845C750.257 280.6 750.376 280.282 750.563 279.89L752.545 275.67H754.172L753.169 280.16C753.373 280.298 753.532 280.49 753.646 280.735C753.768 280.971 753.83 281.228 753.83 281.505ZM759.114 281.505C759.114 282.011 758.927 282.435 758.552 282.778C758.185 283.12 757.752 283.291 757.255 283.291C756.749 283.291 756.317 283.12 755.958 282.778C755.599 282.435 755.42 282.011 755.42 281.505C755.42 281.301 755.444 281.081 755.493 280.845C755.542 280.6 755.66 280.282 755.848 279.89L757.867 275.67H759.457L758.466 280.16C758.662 280.298 758.817 280.49 758.931 280.735C759.053 280.971 759.114 281.228 759.114 281.505Z" fill="#018BFF"></path><path d="M772.733 290.68H766.066L764.72 294.974H762.628L768.109 278.129H770.824L776.305 294.974H774.079L772.733 290.68ZM766.616 288.919H772.182L769.418 279.915L766.616 288.919Z" fill="#018BFF"></path><path d="M779.256 294.974V282.092H781.005L781.164 283.879C781.686 283.218 782.339 282.712 783.122 282.362C783.913 282.003 784.68 281.823 785.422 281.823C786.686 281.823 787.603 282.158 788.174 282.826C788.753 283.495 789.043 284.425 789.043 285.616V294.974H786.988V287.133C786.988 286.252 786.939 285.542 786.841 285.004C786.743 284.458 786.539 284.062 786.229 283.817C785.919 283.565 785.438 283.438 784.786 283.438C784.28 283.438 783.803 283.548 783.354 283.768C782.914 283.989 782.518 284.266 782.168 284.6C781.825 284.927 781.54 285.257 781.311 285.591V294.974H779.256Z" fill="#018BFF"></path><path d="M793.927 294.974V282.092H795.676L795.835 283.879C796.357 283.218 797.01 282.712 797.792 282.362C798.584 282.003 799.35 281.823 800.092 281.823C801.357 281.823 802.274 282.158 802.845 282.826C803.424 283.495 803.713 284.425 803.713 285.616V294.974H801.658V287.133C801.658 286.252 801.609 285.542 801.511 285.004C801.414 284.458 801.21 284.062 800.9 283.817C800.59 283.565 800.109 283.438 799.456 283.438C798.951 283.438 798.473 283.548 798.025 283.768C797.584 283.989 797.189 284.266 796.838 284.6C796.496 284.927 796.21 285.257 795.982 285.591V294.974H793.927Z" fill="#018BFF"></path><path d="M809.136 277.493C809.136 276.987 809.319 276.563 809.686 276.22C810.061 275.87 810.498 275.694 810.995 275.694C811.501 275.694 811.937 275.87 812.304 276.22C812.671 276.563 812.855 276.987 812.855 277.493C812.855 277.713 812.822 277.937 812.757 278.166C812.691 278.386 812.561 278.696 812.365 279.095L810.383 283.316H808.793L809.76 278.826C809.572 278.679 809.421 278.488 809.307 278.251C809.193 278.015 809.136 277.762 809.136 277.493ZM814.42 277.493C814.42 276.987 814.604 276.563 814.971 276.22C815.346 275.87 815.782 275.694 816.28 275.694C816.794 275.694 817.23 275.87 817.589 276.22C817.956 276.563 818.139 276.987 818.139 277.493C818.139 277.713 818.111 277.937 818.054 278.166C817.997 278.386 817.874 278.696 817.687 279.095L815.68 283.316H814.078L815.069 278.826C814.873 278.679 814.714 278.488 814.592 278.251C814.478 278.015 814.42 277.762 814.42 277.493Z" fill="#018BFF"></path><path d="M824.442 274.532C825.127 274.532 825.784 274.593 826.412 274.716C827.04 274.83 827.594 275.03 828.076 275.315C828.557 275.601 828.92 275.992 829.164 276.49C829.417 276.979 829.499 277.599 829.409 278.349L828.92 283.022C828.855 283.577 828.924 284.046 829.128 284.429C829.34 284.812 829.723 285.102 830.278 285.298C830.832 285.493 831.611 285.591 832.614 285.591V287.231C831.619 287.231 830.84 287.332 830.278 287.536C829.723 287.732 829.34 288.022 829.128 288.405C828.924 288.788 828.855 289.261 828.92 289.824L829.409 294.473C829.491 295.223 829.409 295.843 829.164 296.332C828.92 296.83 828.557 297.221 828.076 297.507C827.603 297.792 827.048 297.992 826.412 298.106C825.784 298.228 825.127 298.29 824.442 298.29V296.675C825.038 296.675 825.576 296.618 826.057 296.504C826.546 296.389 826.926 296.19 827.195 295.904C827.464 295.619 827.574 295.223 827.525 294.717L827.011 289.702C826.938 288.976 826.979 288.393 827.134 287.952C827.289 287.504 827.566 287.161 827.966 286.925C828.373 286.688 828.908 286.525 829.568 286.435C828.932 286.329 828.41 286.146 828.002 285.885C827.603 285.624 827.321 285.269 827.158 284.821C826.995 284.372 826.946 283.805 827.011 283.12L827.525 278.104C827.574 277.607 827.464 277.215 827.195 276.93C826.926 276.644 826.551 276.445 826.069 276.33C825.588 276.208 825.046 276.147 824.442 276.147V274.532Z" fill="#018BFF"></path><path d="M844.961 286.411C844.961 285.13 844.85 283.989 844.63 282.986C844.418 281.974 844.096 281.057 843.664 280.233C843.232 279.401 842.685 278.61 842.025 277.86C841.372 277.101 840.605 276.33 839.725 275.548L840.801 274.422C842.131 275.499 843.264 276.604 844.202 277.737C845.14 278.871 845.858 280.135 846.355 281.53C846.861 282.924 847.114 284.551 847.114 286.411C847.114 288.262 846.861 289.885 846.355 291.28C845.858 292.674 845.14 293.939 844.202 295.072C843.264 296.206 842.131 297.315 840.801 298.4L839.725 297.274C840.597 296.499 841.36 295.733 842.012 294.974C842.673 294.224 843.219 293.433 843.652 292.601C844.084 291.761 844.41 290.839 844.63 289.836C844.85 288.825 844.961 287.683 844.961 286.411Z" fill="#018BFF"></path><path d="M245.892 242.308V256.094" stroke="#ED1252" stroke-width="1.39811"></path><path d="M145.689 312.69V326.476" stroke="#00BA88" stroke-width="1.39811"></path><path d="M614.725 312.69V326.476" stroke="#00BA88" stroke-width="1.39811"></path><path d="M281.265 312.69V326.476" stroke="#00BA88" stroke-width="1.39811"></path><path d="M750.301 312.69V326.476" stroke="#00BA88" stroke-width="1.39811"></path><path d="M688.05 242.308V256.094" stroke="#ED1252" stroke-width="1.39811"></path><path d="M368.712 256.094H123.073" stroke="#ED1252" stroke-width="1.39811"></path><path d="M186.392 312.69H104.987" stroke="#00BA88" stroke-width="1.39811"></path><path d="M655.427 312.69H574.023" stroke="#00BA88" stroke-width="1.39811"></path><path d="M350.626 312.69H204.913" stroke="#00BA88" stroke-width="1.39811"></path><path d="M819.662 312.69H673.949" stroke="#00BA88" stroke-width="1.39811"></path><path d="M810.87 256.094H565.231" stroke="#ED1252" stroke-width="1.39811"></path></svg>